<svg width="336" height="139" viewBox="0 0 336 139" fill="none" xmlns="http://www.w3.org/2000/svg">
<g clip-path="url(#clip0_87_145)">
<path d="M285.387 11.6871C313.425 25.9559 330.949 35.6383 334.954 61.6281C338.923 87.3827 320.935 116.156 290.894 126.348C260.853 136.54 199.77 121.205 156.692 128.247C113.615 135.29 92.1234 144.021 56.0743 134.338C20.0252 124.656 -0.90593 109.213 1.4999 75.897C3.90573 42.5805 23.6078 24.8028 40.0539 16.1424C56.5 7.48197 77.6226 -3.90131 117.158 2.51416C156.693 8.92963 188.489 2.52364 214.79 1.05757C242.629 -0.49419 270.547 4.13512 285.387 11.6871Z" fill="#FFE200"/>
</g>
<defs>
<clipPath id="clip0_87_145">
<rect width="335" height="139" fill="white" transform="translate(0.5)"/>
</clipPath>
</defs>
</svg>
