<svg width="385" height="378" viewBox="0 0 385 378" fill="none" xmlns="http://www.w3.org/2000/svg">
<g clip-path="url(#clip0_69_60)">
<path d="M76.094 357.799C77.4386 354.133 87.1524 335.888 67.488 332.422C47.8236 328.956 117.75 327.229 100.553 330.561C83.3549 333.893 94.7919 354.133 96.0233 357.799L96.0805 357.969C97.2864 361.558 98.2811 364.518 97.8352 368.094C97.3823 371.725 94.4415 377.979 86.5117 377.979C78.5818 377.979 74.7352 372.179 74.2823 368.094C73.8293 364.008 74.7494 361.465 76.094 357.799Z" fill="#FFE200"/>
<path d="M271.518 280.939C302.154 272.638 335.951 257.744 358.078 230.886C379.961 204.273 389.93 165.696 382.635 131.27C375.098 97.0878 350.054 66.8122 322.335 43.8613C294.86 21.1546 264.71 5.52847 234.56 1.86609C204.41 -1.79626 174.017 6.74927 139.247 11.6324C104.477 16.5156 65.331 17.9805 43.9342 37.7574C22.7806 57.5342 19.3766 95.6228 12.5685 133.956C5.76045 172.288 -4.45165 211.11 2.11327 249.198C8.43504 287.287 31.777 324.887 65.0878 331.968C98.3987 339.049 141.922 315.853 177.421 303.401C213.163 290.949 240.639 289.24 271.518 280.939Z" fill="#FFE200"/>
</g>
<defs>
<clipPath id="clip0_69_60">
<rect width="385" height="377" fill="white" transform="matrix(1 0 0 -1 0 377.979)"/>
</clipPath>
</defs>
</svg>
