<svg width="32" height="32" viewBox="0 0 32 32" fill="none" xmlns="http://www.w3.org/2000/svg">
<path d="M1.72 28.5185H3.5V24.7185C3.83 24.3685 4.14 24.2085 4.4 24.2085C4.85 24.2085 5.06 24.4285 5.06 25.2185V28.5185H6.84V24.7185C7.18 24.3685 7.49 24.2085 7.75 24.2085C8.2 24.2085 8.4 24.4285 8.4 25.2185V28.5185H10.18V24.9985C10.18 23.5785 9.64 22.6885 8.4 22.6885C7.64 22.6885 7.11 23.1285 6.62 23.6285C6.33 23.0185 5.85 22.6885 5.06 22.6885C4.29 22.6885 3.8 23.0785 3.33 23.5485H3.3L3.17 22.8285H1.72V28.5185ZM14.6535 28.6585C15.3135 28.6585 16.0935 28.4285 16.6835 28.0085L16.0935 26.9385C15.6835 27.1785 15.3035 27.2985 14.8935 27.2985C14.1735 27.2985 13.6335 26.9785 13.4735 26.1985H16.8135C16.8535 26.0585 16.8935 25.7485 16.8935 25.4285C16.8935 23.8785 16.0935 22.6885 14.4535 22.6885C13.0835 22.6885 11.7535 23.8285 11.7535 25.6685C11.7535 27.5585 13.0135 28.6585 14.6535 28.6585ZM13.4435 25.0285C13.5635 24.3585 13.9935 24.0485 14.4835 24.0485C15.1335 24.0485 15.3835 24.4685 15.3835 25.0285H13.4435ZM18.5305 28.5185H20.3105V24.7185C20.6505 24.3885 20.8905 24.2085 21.2905 24.2085C21.7405 24.2085 21.9505 24.4285 21.9505 25.2185V28.5185H23.7305V24.9985C23.7305 23.5785 23.2005 22.6885 21.9605 22.6885C21.1905 22.6885 20.6105 23.0785 20.1405 23.5385H20.1105L19.9805 22.8285H18.5305V28.5185ZM27.3326 28.6585C28.1026 28.6585 28.6326 28.2985 29.1026 27.7385H29.1426L29.2726 28.5185H30.7226V22.8285H28.9426V26.5585C28.6426 26.9785 28.3926 27.1385 27.9926 27.1385C27.5426 27.1385 27.3326 26.9085 27.3326 26.1285V22.8285H25.5526V26.3485C25.5526 27.7685 26.0826 28.6585 27.3326 28.6585Z" fill="#1B1B1B"/>
<path fill-rule="evenodd" clip-rule="evenodd" d="M32 3.72222C32 4.67338 31.2289 5.44444 30.2778 5.44444H2.72222C1.77106 5.44444 1 4.67338 1 3.72222V3.72222C1 2.77107 1.77106 2 2.72222 2H30.2778C31.2289 2 32 2.77107 32 3.72222V3.72222Z" fill="#1B1B1B"/>
<path fill-rule="evenodd" clip-rule="evenodd" d="M32 14.2037C32 15.1549 31.2289 15.9259 30.2778 15.9259H2.72222C1.77106 15.9259 1 15.1549 1 14.2037V14.2037C1 13.2525 1.77106 12.4815 2.72222 12.4815H30.2778C31.2289 12.4815 32 13.2525 32 14.2037V14.2037Z" fill="#1B1B1B"/>
</svg>
