<svg width="32" height="32" viewBox="0 0 32 32" fill="none" xmlns="http://www.w3.org/2000/svg">
<path d="M6.7589 4.45022C6.45643 4.15807 6.05132 3.99641 5.63082 4.00006C5.21033 4.00371 4.80809 4.17239 4.51074 4.46976C4.2134 4.76712 4.04473 5.16939 4.04108 5.58991C4.03742 6.01044 4.19907 6.41557 4.49121 6.71806L13.7528 15.9803L4.4896 25.2425C4.33643 25.3905 4.21425 25.5674 4.1302 25.7631C4.04615 25.9588 4.00191 26.1693 4.00006 26.3822C3.99821 26.5952 4.03879 26.8064 4.11942 27.0035C4.20006 27.2006 4.31915 27.3797 4.46972 27.5302C4.6203 27.6808 4.79937 27.7999 4.99646 27.8806C5.19355 27.9612 5.40473 28.0018 5.61768 27.9999C5.83062 27.9981 6.04106 27.9538 6.23673 27.8698C6.43239 27.7857 6.60935 27.6635 6.75729 27.5104L16.0205 18.2481L25.2821 27.5104C25.5846 27.8025 25.9897 27.9642 26.4102 27.9605C26.8307 27.9569 27.2329 27.7882 27.5303 27.4908C27.8276 27.1935 27.9963 26.7912 27.9999 26.3707C28.0036 25.9501 27.8419 25.545 27.5498 25.2425L18.2882 15.9803L27.5498 6.71806C27.8419 6.41557 28.0036 6.01044 27.9999 5.58991C27.9963 5.16939 27.8276 4.76712 27.5303 4.46976C27.2329 4.17239 26.8307 4.00371 26.4102 4.00006C25.9897 3.99641 25.5846 4.15807 25.2821 4.45022L16.0205 13.7124L6.7589 4.44862V4.45022Z" fill="black"/>
</svg>
