<svg width="58" height="60" viewBox="0 0 58 60" fill="none" xmlns="http://www.w3.org/2000/svg">
<path d="M51.4736 34.5952C51.0466 33.5163 50.0801 33.4489 49.0687 33.6512C48.7316 33.7186 48.417 33.831 48.0798 33.9658C47.9225 33.8984 47.7652 33.8759 47.6078 33.8535C47.3157 33.831 47.046 33.831 46.7538 33.8535C46.5515 32.2353 46.5965 30.5946 46.4616 28.9763C46.2818 27.2233 46.0121 25.4927 45.6525 23.7846C45.3603 22.3237 45.0457 20.9077 44.4164 19.5592C43.7421 18.1208 42.6408 17.042 41.4721 16.0081C41.2698 15.8283 41.0226 15.6935 40.7529 15.6485C40.6405 15.5811 40.5281 15.4912 40.4158 15.4238C38.9324 14.5023 37.6288 14.772 35.9657 14.9967C35.6735 15.0417 35.4038 15.1316 35.1565 15.2889C35.0891 15.1765 35.0217 15.0866 34.9318 15.0192C34.0553 14.3225 32.9989 13.8954 31.8976 13.7606C30.684 13.5808 29.6276 12.8616 28.369 12.6593C27.1329 12.4795 25.8743 12.4345 24.6381 12.5244C23.402 12.6368 22.2333 13.401 20.9971 13.2661C20.4802 13.1762 19.9633 13.4684 19.8059 13.9629C18.3675 14.6821 17.0864 15.671 16.075 16.9071C14.9063 18.2556 13.5129 19.8289 12.951 21.537C12.6588 22.436 12.5239 23.38 12.2318 24.279C11.9171 25.2679 12.0295 26.1445 11.9171 27.1334C11.8047 28.1897 11.4901 29.2236 11.3777 30.3024C11.2653 31.4486 11.153 32.5724 11.0631 33.7186C11.0631 33.7636 11.0631 33.786 11.0631 33.831C10.0292 33.6287 9.08523 33.1118 7.91652 33.5163C6.43315 34.0557 6.07355 35.6964 6.0286 37.1124C5.96117 39.4273 7.15236 41.54 9.13018 42.4615C9.28751 42.5964 9.46731 42.6863 9.66959 42.7087L10.0741 42.7762C10.3663 42.8436 10.681 42.911 10.9956 42.9335C11.2878 42.956 11.5575 42.8885 11.7823 42.7087C11.8047 42.8211 11.8047 42.911 11.8272 43.0234C12.2318 43.1807 12.479 43.5853 12.4116 44.0123C12.3441 44.6866 12.6588 45.0911 12.8161 45.6979C12.951 46.2149 12.906 46.6869 13.1308 47.1813C13.5129 48.1028 13.9624 48.9793 14.4793 49.8334C14.5467 49.9458 14.5917 50.0581 14.6142 50.1705C14.8839 50.3728 15.0412 50.7099 15.0412 51.0471C15.0861 51.1145 15.2435 51.2718 15.0637 51.0695C15.1086 51.1145 15.1536 51.1819 15.1985 51.2269C15.3783 51.4291 15.5356 51.6539 15.6705 51.9011C16.4796 52.5978 17.3112 53.2721 18.1877 53.9239C18.2776 53.9913 18.39 54.0587 18.5248 54.1037C18.7721 54.2835 19.0193 54.4183 19.289 54.5532C20.7274 55.2275 22.2108 55.8568 23.6942 56.3737C23.7841 56.4636 23.8964 56.5535 24.0313 56.5984C25.3349 57.2053 26.6384 57.3177 27.9645 57.2952C28.2566 57.2952 28.5713 57.2952 28.8635 57.2727C29.9198 57.1828 30.9537 57.1603 32.01 57.2053C32.3696 57.2502 32.7517 57.0929 32.9989 56.8232C33.0439 56.8232 33.1113 56.8232 33.1787 56.8232C33.6057 56.8457 34.0103 56.6434 34.2575 56.3063L36.3927 55.8792C36.7298 55.8343 37.0445 55.6095 37.2243 55.3174C38.2581 54.8454 39.1571 54.0812 40.1685 53.5868C41.6294 52.89 42.5284 51.9461 43.3825 50.5751C43.7196 50.0132 44.0792 49.4288 44.3939 48.8445C44.4164 48.6647 44.4613 48.5073 44.5287 48.35C44.8883 47.7432 45.1131 47.0689 45.1805 46.3722C45.203 45.608 45.2929 44.8439 45.4053 44.0797C45.4727 43.6077 45.8772 43.2706 46.3492 43.2706C46.3717 43.0234 46.3942 42.7762 46.3942 42.5289C47.7202 43.4729 50.1475 42.0345 50.9117 40.9107C51.9231 39.315 52.1703 36.3707 51.4736 34.5952Z" fill="#FFF3E8"/>
<path d="M28.3242 40.933V44.3043C28.3242 44.6864 28.6164 44.9786 28.9985 44.9786C29.3806 44.9786 29.6727 44.6864 29.6727 44.3043V40.933C29.6727 40.551 29.3806 40.2588 28.9985 40.2588C28.6164 40.2588 28.3242 40.551 28.3242 40.933Z" fill="#1B1B1B"/>
<path d="M24.481 48.3048C25.8295 50.8221 28.9761 51.7436 31.4933 50.395C32.3698 49.9231 33.089 49.2039 33.5835 48.3048C34.0105 47.5407 32.8418 46.8664 32.4148 47.6306C31.4259 49.496 29.1109 50.2152 27.2455 49.2263C26.5712 48.8667 26.0093 48.3048 25.6497 47.6306C25.2227 46.8664 24.054 47.5632 24.481 48.3048Z" fill="#1B1B1B"/>
<path d="M21.6942 40.1238C24.1147 40.1238 26.0769 38.1616 26.0769 35.7411C26.0769 33.3206 24.1147 31.3584 21.6942 31.3584C19.2737 31.3584 17.3115 33.3206 17.3115 35.7411C17.3115 38.1616 19.2737 40.1238 21.6942 40.1238Z" fill="white"/>
<path d="M21.6942 40.4611C19.087 40.4611 16.9744 38.3484 16.9744 35.7413C16.9744 33.1342 19.087 31.0215 21.6942 31.0215C24.3013 31.0215 26.414 33.1342 26.414 35.7413C26.414 38.3484 24.3013 40.4611 21.6942 40.4611ZM21.6942 31.6957C19.4691 31.6957 17.6486 33.5162 17.6486 35.7413C17.6486 37.9663 19.4691 39.7868 21.6942 39.7868C23.9192 39.7868 25.7397 37.9663 25.7397 35.7413C25.7397 33.5162 23.9417 31.6957 21.6942 31.6957Z" fill="#1B1B1B"/>
<path d="M36.3028 40.1238C38.7233 40.1238 40.6855 38.1616 40.6855 35.7411C40.6855 33.3206 38.7233 31.3584 36.3028 31.3584C33.8824 31.3584 31.9202 33.3206 31.9202 35.7411C31.9202 38.1616 33.8824 40.1238 36.3028 40.1238Z" fill="white"/>
<path d="M36.3031 40.4611C33.6959 40.4611 31.5833 38.3484 31.5833 35.7413C31.5833 33.1342 33.6959 31.0215 36.3031 31.0215C38.9102 31.0215 41.0229 33.1342 41.0229 35.7413C41.0229 38.3484 38.8877 40.4611 36.3031 40.4611ZM36.3031 31.6957C34.078 31.6957 32.2575 33.5162 32.2575 35.7413C32.2575 37.9663 34.078 39.7868 36.3031 39.7868C38.5281 39.7868 40.3486 37.9663 40.3486 35.7413C40.3486 33.5162 38.5281 31.6957 36.3031 31.6957Z" fill="#1B1B1B"/>
<path d="M38.7555 36.5589C39.9347 36.5589 40.8907 35.6029 40.8907 34.4237C40.8907 33.2445 39.9347 32.2886 38.7555 32.2886C37.5763 32.2886 36.6204 33.2445 36.6204 34.4237C36.6204 35.6029 37.5763 36.5589 38.7555 36.5589Z" fill="#1B1B1B"/>
<path d="M24.1466 36.5589C25.3258 36.5589 26.2818 35.6029 26.2818 34.4237C26.2818 33.2445 25.3258 32.2886 24.1466 32.2886C22.9674 32.2886 22.0115 33.2445 22.0115 34.4237C22.0115 35.6029 22.9674 36.5589 24.1466 36.5589Z" fill="#1B1B1B"/>
<path d="M17.3563 31.8754L18.2328 32.7519C18.3677 32.8868 18.5699 32.8868 18.7048 32.7744C18.8396 32.6395 18.8396 32.4372 18.7273 32.3024C18.7273 32.3024 18.7273 32.2799 18.7048 32.2799L17.8282 31.4034C17.6934 31.2685 17.4911 31.2685 17.3563 31.4034C17.2214 31.5382 17.2214 31.7405 17.3563 31.8754Z" fill="#1B1B1B"/>
<path d="M31.9652 31.8754L32.8417 32.7519C32.9765 32.8868 33.2013 32.8643 33.3137 32.7294C33.426 32.5946 33.426 32.3923 33.3137 32.2799L32.4371 31.4034C32.3023 31.2685 32.1 31.2685 31.9652 31.4034C31.8303 31.5382 31.8303 31.7405 31.9652 31.8754Z" fill="#1B1B1B"/>
<path d="M55.9686 29.3357C55.9462 29.2458 55.9462 29.1783 55.9237 29.0884C55.0471 25.6947 53.4514 22.4807 51.968 19.3117C50.597 16.3899 49.1586 13.4906 47.3606 10.816C45.0906 7.42228 41.8991 3.75881 38.1233 2.18554C37.876 2.00574 37.6063 1.87089 37.3142 1.80346C35.7634 1.35395 34.1676 1.17415 32.5494 1.28653C32.4146 1.2191 32.2572 1.15168 32.0999 1.1292C31.4032 0.971875 30.5491 0.99435 29.9423 1.42138C29.6051 1.64613 29.2455 1.84841 28.8859 2.00574L28.841 2.02821C28.1892 1.37643 27.3351 0.971875 26.4361 0.859498C24.8853 0.634746 23.2446 1.08425 21.8287 1.71356C21.7613 1.71356 21.7163 1.69108 21.6489 1.69108C21.3792 1.66861 21.1095 1.69108 20.8398 1.73603C20.5701 1.75851 20.3004 1.82594 20.0307 1.91584C19.3115 2.16306 18.6597 2.56762 18.1428 3.10703C18.0529 3.19693 17.9854 3.3093 17.8955 3.3992L17.6483 3.48911C16.7942 3.78128 15.0975 4.41059 14.7604 5.24218C11.6363 8.05159 10.164 11.5128 8.11878 15.1762C5.33185 20.0534 2.97194 25.1553 1.06154 30.437C0.746891 31.336 0.994119 32.3474 1.66838 33.0216C1.51105 33.3812 1.48857 33.7858 1.57848 34.1679C1.8257 35.2916 2.02798 36.3255 2.54491 37.2919C2.23026 37.629 2.20778 38.146 2.49996 38.5056C2.88204 39.045 3.42145 39.7867 4.07323 40.1463C4.07323 40.3261 4.11818 40.5284 4.20808 40.6857C4.47779 41.2026 5.08462 41.6521 5.48917 42.0791C5.89373 42.5062 6.41066 42.7984 6.72531 43.2928C7.08492 43.8322 7.30967 44.2817 8.02888 44.4391C8.23116 44.5964 8.47838 44.6638 8.72561 44.6638H8.74809C8.83799 44.7987 8.95037 44.911 9.08522 45.0234C9.44482 45.3605 9.96175 45.428 10.4113 45.2257C10.9731 47.5631 11.5125 49.968 11.4451 52.3728C11.4002 53.564 10.9956 54.5529 10.4562 55.5868C9.80443 56.8454 9.06274 57.25 7.69175 57.5871C6.25333 57.9467 6.88264 59.9695 8.29858 59.7447C10.3663 59.4076 12.4116 59.0705 14.4568 58.6659C14.5692 58.7109 14.704 58.7558 14.8389 58.7558C16.9516 58.8907 18.7271 57.5197 20.7948 57.5421H20.8398C20.9072 57.5421 20.9746 57.5646 21.0421 57.5646C22.6378 57.5646 22.6378 55.0923 21.0421 55.0923C20.8847 55.0923 20.7274 55.1148 20.5926 55.1598C19.244 54.6653 18.2102 54.0585 17.2437 52.8898C16.1874 51.5637 15.221 50.1927 14.3444 48.7318C14.1422 48.4172 13.7825 48.2149 13.4005 48.2149C13.1532 46.8439 12.7936 45.4729 12.5015 44.1693C12.2992 43.3153 11.4002 43.2029 10.8383 43.5625C10.7933 43.5176 10.7709 43.4726 10.7259 43.4277C10.6585 43.3827 10.6135 43.3153 10.5686 43.2703C10.5686 43.2479 10.5461 43.2479 10.5461 43.2254C10.5461 43.2029 10.5012 43.1355 10.4787 43.0905C10.4562 43.0456 10.4562 43.0006 10.4337 42.9782C10.3663 42.7534 10.2315 42.5511 10.0517 42.4163C10.3663 42.0792 10.4337 41.5397 10.1865 41.1352C9.6471 40.1463 9.8269 38.9326 9.93928 37.8538C10.0517 36.6626 10.2315 35.4489 10.7933 34.3701C10.9282 34.1229 10.9507 33.8082 10.8832 33.5385C10.9731 33.5161 11.063 33.5161 11.1305 33.4936C12.052 33.2464 12.8386 32.1001 12.4565 31.1337C12.4116 31.0438 12.3891 30.9539 12.3441 30.864C14.0972 30.6392 15.5806 29.8751 16.974 28.7064C17.0415 28.6614 17.3561 28.3917 17.4235 28.3468C19.289 27.4253 21.087 26.2341 22.2332 24.3686C23.2222 22.7729 23.8964 20.9299 24.6381 19.2218L25.9192 16.3674C26.0765 15.9854 26.2563 15.6258 26.4137 15.2437C27.0879 15.3336 27.7622 15.3336 28.4364 15.2661C28.4364 15.2886 28.4364 15.3111 28.4589 15.3336C29.268 17.8958 30.4817 20.3006 32.01 22.5032C33.3585 24.3911 35.2015 26.9533 37.449 27.8523C37.6063 27.9197 37.7637 27.9647 37.9435 28.0321C38.0558 28.3468 38.3255 28.5715 38.6402 28.6614C40.663 29.3132 42.6633 29.8976 44.7984 29.9875C45.0007 30.0099 45.203 29.9425 45.3828 29.8526C45.63 30.3246 45.8772 30.819 45.8323 31.3135C45.8098 31.6731 45.9671 32.0102 46.2818 32.2125C46.3043 32.6171 46.529 32.9991 46.8886 33.2014C46.8661 33.4262 46.9336 33.6734 47.046 33.8532C47.7427 35.0219 48.1697 36.303 48.3495 37.629C48.4394 38.2584 48.4844 38.9101 48.5068 39.5394C48.5068 39.8766 48.6642 41.0228 48.4844 41.4498L48.2371 41.787C47.8326 42.3489 48.1248 42.9782 48.6192 43.2703C48.1023 43.2029 47.5854 43.3602 47.2258 43.7198C47.1134 43.6299 47.001 43.5625 46.8661 43.54L46.574 43.4951C46.3717 43.4951 46.1694 43.54 46.0121 43.6524L45.7873 43.8322C45.6525 43.9671 45.5401 44.1469 45.4952 44.3267L45.4502 44.6189L45.2929 44.8211C45.1805 45.0009 45.1131 45.2257 45.1131 45.4504V45.6302C45.1131 45.7426 45.1356 45.8775 45.158 45.9674C44.9557 46.1921 44.8434 46.4843 44.8434 46.7765C44.8434 46.8664 44.8434 46.9338 44.8434 47.0237C44.8434 47.1136 44.8209 47.1586 44.7984 47.2035C44.776 47.2934 44.7535 47.4058 44.7535 47.5182C43.787 48.9116 43.1802 50.5523 42.1014 51.9008C41.4271 52.7099 40.663 53.4067 39.7864 53.991C39.0897 54.4855 37.9659 55.5194 37.0894 55.5418C35.651 55.5643 35.6285 57.8118 37.0894 57.7894C37.3142 57.7894 37.5614 57.7669 37.7861 57.6995C37.8536 57.7669 37.9435 57.8118 38.0334 57.8568C38.393 58.0366 38.7751 58.1265 39.1796 58.104C39.8763 58.4187 40.618 58.5985 41.3597 58.6434C42.2587 58.7333 43.0454 59.0255 43.9444 59.2278C45.8772 59.7222 47.9899 59.6998 49.9677 59.8571C50.4847 59.9245 50.9791 59.5649 51.0465 59.0255C51.0465 58.9806 51.0465 58.9131 51.0465 58.8682C51.114 58.4861 50.9791 58.1265 50.7094 57.8568C50.597 57.677 50.4622 57.5421 50.2824 57.4522C48.4844 56.4858 47.4056 55.5868 46.7313 53.609C46.0795 51.6761 46.1694 49.8331 47.2932 48.1025C47.4056 47.9227 47.473 47.7204 47.473 47.5182C48.0798 47.4283 48.5293 46.9113 48.5518 46.3045C48.5518 46.282 48.5518 46.2596 48.5518 46.2371L48.5743 46.1472L48.6866 45.9224C48.7316 45.8325 48.7765 45.7426 48.8215 45.6527C49.2036 45.5403 49.4958 45.2257 49.5857 44.8436C49.6081 44.7312 49.6306 44.5964 49.6081 44.484C49.9453 44.529 50.2599 44.4166 50.5071 44.2143C51.069 43.7648 51.586 43.2703 52.0804 42.7534C52.1254 42.7309 52.1928 42.7085 52.2377 42.6635C54.0133 41.5622 54.71 39.3147 55.5191 37.4942C56.553 35.2017 56.4631 32.8193 56.553 30.3471C56.5979 29.8976 56.3507 29.5155 55.9686 29.3357Z" fill="#754414"/>
<path d="M25.6494 14.772C24.9751 17.0195 24.2784 19.2671 23.1996 21.3573C22.3005 23.1777 21.0419 24.796 19.4911 26.0995C18.6371 26.7963 17.6931 27.3806 16.6817 27.7852C16.3221 27.8976 16.1198 28.2572 16.2097 28.6168C16.2996 28.9314 16.7042 29.2236 17.0413 29.0887C19.0641 28.2572 20.8396 26.9536 22.2331 25.2679C23.7614 23.4475 24.8178 21.3348 25.6269 19.1322C26.1213 17.8062 26.5259 16.4801 26.9304 15.1316C27.2002 14.3 25.8966 13.9404 25.6494 14.772Z" fill="#1B1B1B"/>
<path d="M27.4474 15.3563C28.5038 17.9185 29.7849 20.3907 31.3357 22.7057C32.7741 24.8633 34.4822 26.8861 36.7297 28.2346C37.9659 28.9988 39.3144 29.5157 40.7303 29.7629C41.0899 29.8528 41.4495 29.6505 41.5619 29.2909C41.6518 28.9313 41.4495 28.5717 41.0899 28.4594C38.7525 28.0548 36.7072 26.8411 35.0216 25.178C33.2236 23.4024 31.8526 21.1774 30.6389 18.9748C29.9197 17.6937 29.2904 16.3452 28.7285 14.9967C28.6161 14.6371 28.2565 14.4348 27.8969 14.5247C27.6048 14.6146 27.3126 15.0191 27.4474 15.3563Z" fill="#1B1B1B"/>
<path d="M35.7408 18.5028C37.0668 22.5034 39.1795 26.1893 41.9889 29.3358C42.7755 30.2124 43.6071 31.044 44.4837 31.8306C44.7534 32.0778 45.1804 32.0778 45.4276 31.8306C45.6973 31.5609 45.6973 31.1339 45.4276 30.8866C42.3935 28.2121 39.9661 24.9307 38.258 21.2672C37.786 20.2558 37.3815 19.222 37.0443 18.1431C36.932 17.7835 36.5724 17.5813 36.2128 17.6712C35.8532 17.7835 35.6284 18.1431 35.7408 18.5028Z" fill="#1B1B1B"/>
<path d="M20.0306 17.9186C19.2889 19.829 18.4573 21.6945 17.5583 23.5375C16.7042 25.3355 15.7378 27.0661 14.659 28.7292C14.1421 29.5384 13.4903 30.2351 12.7036 30.7745C12.389 30.9768 12.2766 31.3813 12.4564 31.696C12.6362 32.0106 13.0632 32.123 13.3779 31.9432C15.0186 30.8419 16.03 29.1338 16.9964 27.4482C18.0528 25.5827 19.0192 23.6723 19.8957 21.717C20.4127 20.5932 20.8846 19.447 21.3341 18.2782C21.424 17.9186 21.2218 17.559 20.8622 17.4467C20.5026 17.3568 20.143 17.5815 20.0306 17.9186Z" fill="#1B1B1B"/>
<path d="M26.998 14.8842C26.9306 15.8731 26.9755 16.8845 27.0879 17.8734C27.2003 18.8623 27.3351 19.8737 27.5374 20.8402C27.897 22.5932 28.4814 24.3463 29.4703 25.8522C30.0097 26.6613 30.6615 27.4029 31.4256 28.0098C31.6953 28.257 32.0999 28.257 32.3696 28.0098C32.5943 27.7625 32.6618 27.2906 32.3696 27.0658C29.6725 24.9082 28.841 21.402 28.4589 18.1207C28.3016 17.0418 28.2566 15.963 28.324 14.8842C28.324 14.5021 28.0319 14.21 27.6498 14.21C27.3126 14.21 27.0205 14.5021 26.998 14.8842Z" fill="#1B1B1B"/>
<path d="M14.6141 21.0426C13.6926 23.897 13.6701 26.9761 12.5688 29.7855C12.0069 31.2239 11.3102 32.5724 10.6359 33.9434C9.9392 35.3594 9.24246 36.7528 9.06266 38.3486C8.88286 40.0567 9.26494 41.8098 9.78187 43.428C9.89425 43.7876 10.2763 43.9899 10.6359 43.8775C10.9731 43.7651 11.1753 43.428 11.0854 43.0684C10.6359 41.6749 10.2988 40.259 10.3662 38.7756C10.4337 37.2922 11.1079 36.0112 11.7372 34.7076C12.4115 33.3141 13.1082 31.9431 13.6926 30.5047C14.232 29.1337 14.6141 27.7178 14.8613 26.2794C15.1535 24.6387 15.4007 22.9755 15.8951 21.3798C16.0075 21.0201 15.8052 20.6381 15.4456 20.5257C15.086 20.4133 14.704 20.6156 14.5916 20.9752C14.6141 21.0201 14.6141 21.0426 14.6141 21.0426Z" fill="#1B1B1B"/>
<path d="M42.0788 21.4022C42.9778 24.2341 43.0228 27.2682 44.0791 30.0327C44.641 31.4711 45.3152 32.8421 46.012 34.2355C46.6413 35.5166 47.383 36.8202 47.5852 38.2361C47.81 39.8768 47.4279 41.5175 46.911 43.0683C46.8211 43.4279 47.0458 43.7875 47.4054 43.8774C47.7426 43.9673 48.1022 43.7651 48.2145 43.4279C48.6865 41.9895 49.0237 40.4612 48.9787 38.9329C48.9562 38.1687 48.8214 37.4046 48.5966 36.6854C48.3269 35.9437 48.0123 35.2245 47.6527 34.5053C46.9784 33.1118 46.2592 31.7183 45.6524 30.2799C45.0905 28.9089 44.7084 27.4705 44.4612 26.0321C44.1465 24.3689 43.9218 22.6608 43.4048 21.0426C43.2925 20.683 42.9329 20.4807 42.5732 20.5706C42.1912 20.683 41.9889 21.0426 42.0788 21.4022Z" fill="#1B1B1B"/>
<path d="M8.83803 45.7876C10.254 47.7204 11.6025 50.1702 11.2878 52.6425C10.9957 54.7552 9.28753 56.5532 7.42209 57.4747C6.34327 58.0141 5.12961 58.2389 3.93842 58.1939C3.55634 58.1939 3.26416 58.4861 3.26416 58.8682C3.26416 59.2503 3.55634 59.5424 3.93842 59.5424C6.47812 59.6323 8.9504 58.5985 10.681 56.733C11.58 55.8115 12.2093 54.6653 12.524 53.4067C12.7937 52.0806 12.7262 50.7321 12.2992 49.451C11.7823 47.8778 11.0181 46.4169 10.0292 45.1133C9.82694 44.7987 9.42238 44.6863 9.10773 44.8661C8.7706 45.0684 8.65823 45.4729 8.83803 45.7876Z" fill="#1B1B1B"/>
<path d="M21.851 56.2614C17.5583 57.992 12.9508 58.8011 8.32094 58.6213C6.99489 58.5763 5.69133 58.4415 4.38776 58.2167C4.02816 58.1268 3.66855 58.3291 3.55618 58.6887C3.46628 59.0483 3.66855 59.4079 4.02816 59.5203C8.81539 60.3294 13.715 60.0822 18.4123 58.8236C19.6934 58.464 20.9745 58.0369 22.2107 57.5425C22.5703 57.4301 22.7725 57.0705 22.6826 56.7109C22.5927 56.4187 22.1882 56.1265 21.851 56.2614Z" fill="#1B1B1B"/>
<path d="M29.8524 1.44404C28.841 0.90463 27.7622 0.4776 26.6609 0.185421C25.5147 -0.061807 24.3235 -0.061807 23.1773 0.185421C21.0646 0.657402 18.9969 1.37661 17.1314 2.50037C15.266 3.64661 13.6477 5.26483 12.2093 6.928C10.7484 8.68107 9.44487 10.569 8.34358 12.5468C5.89377 16.7722 4.1407 21.3571 1.89317 25.6949C1.62347 26.2343 1.39872 26.7961 1.21892 27.3805C1.01664 27.9199 0.859312 28.4818 0.72446 29.0661C0.477232 30.2573 0.364856 31.4485 0.387331 32.6622C0.387331 35.0221 0.994163 37.337 2.16288 39.3823C4.27555 43.0233 7.91655 45.5405 11.7373 47.1138C12.1868 47.2936 12.6588 47.4734 13.1308 47.6532C13.4904 47.7431 13.85 47.5408 13.9624 47.1812C14.0523 46.8216 13.85 46.462 13.4904 46.3496C9.89437 45.091 6.34328 42.9783 4.07328 39.8543C2.81466 38.1911 2.02803 36.2133 1.7808 34.1231C1.53357 31.8756 1.80327 29.628 2.56743 27.4929C2.94951 26.459 3.46644 25.4926 3.9609 24.5037C4.47783 23.4473 4.97229 22.391 5.44427 21.3122C6.43318 19.1546 7.42209 17.0194 8.52338 14.9292C10.5686 11.0859 13.0184 7.35503 16.4347 4.59057C17.9855 3.37691 19.7835 2.4779 21.6714 1.93849C22.6603 1.64631 23.6942 1.33166 24.728 1.30918C25.7394 1.30918 26.7508 1.53394 27.6948 1.91602C28.1892 2.11829 28.6387 2.34305 29.1107 2.59028C29.4254 2.77008 29.8299 2.6577 30.0322 2.34305C30.2794 2.05087 30.1671 1.64631 29.8524 1.44404Z" fill="#1B1B1B"/>
<path d="M47.9673 45.1137C46.349 47.3388 44.9781 50.1033 45.3826 52.9127C45.7422 55.4074 47.6751 57.565 49.8777 58.6439C51.1588 59.2956 52.5972 59.6103 54.0356 59.5429C54.3952 59.5429 54.7099 59.2282 54.7099 58.8686C54.7099 58.4865 54.4177 58.1943 54.0356 58.1943C51.8555 58.2843 49.7203 57.4077 48.2594 55.767C47.5178 54.9804 46.9784 54.0139 46.7311 52.9576C46.5064 51.8563 46.6862 50.6876 47.0233 49.6088C47.5178 48.2378 48.2145 46.9342 49.091 45.7655C49.2708 45.4509 49.1809 45.0238 48.8438 44.844C48.5741 44.6867 48.1695 44.7991 47.9673 45.1137Z" fill="#1B1B1B"/>
<path d="M35.7857 57.5649C40.2134 59.3629 44.9781 60.172 49.7653 59.9697C51.1813 59.9023 52.5748 59.745 53.9682 59.5202C54.3278 59.4303 54.5301 59.0482 54.4402 58.6886C54.3278 58.329 53.9682 58.1267 53.6086 58.2166C47.7201 59.1831 41.6743 58.5088 36.1453 56.2388C35.8082 56.104 35.4036 56.3961 35.3137 56.7108C35.2238 57.0929 35.4261 57.4525 35.7857 57.5649Z" fill="#1B1B1B"/>
<path d="M28.8185 2.61266C29.74 2.11821 30.7289 1.73613 31.7403 1.4889C32.7517 1.28662 33.7855 1.3091 34.7744 1.55632C36.7523 1.98335 38.6627 2.74751 40.3933 3.80385C42.1463 4.92762 43.6297 6.47841 44.9782 8.05168C46.3717 9.69237 47.5179 11.5353 48.5967 13.4008C50.9566 17.4913 52.6648 21.8964 54.7999 26.0768C55.7888 28.0547 56.2833 30.2572 56.2608 32.4823C56.3058 34.6399 55.7439 36.7526 54.6875 38.618C52.7547 41.9669 49.3609 44.3492 45.8548 45.8101C45.4052 45.9899 44.9557 46.1697 44.5062 46.3271C44.1466 46.4394 43.9444 46.799 44.0343 47.1586C44.1242 47.5183 44.5062 47.7205 44.8658 47.6306C48.799 46.2596 52.5299 43.9896 55.0247 40.5959C56.3732 38.7754 57.2272 36.6177 57.4969 34.3702C57.7891 31.9878 57.5419 29.583 56.7553 27.3355C56.5755 26.7736 56.3507 26.2342 56.081 25.6948C55.7888 25.1329 55.5191 24.5935 55.2494 24.0316C54.71 22.9528 54.2156 21.8515 53.6986 20.7502C52.6872 18.5476 51.6758 16.3226 50.5296 14.1874C49.4508 12.1197 48.2147 10.1419 46.8212 8.27643C45.4502 6.43346 43.8545 4.79276 42.0564 3.37682C40.3483 2.11821 38.4379 1.17425 36.3927 0.612363C35.2689 0.29771 34.1227 -0.0169442 32.9539 0.0055311C31.8527 0.0504816 30.7514 0.275234 29.74 0.72474C29.2006 0.949492 28.6612 1.19672 28.1218 1.46642C27.7846 1.62375 27.6498 2.02831 27.8071 2.36543C27.9644 2.70256 28.369 2.83742 28.7061 2.68009C28.7511 2.63514 28.7735 2.63514 28.8185 2.61266Z" fill="#1B1B1B"/>
<path d="M11.8944 41.9668C10.5459 42.2589 8.9052 41.8094 8.16351 40.5733C7.69153 39.7642 7.62411 38.7528 7.60163 37.8538C7.53421 36.8874 7.64658 35.9434 7.91629 35.0219C8.07361 34.5724 8.34332 34.2128 8.83777 34.2353C9.33223 34.2577 9.78173 34.6174 10.1638 34.932C10.5009 35.2017 10.9729 34.7297 10.6358 34.46C9.87163 33.8307 8.74787 33.134 7.82638 33.9206C7.48926 34.2577 7.2645 34.6848 7.1746 35.1568C7.01728 35.7411 6.94985 36.3255 6.92737 36.9323C6.9049 37.5167 6.92737 38.101 6.9948 38.6854C7.03975 39.2473 7.15213 39.8091 7.33193 40.3485C7.66906 41.2026 8.29837 41.8993 9.12995 42.2814C10.0514 42.7309 11.1078 42.8433 12.1192 42.6185C12.5012 42.5286 12.3214 41.8769 11.8944 41.9668Z" fill="#FFF3E8"/>
<path d="M13.9395 39.2919L13.8496 38.5502C13.7147 38.0782 13.4675 37.6512 13.1304 37.3141L12.5685 36.8646C12.3437 36.7297 12.074 36.6173 11.8043 36.5724C11.7144 36.5499 11.647 36.5274 11.5346 36.4825C11.2649 36.4151 10.9952 36.3701 10.703 36.3701C9.9164 36.3701 9.15225 36.6848 8.61284 37.2467L8.16333 37.8085C7.96106 38.1232 7.84868 38.4828 7.8262 38.8424C7.75878 39.0896 7.75878 39.3369 7.8262 39.5841C7.84868 39.9662 7.96106 40.3258 8.16333 40.6179C8.23076 40.7303 8.29818 40.8427 8.38809 40.9326C8.45551 41.045 8.52294 41.1349 8.61284 41.2248C8.70274 41.3147 8.79264 41.4046 8.88254 41.472C8.90502 41.4945 8.92749 41.517 8.94997 41.5394C9.48937 42.0339 10.1861 42.3261 10.9278 42.371L11.6695 42.2586C12.1415 42.1238 12.5685 41.8766 12.9056 41.5394L13.2203 41.1349C13.445 40.9101 13.6023 40.6404 13.6922 40.3482C13.8721 40.0336 13.962 39.674 13.9395 39.2919Z" fill="#FFF3E8"/>
<path d="M15.3557 38.7304C14.9736 37.5842 13.9173 36.6178 12.6362 36.6627C12.5687 36.6627 12.5013 36.6627 12.4339 36.6852C12.3889 36.3256 12.299 35.966 12.1642 35.6513C11.7596 34.6849 11.018 34.1005 10.029 33.7634C8.63557 33.2914 6.90498 34.3028 6.56785 35.7187C6.38805 36.4604 6.50042 37.2695 6.90498 37.9213C6.90498 38.3933 6.9724 38.8653 7.03983 39.3373C7.26458 40.1689 7.73656 40.8881 8.41082 41.4275C9.19746 42.1467 10.2313 42.5737 11.2877 42.6187C12.3215 42.6411 13.1306 42.304 14.0521 41.8994C15.1309 41.4275 15.6928 39.8092 15.3557 38.7304Z" fill="#FFF3E8"/>
<path d="M51.4959 36.0781C51.3835 34.6847 50.2822 33.1114 48.6865 33.2687C47.7201 33.3586 47.0008 33.6733 46.394 34.37C46.4839 34.2352 46.2816 34.4374 46.0794 34.5273C45.0455 34.9993 44.551 36.3254 44.7308 37.4716C43.8094 37.9661 43.1126 39.0449 43.1576 40.0338C43.225 41.7194 44.3937 42.6409 45.967 42.8432C47.7875 43.0679 49.563 42.4162 50.507 40.753C50.8891 40.0787 51.0239 39.3595 51.1588 38.6178C51.2936 37.8087 51.5633 36.9097 51.4959 36.0781Z" fill="#FFF3E8"/>
<path d="M10.838 33.1341C9.73675 32.5497 8.34328 31.9878 7.17457 32.7745C6.00585 33.5611 5.80357 35.2692 5.7811 36.5278C5.73615 38.9552 6.34298 41.6747 8.47813 43.1356C9.55694 43.8548 10.9504 44.147 12.1866 43.7424C12.5462 43.63 12.7484 43.2704 12.6585 42.9108C12.5686 42.5512 12.1866 42.3489 11.8269 42.4388C11.0403 42.6861 10.1863 42.5962 9.46704 42.1691C8.68041 41.7196 8.07358 41.0004 7.71397 40.1688C7.35437 39.2923 7.15209 38.3259 7.12962 37.3819C7.08466 36.3705 7.10714 35.2468 7.57912 34.3253C8.11853 33.2914 9.33219 33.8758 10.1638 34.3028C10.5009 34.4826 10.9055 34.3477 11.0628 34.0106C11.2201 33.696 11.1302 33.3139 10.838 33.1341Z" fill="#1B1B1B"/>
<path d="M47.8324 34.3029C48.2595 34.0557 48.709 33.8534 49.2034 33.741C49.563 33.6511 49.9676 33.7635 50.2373 34.0332C50.5519 34.3928 50.6643 34.9097 50.7542 35.3592C50.8441 35.8986 50.8891 36.4381 50.8666 36.9775C50.8441 38.7755 50.4171 40.8882 48.8438 41.967C48.0122 42.5288 47.0907 42.7536 46.1693 42.4389C45.8097 42.349 45.4276 42.5513 45.3377 42.9109C45.2478 43.2705 45.45 43.6526 45.8097 43.7425C46.9334 44.0796 48.1471 43.9448 49.1585 43.3604C50.2148 42.7761 51.0239 41.8321 51.4734 40.7308C51.9454 39.5621 52.1926 38.326 52.1926 37.0674C52.2151 35.7863 52.1027 34.1681 51.1812 33.1567C50.6868 32.6397 50.0125 32.37 49.2933 32.4375C48.5067 32.4824 47.81 32.8195 47.1132 33.1791C46.7986 33.3814 46.7087 33.786 46.9109 34.1006C47.1357 34.3703 47.5178 34.4602 47.8324 34.3029Z" fill="#1B1B1B"/>
<path d="M11.063 33.0441C10.6809 34.415 10.9056 35.8984 11.6698 37.0896C11.8271 37.4267 12.2317 37.5616 12.5688 37.4043C12.9059 37.2469 13.0408 36.8424 12.8835 36.5052C12.861 36.4828 12.861 36.4603 12.8385 36.4153C12.7711 36.303 12.7037 36.1906 12.6362 36.0782C12.6138 36.0333 12.5688 35.9658 12.5463 35.8984C12.5463 35.8759 12.434 35.6512 12.5014 35.8085C12.389 35.5388 12.3216 35.2916 12.2766 34.9994C12.2766 34.9545 12.2541 34.932 12.2541 34.887C12.2541 34.9545 12.2541 34.9769 12.2541 34.9095C12.2541 34.8421 12.2317 34.7747 12.2317 34.6847C12.2317 34.5274 12.2317 34.3926 12.2317 34.2352C12.2317 34.1453 12.2317 34.0554 12.2541 33.988C12.2541 33.9655 12.2766 33.7857 12.2541 33.8981C12.2766 33.7183 12.3216 33.5385 12.3665 33.3587C12.4564 32.9991 12.2541 32.617 11.8945 32.5271C11.5349 32.4372 11.1529 32.6395 11.063 32.9991V33.0441Z" fill="#1B1B1B"/>
<path d="M45.5177 33.4037C45.5627 33.561 45.5852 33.7408 45.6301 33.8981C45.6301 33.9431 45.6301 33.9431 45.6301 33.8757C45.6301 33.9206 45.6301 33.9656 45.6526 34.0105C45.6526 34.1004 45.6751 34.1903 45.6751 34.2577C45.6751 34.4151 45.6751 34.5499 45.6751 34.7072C45.6751 34.7747 45.6751 34.8196 45.6526 34.8871C45.6526 34.9545 45.6526 34.977 45.6526 34.8871L45.6301 34.9994C45.5852 35.2691 45.5177 35.5388 45.4054 35.8085C45.4728 35.6512 45.3829 35.876 45.3604 35.8984L45.293 36.0333C45.2256 36.1681 45.1581 36.2805 45.0682 36.3929C44.8884 36.7075 45.0008 37.1346 45.3155 37.3144C45.6301 37.4942 46.0347 37.3818 46.2369 37.0672C47.0011 35.876 47.2259 34.3926 46.8438 33.0216C46.7539 32.662 46.3943 32.4372 46.0347 32.5271C45.6751 32.617 45.4503 32.9767 45.5402 33.3363C45.5177 33.3812 45.5177 33.4037 45.5177 33.4037Z" fill="#1B1B1B"/>
<path d="M44.641 42.7087C44.5287 45.5181 43.5173 48.2151 41.7417 50.3952C39.8763 52.6877 37.2692 54.3509 34.5272 55.3622C32.6842 56.0365 30.7289 56.4411 28.796 56.8231C28.4364 56.913 28.2341 57.2951 28.324 57.6547C28.4364 58.0143 28.796 58.2166 29.1556 58.1267C30.9536 57.8121 32.7292 57.3625 34.4597 56.8007C36.033 56.2613 37.5613 55.5421 38.9548 54.6206C41.517 52.9574 43.6297 50.6649 44.8433 47.8106C45.5401 46.1923 45.9221 44.4617 45.9896 42.7087C46.012 41.8321 44.6635 41.8321 44.641 42.7087Z" fill="#1B1B1B"/>
<path d="M12.0069 42.7087C12.1192 45.7878 13.243 48.7545 15.1759 51.1818C17.1537 53.6991 19.9856 55.4746 22.9523 56.5984C24.8403 57.3176 26.863 57.7446 28.8633 58.1267C29.2229 58.2166 29.5825 58.0143 29.6949 57.6547C29.7848 57.2951 29.5825 56.9355 29.2229 56.8231C27.4699 56.5085 25.7393 56.0815 24.0536 55.542C22.5702 55.0476 21.1543 54.3733 19.8507 53.5418C17.4459 52.0584 15.558 49.8783 14.4117 47.2936C13.7824 45.8552 13.4228 44.2819 13.3779 42.7087C13.3329 41.8321 11.9844 41.8321 12.0069 42.7087Z" fill="#1B1B1B"/>
<path d="M41.517 27.0211C40.5056 24.2117 36.4825 22.8407 34.0552 24.6387C33.6956 24.8859 33.4034 25.2006 33.1562 25.5602C33.0663 25.7175 33.1112 25.9198 33.2685 26.0322C33.4259 26.1221 33.6281 26.0771 33.7405 25.9198L33.763 25.8748L33.808 25.8299C33.8529 25.7625 33.808 25.8299 33.8304 25.7849C33.9653 25.6276 34.1001 25.4703 34.2575 25.3354C34.7744 24.9084 35.4037 24.6387 36.0555 24.5488C37.7186 24.3465 39.3593 25.0208 40.3707 26.3693C40.5281 26.5716 40.6629 26.7963 40.7753 27.0211C40.7978 27.066 40.8652 27.2234 40.8652 27.2009C40.8652 27.1784 40.8652 27.2234 40.8877 27.2458C41.0225 27.6054 41.6518 27.4256 41.517 27.0211Z" fill="#1B1B1B"/>
<path d="M17.1315 27.2008C17.1315 27.1783 17.1539 27.1559 17.1539 27.1559C17.1315 27.2458 17.1764 27.1109 17.1989 27.066C17.2888 26.8862 17.4012 26.7064 17.5135 26.5266C17.8732 25.9872 18.3676 25.5152 18.9295 25.178C20.323 24.3465 22.2558 24.2116 23.5819 25.223C23.7842 25.3803 23.964 25.5377 24.1213 25.7399C24.1662 25.7849 24.1887 25.8298 24.2112 25.8748C24.2337 25.8973 24.2337 25.9197 24.2561 25.9422C24.346 26.0995 24.5483 26.167 24.7281 26.0546C24.8854 25.9647 24.9529 25.7624 24.8405 25.5826C24.2561 24.6386 23.1099 24.0318 22.0536 23.8745C20.1656 23.6273 18.2777 24.4139 17.109 25.9197C16.8393 26.2569 16.637 26.6165 16.4797 27.021C16.3448 27.4256 16.9966 27.6054 17.1315 27.2008Z" fill="#1B1B1B"/>
<path d="M6.95323 26.72C6.25167 26.0978 5.7706 24.9956 5.51002 24C5.26949 24.9956 4.78842 26.0978 4.06682 26.72C3.36526 27.3422 2.12249 27.7867 1 28C2.12249 28.2133 3.36526 28.64 4.06682 29.28C4.76837 29.92 5.26949 31.0044 5.51002 32C5.75056 31.0044 6.23163 29.9022 6.93319 29.28C7.63474 28.6578 8.87751 28.2133 10 28C8.89755 27.7689 7.65479 27.3422 6.95323 26.72Z" fill="#FFE200"/>
</svg>
