<svg width="18" height="140" viewBox="0 0 18 140" fill="none" xmlns="http://www.w3.org/2000/svg">
<path fill-rule="evenodd" clip-rule="evenodd" d="M10.9546 74.9902H9.94811V137.254L0.773174 126.377L-2.34596e-05 127.013L10.9546 140V74.9902Z" fill="#1B1B1B"/>
<path d="M18 51.015C18 48.1887 16.4958 46.6935 14.546 46.6935C12.6334 46.6935 11.872 48.134 11.3706 49.4286C10.9806 50.5044 10.7392 51.3979 10.1079 51.3979C9.60649 51.3979 9.34652 51.0514 9.34652 50.3038C9.34652 49.6292 9.69934 48.8998 10.2379 48.1522L8.26947 46.7117C7.58239 47.5869 6.91389 48.7904 6.91389 50.4132C6.91389 52.8384 8.26947 54.4247 10.2564 54.4247C12.0206 54.4247 12.8748 53.0207 13.3761 51.7808C13.8032 50.7232 14.1004 49.7203 14.7317 49.7203C15.2517 49.7203 15.5674 50.085 15.5674 50.942C15.5674 51.7626 15.1774 52.6196 14.4532 53.5677L16.5144 55.0082C17.4058 53.9507 18 52.3643 18 51.015Z" fill="#1B1B1B"/>
<path d="M18 39.3312C18 38.2371 17.6657 36.9242 16.7558 35.9031L14.5832 37.1613C15.0103 37.6901 15.326 38.31 15.326 38.9665C15.326 40.2246 14.2118 41.1728 12.4477 41.1728C10.7021 41.1728 9.58792 40.2793 9.58792 38.8388C9.58792 38.4012 9.75505 38.0001 10.145 37.526L8.04664 36.0125C7.35956 36.7966 6.91389 37.7813 6.91389 39.0394C6.91389 41.9386 8.95655 44.4914 12.4477 44.4914C15.9573 44.4914 18 42.2486 18 39.3312Z" fill="#1B1B1B"/>
<path d="M17.74 33.2025V29.9568H11.7049C10.3121 29.428 9.81076 28.4981 9.81076 27.7322C9.81076 27.2764 9.88504 26.9664 9.97789 26.5835L7.13672 26.0547C7.00673 26.3465 6.91389 26.6929 6.91389 27.3129C6.91389 28.3522 7.60096 29.501 9.01226 30.2668V30.3215L7.17386 30.5585V33.2025H17.74Z" fill="#1B1B1B"/>
<path d="M18 19.5424C18 16.9167 15.9573 14.4733 12.4477 14.4733C8.95655 14.4733 6.91389 16.9167 6.91389 19.5424C6.91389 22.1864 8.95655 24.6297 12.4477 24.6297C15.9573 24.6297 18 22.1864 18 19.5424ZM15.326 19.5424C15.326 20.7641 14.2118 21.3111 12.4477 21.3111C10.7021 21.3111 9.58792 20.7641 9.58792 19.5424C9.58792 18.339 10.7021 17.7919 12.4477 17.7919C14.2118 17.7919 15.326 18.339 15.326 19.5424Z" fill="#1B1B1B"/>
<path d="M18 8.57059C18 7.84123 17.87 7.31244 17.7214 6.96599L15.2888 7.34891C15.326 7.53125 15.326 7.60419 15.326 7.71359C15.326 7.96887 15.1217 8.27885 14.416 8.27885H2.90283V11.5245H14.3046C16.5144 11.5245 18 10.7952 18 8.57059Z" fill="#1B1B1B"/>
<path d="M18 1.60458C18 0.875216 17.87 0.346427 17.7214 -2.19946e-05L15.2888 0.382897C15.326 0.565239 15.326 0.638176 15.326 0.74758C15.326 1.00286 15.1217 1.31284 14.416 1.31284H2.90283V4.55851H14.3046C16.5144 4.55851 18 3.82915 18 1.60458Z" fill="#1B1B1B"/>
</svg>
