<svg width="187" height="60" viewBox="0 0 187 60" fill="none" xmlns="http://www.w3.org/2000/svg">
<g clip-path="url(#clip0_511_158)">
<path d="M73.1128 42.72C71.8381 43.3482 70.4317 43.6624 69.011 43.6364C65.8037 43.6364 63.7091 42.2836 62.531 41.1491C61.7207 40.3482 61.0793 39.393 60.6446 38.34C60.2099 37.2869 59.9907 36.1574 60 35.0182C60.0024 33.8417 60.2368 32.6773 60.6898 31.5916C61.1428 30.5059 61.8056 29.5202 62.64 28.6909C64.1891 27.2291 66.4582 26.2036 69.2728 26.2036C70.6004 26.1995 71.9098 26.5138 73.091 27.12V32.0291C72.2138 31.357 71.1414 30.9893 70.0364 30.9818C69.5093 30.9653 68.9842 31.0555 68.4928 31.2471C68.0014 31.4386 67.5537 31.7274 67.1767 32.0963C66.7997 32.4651 66.5012 32.9063 66.299 33.3934C66.0968 33.8806 65.9951 34.4035 66 34.9309C65.9991 35.941 66.3633 36.9173 67.0255 37.68C67.4124 38.0864 67.8803 38.4071 68.399 38.6213C68.9176 38.8355 69.4755 38.9385 70.0364 38.9236C71.1409 38.9481 72.2148 38.559 73.0473 37.8327L73.1128 42.72Z" fill="#1B1B1B"/>
<path d="M76.4727 16.3636H82.3637V28.7564C82.8799 28.1194 83.4994 27.5736 84.1964 27.1418C85.2336 26.5815 86.3997 26.3031 87.5782 26.3345C89.9128 26.3345 91.44 27.0982 92.4437 28.1018C93.9055 29.5636 93.9928 31.1127 93.9928 32.6836V43.0909H88.1019V34.8C88.1019 33.6 88.0364 32.3564 87.36 31.6145C86.7928 31.0036 86.0728 30.9164 85.4837 30.9164C84.8946 30.9164 84.0218 31.0255 83.3455 31.6145C82.8218 32.0945 82.3418 32.9673 82.3418 34.2764V43.0691H76.4509L76.4727 16.3636Z" fill="#1B1B1B"/>
<path d="M114.72 35.9782H102.458C102.458 36.8509 102.786 38.0291 103.484 38.7273C103.855 39.0982 104.596 39.5345 105.906 39.5345C106.058 39.5345 107.084 39.5127 107.826 39.0982C108.261 38.8356 108.616 38.4582 108.851 38.0073H114.48C114.136 39.2932 113.45 40.4618 112.495 41.3891C111.273 42.5455 109.353 43.6364 105.796 43.6364C103.615 43.6364 101.018 43.1564 98.9892 41.1491C97.9201 40.1018 96.5674 38.0727 96.5674 34.9527C96.5674 32.2036 97.5928 30.0218 99.0328 28.6254C100.386 27.3164 102.546 26.2473 105.775 26.2473C107.695 26.2473 110.16 26.6618 112.102 28.4727C114.436 30.6764 114.72 33.5345 114.72 35.3673V35.9782V35.9782ZM109.309 32.6182C109.135 31.9607 108.806 31.3546 108.349 30.8509C107.586 30.0873 106.516 29.9782 105.927 29.9782C104.924 29.9782 104.16 30.24 103.549 30.8509C103.083 31.3384 102.771 31.9535 102.655 32.6182H109.309Z" fill="#1B1B1B"/>
<path d="M135.556 35.9782H123.295C123.295 36.8509 123.622 38.0291 124.32 38.7273C124.691 39.0982 125.433 39.5345 126.742 39.5345C126.895 39.5345 127.92 39.5127 128.662 39.0982C129.097 38.8356 129.452 38.4582 129.687 38.0073H135.316C134.972 39.2932 134.286 40.4618 133.331 41.3891C132.131 42.5455 130.211 43.6364 126.655 43.6364C124.473 43.6364 121.876 43.1564 119.847 41.1491C118.778 40.1018 117.426 38.0727 117.426 34.9527C117.426 32.2036 118.451 30.0218 119.891 28.6254C121.244 27.3164 123.404 26.2473 126.633 26.2473C128.553 26.2473 131.018 26.6618 132.96 28.4727C135.295 30.6764 135.578 33.5345 135.578 35.3673V35.9782H135.556ZM130.146 32.6182C129.972 31.9607 129.642 31.3546 129.186 30.8509C128.422 30.0873 127.353 29.9782 126.764 29.9782C125.76 29.9782 124.996 30.24 124.386 30.8509C123.919 31.3384 123.608 31.9535 123.491 32.6182H130.146Z" fill="#1B1B1B"/>
<path d="M147.513 38.2909H154.407V43.0909H137.651L145.418 31.5055H138.785V26.7055H155.215L147.513 38.2909Z" fill="#1B1B1B"/>
<path d="M175.418 35.9782H163.157C163.157 36.8509 163.484 38.0291 164.182 38.7273C164.553 39.0982 165.295 39.5345 166.604 39.5345C166.757 39.5345 167.782 39.5127 168.524 39.0982C168.959 38.8356 169.314 38.4582 169.549 38.0073H175.178C174.834 39.2932 174.148 40.4618 173.193 41.3891C171.971 42.5673 170.073 43.6364 166.495 43.6364C164.313 43.6364 161.717 43.1564 159.687 41.1491C158.618 40.1018 157.266 38.0727 157.266 34.9527C157.266 32.2036 158.291 30.0218 159.731 28.6254C161.084 27.3164 163.244 26.2473 166.473 26.2473C168.393 26.2473 170.858 26.6618 172.8 28.4727C175.135 30.6764 175.418 33.5345 175.418 35.3673V35.9782V35.9782ZM170.007 32.6182C169.834 31.9607 169.504 31.3546 169.047 30.8509C168.284 30.0873 167.215 29.9782 166.626 29.9782C165.622 29.9782 164.858 30.24 164.247 30.8509C163.781 31.3384 163.47 31.9535 163.353 32.6182H170.007Z" fill="#1B1B1B"/>
<path d="M42.371 10.9091H17.6292C13.9178 10.9091 10.9092 13.9177 10.9092 17.6291V42.3709C10.9092 46.0823 13.9178 49.0909 17.6292 49.0909H42.371C46.0824 49.0909 49.091 46.0823 49.091 42.3709V17.6291C49.091 13.9177 46.0824 10.9091 42.371 10.9091Z" fill="white"/>
<path d="M46.1499 34.1105C45.4665 34.1123 44.7933 33.9451 44.1901 33.6238C43.5869 33.3025 43.0726 32.837 42.6928 32.2688C42.313 31.7007 42.0795 31.0474 42.0132 30.3672C41.947 29.687 42.0499 29.001 42.3128 28.3702C42.5757 27.7394 42.9905 27.1834 43.5203 26.7516C44.0501 26.3199 44.6784 26.0258 45.3493 25.8956C46.0202 25.7654 46.7128 25.803 47.3657 26.0052C48.0185 26.2074 48.6112 26.5679 49.091 27.0545V17.6291C49.091 15.8468 48.383 14.1376 47.1228 12.8773C45.8625 11.6171 44.1533 10.9091 42.371 10.9091H17.6292C15.8469 10.9091 14.1377 11.6171 12.8774 12.8773C11.6172 14.1376 10.9092 15.8468 10.9092 17.6291V24.1135C11.2946 23.7413 11.781 23.4909 12.3078 23.3933C12.8346 23.2957 13.3785 23.3553 13.8716 23.5647C14.3648 23.774 14.7854 24.1239 15.0811 24.5707C15.3768 25.0174 15.5344 25.5413 15.5344 26.0771C15.5344 26.6128 15.3768 27.1367 15.0811 27.5835C14.7854 28.0303 14.3648 28.3801 13.8716 28.5895C13.3785 28.7989 12.8346 28.8585 12.3078 28.7609C11.781 28.6633 11.2946 28.4128 10.9092 28.0407V42.3709C10.9092 44.1532 11.6172 45.8624 12.8774 47.1227C14.1377 48.3829 15.8469 49.0909 17.6292 49.0909H19.5208C19.1057 48.4052 18.8804 47.6216 18.8679 46.8201C18.8554 46.0187 19.0562 45.2284 19.4498 44.5301C19.8433 43.8319 20.4154 43.2508 21.1074 42.8464C21.7995 42.4421 22.5866 42.229 23.3881 42.229C24.1896 42.229 24.9767 42.4421 25.6688 42.8464C26.3608 43.2508 26.9329 43.8319 27.3264 44.5301C27.72 45.2284 27.9208 46.0187 27.9083 46.8201C27.8958 47.6216 27.6705 48.4052 27.2554 49.0909H42.371C44.1533 49.0909 45.8625 48.3829 47.1228 47.1227C48.383 45.8624 49.091 44.1532 49.091 42.3709V32.8844C48.7065 33.2734 48.2484 33.5822 47.7435 33.7927C47.2386 34.0032 46.6969 34.1112 46.1499 34.1105ZM28.5623 22.1324C28.005 22.1328 27.4601 21.9679 26.9966 21.6586C26.533 21.3492 26.1717 20.9093 25.9582 20.3946C25.7447 19.8798 25.6888 19.3132 25.7974 18.7667C25.906 18.2201 26.1743 17.718 26.5684 17.3239C26.9624 16.9298 27.4645 16.6615 28.0111 16.5529C28.5577 16.4443 29.1242 16.5003 29.639 16.7137C30.1538 16.9272 30.5937 17.2886 30.903 17.7521C31.2124 18.2156 31.3773 18.7605 31.3768 19.3178C31.3762 20.0641 31.0795 20.7797 30.5518 21.3074C30.0241 21.8351 29.3086 22.1318 28.5623 22.1324V22.1324ZM33.2859 38.0029C32.8544 38.0029 32.4326 37.8749 32.0738 37.6352C31.715 37.3955 31.4353 37.0547 31.2702 36.656C31.105 36.2574 31.0618 35.8187 31.146 35.3954C31.2302 34.9722 31.438 34.5834 31.7431 34.2783C32.0483 33.9732 32.437 33.7654 32.8603 33.6812C33.2835 33.597 33.7222 33.6402 34.1209 33.8054C34.5195 33.9705 34.8603 34.2501 35.1 34.6089C35.3398 34.9677 35.4677 35.3896 35.4677 35.8211C35.4677 36.1076 35.4113 36.3913 35.3017 36.656C35.192 36.9207 35.0313 37.1613 34.8287 37.3639C34.6261 37.5665 34.3856 37.7272 34.1209 37.8368C33.8562 37.9465 33.5724 38.0029 33.2859 38.0029V38.0029ZM42.5041 46.392C42.253 46.392 42.0074 46.3175 41.7986 46.178C41.5898 46.0385 41.427 45.8401 41.3309 45.6081C41.2348 45.3761 41.2097 45.1208 41.2587 44.8744C41.3077 44.6281 41.4286 44.4019 41.6062 44.2243C41.7838 44.0467 42.01 43.9258 42.2564 43.8768C42.5027 43.8278 42.758 43.8529 42.99 43.949C43.2221 44.0451 43.4204 44.2079 43.5599 44.4167C43.6994 44.6255 43.7739 44.871 43.7739 45.1222C43.7733 45.4588 43.6394 45.7814 43.4014 46.0194C43.1633 46.2574 42.8407 46.3914 42.5041 46.392V46.392Z" fill="#FFE200"/>
</g>
<defs>
<clipPath id="clip0_511_158">
<rect width="186.327" height="60" fill="white"/>
</clipPath>
</defs>
</svg>
