<svg xmlns="http://www.w3.org/2000/svg" width="157.44" height="20" viewBox="0 0 157.44 20">
  <path id="パス_2350" data-name="パス 2350" d="M6.253-14.3H.92V4.9H6.253V-.273L7.613-2.46,11.027,4.9H16.76L11.507-5.953,16.493-14.3h-5.76L6.253-6.567ZM20.493,4.9h5.493l.853-2.64h3.92l.907,2.64H37.16L29.4-14.567H28.227Zm7.173-6.027c.48-1.253.88-2.56,1.173-3.547.293.987.72,2.293,1.173,3.547ZM47,5.3c4.453,0,6.8-2,6.8-5.813,0-3.52-2.053-4.747-4.64-6.133-1.413-.747-2.427-1.333-2.427-2.08,0-.853.64-1.307,1.867-1.307a7.938,7.938,0,0,1,4.053,1.227V-13.66A8.843,8.843,0,0,0,48.12-14.7c-4.32,0-6.587,2.053-6.587,5.973,0,3.653,2,4.827,4.453,6.16C47.507-1.74,48.6-1.313,48.6-.46c0,.72-.747,1.093-2.16,1.093A8.017,8.017,0,0,1,41.96-.94V3.993A9.644,9.644,0,0,0,47,5.3Zm11.68-10c0,6.24,3.093,10,8.267,10s8.267-3.76,8.267-10-3.093-10-8.267-10S58.68-10.94,58.68-4.7Zm5.333,0c0-3.147,1.093-5.04,2.933-5.04,1.813,0,2.907,1.893,2.907,5.04S68.76.34,66.947.34C65.107.34,64.013-1.553,64.013-4.7Zm21.973-9.6H80.653V4.9h5.333V-.273l1.36-2.187L90.76,4.9h5.733L91.24-5.953,96.227-14.3h-5.76l-4.48,7.733Zm30.133,0h-5.333V-2.647c0,1.973-.72,2.987-2.107,2.987s-2.107-1.013-2.107-2.987V-14.3h-5.307V-2.06c0,4.827,2.56,7.36,7.413,7.36,4.88,0,7.44-2.533,7.44-7.36Zm11.333,0H122.12V4.9h5.333V-.273l1.36-2.187,3.413,7.36h5.733L132.707-5.953l4.987-8.347h-5.76l-4.48,7.733Zm14.24,19.2h5.493l.853-2.64h3.92l.907,2.64h5.493L150.6-14.567h-1.173Zm7.173-6.027c.48-1.253.88-2.56,1.173-3.547.293.987.72,2.293,1.173,3.547Z" transform="translate(-0.92 14.7)" fill="#fff"/>
</svg>
