<svg width="32" height="32" viewBox="0 0 32 32" fill="none" xmlns="http://www.w3.org/2000/svg">
<path fill-rule="evenodd" clip-rule="evenodd" d="M21.0988 0.434192C20.6844 -0.0896276 19.9832 -0.0742026 19.5607 0.139261C19.3453 0.248085 19.1357 0.43415 19.0422 0.696642C18.9411 0.980491 19.004 1.27692 19.195 1.52014L19.1972 1.5229L19.1994 1.52565C20.9024 3.64798 22.6171 5.76289 24.3279 7.87294C25.3265 9.1046 26.3238 10.3346 27.3166 11.5635C27.7303 12.0898 28.4335 12.0749 28.8573 11.8598C29.073 11.7503 29.2823 11.5634 29.3751 11.3004C29.4755 11.016 29.4117 10.719 29.2189 10.4756L29.2169 10.4731L29.2149 10.4707C28.2059 9.22175 27.1945 7.9739 26.1825 6.72534C24.4867 4.63309 22.7893 2.53884 21.0988 0.434192Z" fill="white"/>
<path fill-rule="evenodd" clip-rule="evenodd" d="M5.69634 10.1309C6.81034 10.6588 7.92663 11.1869 9.04408 11.7156C12.1631 13.1911 15.2911 14.6709 18.4039 16.1628C18.6709 16.2902 18.8675 16.5018 18.9508 16.7513C19.0344 17.002 18.9968 17.2705 18.8463 17.4978C18.6957 17.725 18.4446 17.8924 18.1481 17.9631C17.852 18.0337 17.5348 18.0021 17.2662 17.8753C15.1393 16.8737 13.0192 15.8722 10.8996 14.871L10.8987 14.8706C8.77855 13.8691 6.65881 12.8678 4.53251 11.8666L4.52739 11.8641L4.52231 11.8617C4.25124 11.7295 4.05341 11.5116 3.97231 11.2561C3.89122 11.0005 3.93352 10.7282 4.0899 10.4991C4.24629 10.2699 4.50395 10.1026 4.8062 10.0341C5.10649 9.96596 5.42637 10.0008 5.69634 10.1309ZM17.6421 17.3058L17.6442 17.3026L18.0212 16.7335L17.6386 17.3041C17.6398 17.3046 17.641 17.3052 17.6421 17.3058Z" fill="white"/>
<path fill-rule="evenodd" clip-rule="evenodd" d="M1.8565 24.0212C6.49385 24.7488 11.1312 25.4695 15.7685 26.1832C16.1001 26.2271 16.3916 26.3799 16.5534 26.6265C16.7038 26.8559 16.6992 27.0999 16.6337 27.29C16.507 27.6581 16.0364 28.0741 15.3173 27.9887L15.2999 27.9867L15.2827 27.984C10.64 27.2555 5.99722 26.5339 1.35446 25.8194L1.34789 25.8184L1.34133 25.8173C1.00699 25.7609 0.727362 25.5975 0.574547 25.355C0.432897 25.1302 0.432332 24.8902 0.499317 24.6956C0.630817 24.3137 1.12815 23.9011 1.8565 24.0212Z" fill="white"/>
<path fill-rule="evenodd" clip-rule="evenodd" d="M31.7012 5.74318C31.8299 6.15975 31.6494 6.76653 30.9157 6.97118L30.9064 6.97376L30.8971 6.97616C28.3579 7.62636 25.9443 8.57984 23.7307 9.80711L23.7285 9.80835C19.576 12.0937 16.215 15.2528 13.9828 18.9686C11.7507 22.6844 10.726 26.8261 11.0116 30.9779L11.0118 30.9808C11.0309 31.2827 10.8936 31.5629 10.6299 31.7558C10.387 31.9336 10.09 32 9.83262 32C9.33467 32 8.65501 31.7148 8.61243 31.0516C8.23828 25.3238 10.1599 19.6553 14.0726 14.9448C17.9851 10.2347 23.6646 6.75195 30.2108 5.04873C30.5448 4.96092 30.901 4.98994 31.1986 5.15084C31.4767 5.30118 31.6349 5.52891 31.7012 5.74318ZM30.6846 6.30947C30.6834 6.30976 30.6823 6.31007 30.6812 6.31035L30.6846 6.30947Z" fill="white"/>
</svg>
