<svg width="116" height="150" viewBox="0 0 116 150" fill="none" xmlns="http://www.w3.org/2000/svg">
<g clip-path="url(#clip0_238_666)">
<path d="M1.96994 150H114.086C114.054 149.405 113.597 148.831 113.438 148.278C113.211 146.475 112.977 144.668 112.729 142.868C112.499 141.255 112.442 139.254 111.234 138.148C111.376 137.559 111.281 136.938 110.968 136.419C111.347 135.834 111.096 134.821 110.207 134.821H109.955C110.037 134.396 109.983 133.956 109.799 133.564C109.615 133.173 109.311 132.85 108.931 132.642C107.872 130.535 106.688 128.493 105.388 126.527C105.219 126.266 104.992 126.047 104.725 125.889C104.454 125.946 104.171 125.927 103.91 125.832C103.649 125.738 103.42 125.572 103.248 125.354C101.046 122.785 98.5201 120.514 95.7328 118.597C95.3685 118.507 95.0429 118.302 94.8045 118.012C94.4501 117.8 94.0958 117.591 93.7415 117.396C91.892 116.393 89.9326 115.624 88.0724 114.65C86.9882 114.079 85.9217 113.484 84.8198 112.977H84.795C84.5485 112.995 84.3014 112.953 84.0736 112.857C83.8459 112.761 83.6439 112.613 83.484 112.425C83.2112 112.326 82.9384 112.237 82.6585 112.152C82.6089 112.17 82.5522 112.184 82.5026 112.205L81.7939 111.851C81.5542 111.653 81.2714 111.515 80.9684 111.447L79.6574 110.802C79.2427 110.599 78.7692 110.55 78.3216 110.664C77.6502 110.332 77.0258 109.913 76.465 109.417C76.2322 109.198 75.9471 109.042 75.6369 108.964C75.3268 108.887 75.002 108.89 74.6934 108.974C74.44 108.742 74.1343 108.576 73.8025 108.488C73.4706 108.401 73.1226 108.395 72.788 108.471C72.4534 108.547 72.1423 108.704 71.8812 108.926C71.62 109.149 71.4167 109.431 71.2885 109.75C69.2122 115.008 63.3766 117.031 58.3134 116.946C53.9624 116.875 44.7962 115.773 44.5907 109.714C44.5269 107.872 42.5675 107.213 41.2885 108.297C40.3353 109.108 39.0492 109.388 37.8339 109.647C37.36 109.972 36.8484 110.239 36.3103 110.441C35.8497 110.618 35.3997 110.795 34.9497 110.997C33.4935 112.315 31.6333 112.903 29.7413 113.445C27.7819 114.363 25.7092 115.1 23.81 116.11C22.0809 117.031 20.9755 118.565 19.0693 119.256C18.9082 119.314 18.7403 119.351 18.5697 119.366C18.265 119.614 17.9496 119.858 17.6201 120.096C17.2856 120.324 16.9296 120.518 16.5572 120.677C15.9442 121.704 14.8848 122.356 13.8714 123.033C13.627 123.263 13.3754 123.486 13.1097 123.699L12.9644 123.812C10.7322 126.449 8.76573 129.354 6.72841 132.15C6.34929 132.911 5.96663 133.673 5.55916 134.417C5.54853 134.55 5.54853 134.684 5.55916 134.818C5.51199 134.814 5.46461 134.814 5.41744 134.818H5.3324C5.08084 135.26 4.81156 135.696 4.52456 136.118C4.55519 136.24 4.61021 136.355 4.68632 136.455C4.76243 136.556 4.85805 136.64 4.96745 136.703C4.96745 136.759 4.92139 136.816 4.90722 136.876C4.43952 138.648 4.02143 140.419 3.63522 142.223C2.2962 144.494 1.69226 147.124 1.90616 149.752C1.92141 149.836 1.94272 149.919 1.96994 150Z" fill="white"/>
<path d="M70.4063 103.68C69.5559 101.257 69.9386 99.0245 70.4771 96.5691C70.8102 95.0633 69.0351 93.1535 67.5363 94.3086C66.2891 95.2688 64.8222 95.3715 63.3377 95.7436C61.7609 96.1262 60.248 97.2034 58.6075 97.2034C56.8891 97.2034 55.0644 96.516 53.3849 96.1404L50.6708 95.5168C50.2244 95.4141 49.126 95.3538 48.8426 94.9428C47.4005 92.8169 43.9282 94.8259 45.3844 96.9624C45.4809 97.1058 45.5863 97.2431 45.6998 97.3734C45.5762 97.6615 45.5239 97.975 45.5474 98.2876C45.6041 99.2052 45.6998 100.116 45.8273 101.016C45.6431 101.852 45.4576 102.686 45.271 103.517C44.9451 104.963 44.0805 106.447 44.3675 107.957C44.612 109.243 45.558 110.728 46.249 111.837C47.0498 113.125 48.238 114.128 49.6433 114.7C52.5487 115.968 56.021 116.932 59.2099 116.662C62.5971 116.375 65.7222 114.537 68.7764 113.18C69.0779 113.039 69.3312 112.813 69.5046 112.53C69.678 112.246 69.7636 111.917 69.7508 111.585C70.2531 111.101 70.6626 110.53 70.959 109.899C71.9263 107.773 71.122 105.728 70.4063 103.68Z" fill="#FFF3E8"/>
<path d="M2.8771 149.104L3.49361 144.923C3.62471 144.019 3.75226 143.151 3.98611 142.173C4.33375 140.741 4.76559 139.331 5.27937 137.95C6.01053 135.793 6.98154 133.725 8.17414 131.785C9.78293 129.308 11.6682 127.022 13.7936 124.971C17.2815 121.67 21.2817 118.956 25.6384 116.935C26.4852 116.528 27.3391 116.145 28.2001 115.773L28.7918 115.522L28.8591 115.493L29.1745 115.359L30.2374 114.919C31.4031 114.437 32.5547 113.941 33.6779 113.371C35.3998 112.496 37.1076 111.599 38.8084 110.685C40.2504 109.913 41.7173 109.162 43.1062 108.301C43.3064 108.179 43.4971 108.043 43.6767 107.893C43.8757 107.694 43.9875 107.424 43.9875 107.142C43.9875 106.86 43.8757 106.59 43.6767 106.391C43.4743 106.198 43.2053 106.09 42.9255 106.09C42.6457 106.09 42.3767 106.198 42.1744 106.391C42.2665 106.313 42.4224 106.221 42.2169 106.348L41.9618 106.508C41.6996 106.667 41.4338 106.82 41.1681 106.972C40.3957 107.411 39.6162 107.836 38.8367 108.258C37.0509 109.222 35.2581 110.167 33.4582 111.093C32.8629 111.401 32.2677 111.709 31.6653 112C31.4492 112.102 31.2331 112.202 31.0134 112.297L30.5953 112.482L30.4004 112.563L30.4855 112.528L30.3402 112.588C28.7422 113.257 27.1513 113.909 25.5605 114.629C21.2258 116.568 17.2002 119.135 13.6129 122.247C11.3711 124.233 9.35151 126.457 7.58951 128.879C6.84969 129.862 6.17958 130.896 5.58408 131.973C4.99591 133.078 4.48924 134.219 4.00737 135.37C2.91253 137.989 1.95942 140.742 1.52715 143.559C1.49527 143.775 1.48109 143.991 1.43858 144.204C1.49172 143.931 1.46692 144.012 1.43858 144.076L1.39606 144.356L1.24016 145.419L0.853953 148.012L0.783088 148.512C0.716439 148.783 0.755998 149.07 0.893663 149.313C1.03133 149.556 1.25669 149.737 1.52361 149.819C2.0232 149.958 2.746 149.649 2.83104 149.079L2.8771 149.104Z" fill="#1B1B1B"/>
<path d="M115.167 148.537L114.551 144.349C114.551 144.264 114.526 144.182 114.512 144.101C114.497 144.02 114.512 143.981 114.512 144.14C114.547 144.399 114.487 143.949 114.487 143.956C114.473 143.828 114.455 143.701 114.434 143.573C114.334 142.896 114.196 142.223 114.037 141.557C113.686 140.127 113.253 138.718 112.74 137.337C111.929 135.123 111.018 132.844 109.735 130.853C108.059 128.245 106.096 125.834 103.882 123.664C100.318 120.235 96.2236 117.403 91.7574 115.277C90.0779 114.459 88.3595 113.729 86.6339 113.017L85.6454 112.606H85.6135L85.3903 112.514L84.9722 112.329C84.4903 112.12 84.0226 111.887 83.5549 111.649C81.8613 110.795 80.1818 109.909 78.5095 109.017C77.0036 108.212 75.4801 107.426 74.0238 106.536L73.7687 106.377C73.6163 106.281 73.5809 106.228 73.8112 106.419C73.608 106.228 73.3393 106.121 73.0601 106.121C72.7808 106.121 72.5121 106.228 72.3089 106.419C72.1099 106.619 71.998 106.889 71.998 107.171C71.998 107.452 72.1099 107.722 72.3089 107.922C72.7153 108.238 73.1494 108.516 73.6057 108.754C74.3533 109.183 75.1116 109.598 75.8733 110.012C77.6615 110.981 79.4614 111.933 81.2731 112.868C82.368 113.435 83.4628 113.988 84.5966 114.466C85.3336 114.778 86.0741 115.079 86.8111 115.387L87.091 115.504L87.2327 115.564C87.2044 115.564 87.0166 115.472 87.1938 115.564L87.7855 115.816C88.2036 115.997 88.6181 116.17 89.0291 116.365C93.2526 118.236 97.2705 120.617 100.693 123.597C102.844 125.463 104.783 127.56 106.476 129.85C107.242 130.863 107.934 131.928 108.548 133.039C108.799 133.512 109.035 133.992 109.257 134.481C109.505 135.009 109.778 135.619 109.966 136.086C111.053 138.705 112.003 141.461 112.4 144.278C112.577 145.547 112.825 147.208 113.034 148.622L113.109 149.122C113.194 149.689 113.909 150 114.416 149.862C114.684 149.781 114.91 149.6 115.048 149.357C115.186 149.113 115.225 148.826 115.156 148.555L115.167 148.537Z" fill="#1B1B1B"/>
<path d="M44.3852 93.8197C44.5576 95.7539 44.6026 97.6974 44.5199 99.6376C44.449 101.31 44.4065 102.993 43.9104 104.566C43.8256 104.843 43.7066 105.109 43.5561 105.356C43.4355 105.564 43.2837 105.751 43.1061 105.913C42.7518 106.2 42.4613 106.458 42.4825 106.947C42.5045 107.24 42.5459 107.531 42.6066 107.819C43.101 110.314 44.3678 112.591 46.2277 114.328C49.8311 117.676 55.0856 118.519 59.8263 118.158C64.1738 117.828 68.415 116.251 71.0972 112.673C71.8824 111.613 72.4914 110.433 72.9006 109.179C73.159 108.476 73.3188 107.74 73.3754 106.993C73.3737 106.961 73.3737 106.929 73.3754 106.898L72.8475 107.815C73.0077 107.722 73.1407 107.588 73.233 107.427C73.3254 107.266 73.374 107.083 73.374 106.898C73.374 106.712 73.3254 106.53 73.233 106.369C73.1407 106.208 73.0077 106.074 72.8475 105.98C72.3089 105.626 72.0148 104.871 71.8306 104.123C71.6104 103.133 71.4764 102.125 71.4302 101.112C71.2483 98.6836 71.2649 96.2449 71.4798 93.8197C71.4798 93.5378 71.3678 93.2674 71.1685 93.0681C70.9691 92.8687 70.6988 92.7567 70.4169 92.7567C70.1367 92.7622 69.8694 92.8759 69.6713 93.0741C69.4731 93.2723 69.3594 93.5395 69.3539 93.8197C69.113 96.4763 69.113 99.1493 69.3539 101.806C69.5523 103.971 69.8004 106.487 71.7633 107.829V105.994C71.5875 106.118 71.4455 106.283 71.3502 106.476C71.2549 106.668 71.2093 106.881 71.2176 107.096C71.2176 107.252 71.2743 106.742 71.2389 106.947C71.2389 107 71.2389 107.057 71.2105 107.11C71.1893 107.241 71.1645 107.372 71.1361 107.5C71.0607 107.852 70.9673 108.199 70.8562 108.542C70.7889 108.751 70.7145 108.96 70.6366 109.165C70.6082 109.236 70.4771 109.544 70.5551 109.371C70.633 109.197 70.5551 109.392 70.5232 109.438C70.4913 109.484 70.4629 109.569 70.4346 109.636C70.1973 110.139 69.9238 110.623 69.6161 111.086C69.5417 111.202 69.4602 111.316 69.3787 111.44L69.2405 111.624C69.152 111.752 69.3823 111.458 69.2016 111.677C69.0209 111.897 68.7799 112.177 68.5567 112.411C68.3335 112.645 68.0642 112.9 67.802 113.119C67.6745 113.229 67.5434 113.335 67.4123 113.442L67.469 113.396L67.3414 113.491L67.1111 113.658C66.4428 114.125 65.7308 114.526 64.9852 114.855C64.7584 114.958 65.0171 114.855 64.847 114.916L64.5317 115.04C64.312 115.121 64.0923 115.199 63.8691 115.27C63.3979 115.422 62.916 115.553 62.4306 115.663C61.3828 115.902 60.3154 116.044 59.2417 116.088C56.9741 116.241 54.697 116.009 52.5062 115.405C52.0526 115.274 51.6027 115.121 51.1668 114.951C51.1172 114.93 50.8125 114.813 51.0216 114.894L50.7629 114.781C50.5539 114.685 50.3484 114.586 50.1464 114.48C49.7921 114.296 49.4378 114.09 49.0835 113.87C48.9346 113.775 48.7894 113.672 48.6441 113.569C48.5662 113.516 48.4918 113.459 48.4173 113.403C48.3429 113.346 48.4669 113.442 48.474 113.449L48.3181 113.325C47.7861 112.891 47.294 112.411 46.8477 111.89C46.7521 111.776 46.6599 111.66 46.5678 111.536C46.6883 111.681 46.6316 111.624 46.5501 111.511L46.3977 111.298C46.2348 111.068 46.0824 110.827 45.9371 110.589C45.7919 110.352 45.6643 110.111 45.5403 109.881C45.4836 109.764 45.4269 109.647 45.3738 109.527C45.349 109.47 45.3242 109.41 45.2958 109.353C45.2037 109.151 45.3702 109.541 45.2958 109.392C45.1399 108.988 44.9876 108.581 44.8706 108.162C44.7816 107.855 44.7082 107.542 44.651 107.227C44.6297 107.121 44.6155 107.014 44.5978 106.905C44.6687 107.298 44.5553 107 44.5978 106.972C44.5992 106.948 44.5992 106.925 44.5978 106.901L44.0699 107.819C46.0328 106.49 46.2808 103.974 46.4828 101.795C46.7219 99.1386 46.7219 96.4658 46.4828 93.809C46.4756 93.5294 46.3613 93.2632 46.1635 93.0654C45.9657 92.8676 45.6995 92.7533 45.4198 92.7461C45.1379 92.7461 44.8675 92.8581 44.6682 93.0574C44.4689 93.2568 44.3569 93.5271 44.3569 93.809L44.3852 93.8197Z" fill="#1B1B1B"/>
<path d="M93.2528 59.6598C92.5761 57.9733 91.0702 57.8422 89.4687 58.1646C88.9406 58.2733 88.4243 58.4335 87.9274 58.6429C87.6864 58.5462 87.4318 58.4876 87.1727 58.4693C86.7242 58.4381 86.2739 58.444 85.8263 58.487C85.4933 55.9395 85.5854 53.353 85.3728 50.7948C85.0942 48.046 84.6696 45.3139 84.1008 42.6101C83.6544 40.3212 83.1335 38.0748 82.1344 35.956C81.0714 33.7026 79.3211 31.9912 77.4822 30.3614C77.1647 30.0714 76.7738 29.874 76.3519 29.7909C76.1712 29.6705 75.9976 29.5464 75.8098 29.4366C73.4642 27.9839 71.4092 28.4197 68.8085 28.7599C68.3539 28.8148 67.919 28.9776 67.5401 29.2346C67.4493 29.0732 67.3292 28.9302 67.1857 28.813C65.8054 27.7239 64.1492 27.0406 62.4025 26.8395C60.4785 26.5702 58.8132 25.4222 56.8397 25.1104C54.8892 24.8125 52.9111 24.7388 50.9438 24.8907C49.0093 25.0537 47.142 26.2761 45.2145 26.0529C44.8217 25.9789 44.4154 26.0483 44.0695 26.2486C43.7236 26.4489 43.461 26.7667 43.3296 27.1442C41.0651 28.2647 39.0594 29.8456 37.4408 31.7857C35.6055 33.9116 33.3839 36.3918 32.5052 39.0953C32.0446 40.5125 31.8143 41.9936 31.3572 43.425C30.8612 44.9734 31.0277 46.3552 30.8683 47.9249C30.7017 49.5937 30.1915 51.2271 30.0285 52.9172C29.8549 54.71 29.6742 56.5029 29.5183 58.2957C29.5183 58.3524 29.5183 58.4055 29.5183 58.4587C27.8743 58.154 26.4003 57.3213 24.5579 57.9733C22.2194 58.8059 21.6596 61.4243 21.5922 63.6423C21.4789 67.3024 23.3638 70.6224 26.4712 72.0786C26.708 72.2895 26.9987 72.4305 27.3109 72.4861L27.9416 72.5995C28.4168 72.7201 28.9017 72.7983 29.3908 72.8333C29.8363 72.8771 30.2819 72.7505 30.638 72.479C31.0773 75.7139 31.7611 78.9736 33.1182 81.9534C33.7596 83.3011 34.6151 84.5359 35.6515 85.61C35.763 86.0107 35.9957 86.3671 36.3177 86.6304C37.7349 87.8705 39.2089 89.0469 40.7076 90.1736C40.8661 90.2956 41.0431 90.3913 41.232 90.457C41.6074 90.7314 42.0084 90.9688 42.4296 91.1657C44.6972 92.2286 47.0357 93.2101 49.3778 94.0533C49.5345 94.1995 49.714 94.3192 49.9092 94.4077C51.9501 95.3643 54.0122 95.5344 56.1062 95.4954C56.5793 95.5025 57.0523 95.4847 57.5235 95.4423C59.1738 95.3167 60.8297 95.28 62.484 95.3324C62.7719 95.3632 63.0631 95.3246 63.3331 95.2198C63.6031 95.115 63.844 94.9471 64.0359 94.7301C64.1244 94.7356 64.2131 94.7356 64.3016 94.7301C64.6271 94.7439 64.9508 94.6751 65.2426 94.5302C65.5344 94.3852 65.7848 94.1688 65.9704 93.901L69.3364 93.2243C69.6045 93.1826 69.86 93.0818 70.0842 92.9293C70.3085 92.7767 70.4961 92.5761 70.6332 92.342C72.256 91.5802 73.6662 90.3968 75.289 89.6031C77.5743 88.487 79.027 87.0237 80.3415 84.8553C82.7013 80.9578 84.976 76.8194 85.139 72.2026C87.2436 73.6872 91.0561 71.4302 92.2678 69.6551C93.9827 67.1182 94.3654 62.4731 93.2528 59.6598Z" fill="#FFF3E8"/>
<path d="M56.7583 70.0024V75.3172C56.7583 75.5991 56.8703 75.8694 57.0696 76.0688C57.269 76.2681 57.5393 76.3801 57.8213 76.3801C58.1032 76.3801 58.3735 76.2681 58.5729 76.0688C58.7722 75.8694 58.8842 75.5991 58.8842 75.3172V70.0024C58.8842 69.7205 58.7722 69.4501 58.5729 69.2508C58.3735 69.0514 58.1032 68.9395 57.8213 68.9395C57.5393 68.9395 57.269 69.0514 57.0696 69.2508C56.8703 69.4501 56.7583 69.7205 56.7583 70.0024Z" fill="#1B1B1B"/>
<path d="M51.1743 82.127C51.1743 82.127 52.1239 88.1504 58.0055 88.1504C63.8872 88.1504 64.4683 82.127 64.4683 82.127" fill="#EA5252"/>
<path d="M50.6641 82.269C51.0184 84.565 52.5632 86.8751 54.6502 87.9381C55.5984 88.3996 56.6318 88.6599 57.6855 88.7026C58.7392 88.7453 59.7903 88.5694 60.7727 88.1861C62.2698 87.5522 63.4799 86.3875 64.1707 84.9158C64.606 84.0449 64.8866 83.105 64.9998 82.1379C65.0635 81.4577 64.0006 81.4647 63.9368 82.1379C63.9191 82.2938 63.9581 82.0139 63.9368 82.1698C63.9155 82.3257 63.8872 82.4568 63.8553 82.5986C63.7561 83.0615 63.6186 83.5154 63.4443 83.9556C62.9734 85.2023 62.0925 86.2518 60.9464 86.9318C60.1093 87.3637 59.1882 87.6081 58.2471 87.6478C57.306 87.6876 56.3675 87.5219 55.497 87.1621C54.184 86.573 53.1176 85.5442 52.4817 84.2532C52.0972 83.5489 51.8304 82.7865 51.6916 81.9962C51.5853 81.323 50.5613 81.61 50.6676 82.2797L50.6641 82.269Z" fill="#1B1B1B"/>
<path d="M51.1743 82.6586H64.4683C64.6092 82.6586 64.7444 82.6026 64.8441 82.503C64.9437 82.4033 64.9997 82.2681 64.9997 82.1272C64.9997 81.9862 64.9437 81.851 64.8441 81.7514C64.7444 81.6517 64.6092 81.5957 64.4683 81.5957H51.1743C51.0333 81.5957 50.8982 81.6517 50.7985 81.7514C50.6988 81.851 50.6428 81.9862 50.6428 82.1272C50.6428 82.2681 50.6988 82.4033 50.7985 82.503C50.8982 82.6026 51.0333 82.6586 51.1743 82.6586Z" fill="#1B1B1B"/>
<path d="M84.3951 71.579C84.2506 76.4445 82.6073 81.1467 79.6897 85.043C78.2702 86.9292 76.5286 88.5498 74.5451 89.8298C72.2532 91.2514 69.7819 92.3608 67.1965 93.1285C64.0138 94.1188 60.7772 94.9268 57.5024 95.5485C57.3677 95.5854 57.2415 95.6485 57.1312 95.7342C57.0208 95.8199 56.9284 95.9265 56.8593 96.048C56.7902 96.1694 56.7457 96.3033 56.7284 96.4419C56.7111 96.5805 56.7213 96.7212 56.7584 96.8559C56.8385 97.1245 57.0191 97.3518 57.2627 97.4904C57.5063 97.629 57.794 97.6683 58.0658 97.6C61.0903 97.0185 64.0834 96.2841 67.0335 95.3997C69.805 94.6171 72.4703 93.4986 74.9702 92.0691C79.5126 89.355 82.8573 85.1032 84.7848 80.2066C85.859 77.453 86.4464 74.5337 86.521 71.579C86.5599 70.2113 84.434 70.2113 84.3951 71.579Z" fill="#1B1B1B"/>
<path d="M29.1216 71.579C29.2595 76.8187 31.0035 81.8897 34.1175 86.106C35.6738 88.2089 37.5793 90.0293 39.7511 91.488C42.1848 93.0347 44.818 94.2423 47.578 95.0773C50.8544 96.1138 54.1897 96.9539 57.5662 97.5929C57.8379 97.6594 58.1248 97.6194 58.3679 97.481C58.611 97.3426 58.792 97.1164 58.8736 96.8489C58.9107 96.7142 58.9209 96.5735 58.9035 96.4348C58.8862 96.2962 58.8417 96.1623 58.7726 96.0409C58.7035 95.9195 58.6111 95.8128 58.5008 95.7271C58.3905 95.6414 58.2643 95.5783 58.1295 95.5414C55.2135 94.971 52.3187 94.2836 49.47 93.4403C46.8779 92.7212 44.3802 91.6972 42.0294 90.3897C37.8717 87.9311 34.6629 84.1444 32.9199 79.6397C31.8995 77.07 31.3336 74.3425 31.2475 71.579C31.2085 70.2149 29.0826 70.2078 29.1216 71.579Z" fill="#1B1B1B"/>
<path d="M52.0599 78.7895C50.9762 79.2781 49.9396 79.8652 48.9632 80.5433C48.9029 80.5787 48.8502 80.6256 48.8081 80.6813C48.7659 80.737 48.7352 80.8005 48.7176 80.8681C48.7 80.9357 48.6959 81.0062 48.7055 81.0754C48.7151 81.1446 48.7383 81.2112 48.7736 81.2714C48.809 81.3317 48.8559 81.3844 48.9116 81.4265C48.9673 81.4687 49.0308 81.4994 49.0984 81.517C49.166 81.5346 49.2364 81.5387 49.3056 81.5291C49.3749 81.5195 49.4415 81.4964 49.5017 81.461C50.4803 80.7814 51.5207 80.1954 52.6091 79.7107C52.7302 79.6383 52.8182 79.5213 52.8539 79.3848C52.8897 79.2483 52.8705 79.1033 52.8004 78.9808C52.7256 78.8624 52.6087 78.7767 52.4732 78.7412C52.3377 78.7057 52.1938 78.7229 52.0705 78.7895H52.0599Z" fill="#1B1B1B"/>
<path d="M63.0437 79.7283C64.1321 80.213 65.1725 80.799 66.1511 81.4786C66.2728 81.5495 66.4176 81.5691 66.5538 81.5332C66.69 81.4974 66.8064 81.4089 66.8774 81.2873C66.9449 81.1651 66.9631 81.0218 66.9281 80.8867C66.8932 80.7516 66.8079 80.635 66.6896 80.5609C65.7098 79.8822 64.6696 79.2951 63.5823 78.807C63.459 78.7405 63.3151 78.7233 63.1796 78.7588C63.0441 78.7943 62.9271 78.8799 62.8524 78.9984C62.7841 79.1213 62.7659 79.2657 62.8015 79.4017C62.8372 79.5377 62.9239 79.6547 63.0437 79.7283Z" fill="#1B1B1B"/>
<path d="M57.2969 91.9631V95.2476C57.2969 95.3886 57.3529 95.5238 57.4525 95.6234C57.5522 95.7231 57.6874 95.7791 57.8284 95.7791C57.9693 95.7791 58.1045 95.7231 58.2042 95.6234C58.3038 95.5238 58.3598 95.3886 58.3598 95.2476V91.9631C58.3598 91.8222 58.3038 91.687 58.2042 91.5873C58.1045 91.4876 57.9693 91.4316 57.8284 91.4316C57.6874 91.4316 57.5522 91.4876 57.4525 91.5873C57.3529 91.687 57.2969 91.8222 57.2969 91.9631Z" fill="#1B1B1B"/>
<path d="M54.5544 92.2322C54.5095 93.1203 54.5249 94.0105 54.6005 94.8966C54.6032 95.0367 54.66 95.1703 54.7591 95.2694C54.8582 95.3685 54.9918 95.4254 55.1319 95.4281C55.2726 95.4272 55.4072 95.3709 55.5067 95.2714C55.6062 95.1719 55.6625 95.0373 55.6634 94.8966C55.5878 94.0105 55.5724 93.1203 55.6173 92.2322C55.6173 92.0912 55.5614 91.956 55.4617 91.8563C55.362 91.7567 55.2268 91.7007 55.0859 91.7007C54.9455 91.7025 54.8114 91.7591 54.7121 91.8584C54.6128 91.9577 54.5562 92.0918 54.5544 92.2322Z" fill="#1B1B1B"/>
<path d="M60.0498 92.321V94.9855C60.0498 95.1265 60.1058 95.2616 60.2055 95.3613C60.3051 95.461 60.4403 95.517 60.5813 95.517C60.7222 95.517 60.8574 95.461 60.9571 95.3613C61.0568 95.2616 61.1128 95.1265 61.1128 94.9855V92.321C61.1128 92.1801 61.0568 92.0449 60.9571 91.9452C60.8574 91.8455 60.7222 91.7896 60.5813 91.7896C60.4403 91.7896 60.3051 91.8455 60.2055 91.9452C60.1058 92.0449 60.0498 92.1801 60.0498 92.321Z" fill="#1B1B1B"/>
<path d="M50.3805 46.8445C48.4183 46.0288 46.379 45.4127 44.2933 45.0056C43.6237 44.878 43.3367 45.902 44.0099 46.0331C46.0934 46.4378 48.1305 47.0528 50.09 47.8685C50.2239 47.9072 50.3676 47.8917 50.4902 47.8254C50.6128 47.7592 50.7045 47.6474 50.7454 47.5142C50.7797 47.378 50.7601 47.2339 50.6908 47.1119C50.6215 46.9898 50.5078 46.8991 50.3734 46.8587L50.3805 46.8445Z" fill="#1B1B1B"/>
<path d="M65.5524 47.8685C67.5141 47.0523 69.5536 46.4374 71.6395 46.0331C72.3127 45.902 72.0257 44.878 71.3561 45.0056C69.268 45.4123 67.2263 46.0283 65.2618 46.8445C65.1317 46.8899 65.0232 46.9823 64.9576 47.1036C64.8921 47.2248 64.8742 47.3662 64.9075 47.5C64.9485 47.6332 65.0401 47.745 65.1627 47.8113C65.2854 47.8775 65.4291 47.893 65.563 47.8543L65.5524 47.8685Z" fill="#1B1B1B"/>
<path d="M28.4874 57.3638C26.7371 56.4497 24.5439 55.5532 22.705 56.7969C20.8661 58.0405 20.5507 60.7227 20.5082 62.7175C20.4196 66.5548 21.3798 70.842 24.76 73.1203C26.443 74.2576 28.6575 74.7289 30.5956 74.0699C30.8642 73.9897 31.0915 73.8091 31.2301 73.5655C31.3687 73.3219 31.408 73.0342 31.3397 72.7624C31.3028 72.6277 31.2397 72.5015 31.154 72.3912C31.0683 72.2808 30.9616 72.1884 30.8402 72.1193C30.7188 72.0502 30.5849 72.0057 30.4463 71.9884C30.3076 71.9711 30.1669 71.9813 30.0322 72.0184C29.4189 72.2176 28.7696 72.2816 28.1292 72.2057C27.4887 72.1299 26.8724 71.916 26.3225 71.579C25.0807 70.8536 24.1111 69.7408 23.5624 68.4114C22.9909 67.0141 22.681 65.5237 22.6483 64.0143C22.5774 62.4341 22.5951 60.6412 23.3569 59.2098C24.2214 57.5764 26.1064 58.5012 27.4174 59.1885C27.6603 59.3156 27.9429 59.3439 28.2062 59.2675C28.4695 59.1911 28.6931 59.016 28.8304 58.7786C28.9676 58.5413 29.0077 58.2601 28.9425 57.9938C28.8773 57.7275 28.7117 57.4967 28.4803 57.3496L28.4874 57.3638Z" fill="#1B1B1B"/>
<path d="M88.2287 59.2028C88.8983 58.7994 89.6279 58.5052 90.39 58.3312C90.6758 58.2673 90.973 58.2753 91.255 58.3545C91.5369 58.4336 91.7949 58.5814 92.0057 58.7847C92.484 59.3374 92.6824 60.1736 92.8277 60.8716C92.9812 61.7164 93.043 62.5753 93.012 63.4333C92.9659 66.2679 92.3033 69.6126 89.8231 71.285C88.5228 72.1601 87.0701 72.5074 85.6245 72.0184C85.3524 71.9437 85.0618 71.9801 84.8166 72.1197C84.5714 72.2592 84.3917 72.4904 84.317 72.7625C84.2423 73.0345 84.2787 73.3251 84.4183 73.5703C84.5578 73.8155 84.7891 73.9952 85.0611 74.0699C85.9352 74.336 86.8547 74.4192 87.7624 74.3144C88.6701 74.2095 89.5464 73.9188 90.3369 73.4605C91.9884 72.522 93.2781 71.0576 94.0005 69.3008C94.7512 67.463 95.1364 65.4965 95.1343 63.5113C95.1768 61.4775 94.9819 58.9299 93.5576 57.332C93.1778 56.9342 92.7145 56.6255 92.2011 56.4282C91.6877 56.2309 91.1369 56.1499 90.5884 56.1911C89.3483 56.2584 88.2393 56.8005 87.1551 57.3639C86.9237 57.511 86.7581 57.7417 86.6929 58.008C86.6277 58.2743 86.6679 58.5555 86.8051 58.7929C86.9423 59.0302 87.1659 59.2054 87.4292 59.2818C87.6925 59.3582 87.9751 59.3299 88.2181 59.2028H88.2287Z" fill="#1B1B1B"/>
<path d="M53.5694 57.4452C53.9592 56.1874 53.3214 54.6106 51.6349 54.6957C47.6027 54.8965 43.5694 54.9673 39.535 54.9083C37.6535 54.8799 37.0547 56.8783 37.7634 58.1467C37.5937 58.4636 37.5071 58.8184 37.5118 59.1778V64.8716C36.8705 66.1295 37.4693 68.0605 39.3153 68.0605H50.4869C51.7447 68.6983 53.6757 68.0995 53.6757 66.2535V59.5215C53.6746 59.3311 53.6484 59.1416 53.5978 58.9581C53.7511 58.4638 53.7411 57.9334 53.5694 57.4452Z" fill="white"/>
<path d="M78.0172 56.3432C77.9589 55.853 77.7186 55.4025 77.3439 55.081C76.9692 54.7594 76.4875 54.5903 75.9941 54.6071H66.8669C66.5128 54.6026 66.1633 54.6867 65.85 54.8516C65.7257 54.8317 65.6002 54.821 65.4744 54.8197C65.2462 54.818 65.0192 54.8514 64.8012 54.9189C63.5398 54.2953 61.6336 54.8976 61.6336 56.733V65.024C60.8293 66.2677 61.3927 68.3936 63.3308 68.3936H75.4413C75.7522 68.3974 76.0603 68.3346 76.3448 68.2093C76.6094 68.2066 76.8707 68.1512 77.1136 68.0463C77.3565 67.9415 77.5761 67.7893 77.7595 67.5986C77.9429 67.408 78.0864 67.1827 78.1818 66.9359C78.2772 66.6891 78.3224 66.4258 78.3148 66.1614V57.4664C78.3243 57.0714 78.2211 56.6818 78.0172 56.3432Z" fill="white"/>
<path d="M60.4787 56.4321H55.1462V55.2097C55.1452 55.0904 55.131 54.9715 55.1037 54.8554C55.1182 54.7135 55.1025 54.5701 55.0577 54.4347C55.0128 54.2994 54.9397 54.175 54.8433 54.0699C54.7469 53.9648 54.6293 53.8813 54.4983 53.8249C54.3673 53.7685 54.2259 53.7406 54.0833 53.7428H37.5225C37.359 53.7435 37.1981 53.7826 37.0525 53.857C36.907 53.9314 36.781 54.039 36.6848 54.1711C36.5885 54.3032 36.5247 54.4561 36.4985 54.6175C36.4723 54.7788 36.4845 54.9441 36.5339 55.0998C36.5008 55.2066 36.4829 55.3176 36.4808 55.4293V56.3258H29.0402C27.6725 56.3258 27.6725 58.4517 29.0402 58.4517H36.4808V67.9119C36.4739 68.1692 36.5672 68.4191 36.7411 68.6088C36.915 68.7985 37.1558 68.9133 37.4127 68.9288C37.5178 68.9575 37.6261 68.973 37.7351 68.9749H54.0337C54.1763 68.9805 54.3185 68.9563 54.4512 68.9038C54.5839 68.8512 54.7042 68.7715 54.8043 68.6698C54.9044 68.568 54.9821 68.4464 55.0324 68.3129C55.0828 68.1793 55.1046 68.0367 55.0966 67.8942C55.133 67.7566 55.152 67.6149 55.1533 67.4726V58.5544H60.4787C60.7606 58.5544 61.0309 58.4424 61.2303 58.2431C61.4296 58.0437 61.5416 57.7734 61.5416 57.4915C61.5416 57.2096 61.4296 56.9392 61.2303 56.7399C61.0309 56.5405 60.7606 56.4285 60.4787 56.4285V56.4321ZM38.6067 55.8616H53.0203V66.8454H38.6067V55.8616Z" fill="#1B1B1B"/>
<path d="M86.5955 56.3186H79.1548V55.4222C79.1527 55.3104 79.1348 55.1994 79.1017 55.0927C79.1511 54.9369 79.1633 54.7716 79.1371 54.6103C79.1109 54.449 79.0471 54.2961 78.9508 54.164C78.8546 54.0318 78.7286 53.9242 78.5831 53.8498C78.4376 53.7754 78.2766 53.7363 78.1131 53.7356H61.5594C61.4208 53.7324 61.2829 53.758 61.1546 53.8108C61.0264 53.8637 60.9105 53.9425 60.8142 54.0424C60.718 54.1423 60.6435 54.2611 60.5955 54.3913C60.5476 54.5214 60.5271 54.6601 60.5355 54.7986C60.5108 54.9151 60.4977 55.0338 60.4965 55.1529V56.4355H55.164C54.8821 56.4355 54.6117 56.5475 54.4124 56.7468C54.2131 56.9462 54.1011 57.2165 54.1011 57.4985C54.1011 57.7804 54.2131 58.0507 54.4124 58.2501C54.6117 58.4494 54.8821 58.5614 55.164 58.5614H60.4965V67.4654C60.4944 67.6586 60.5268 67.8505 60.5922 68.0323C60.6068 68.2942 60.7239 68.5399 60.9182 68.7162C61.1124 68.8926 61.3682 68.9854 61.6303 68.9748H77.7411C77.8429 68.9741 77.9442 68.9598 78.0423 68.9323C78.1847 68.9479 78.3288 68.933 78.4651 68.8886C78.6013 68.8442 78.7265 68.7713 78.8324 68.6748C78.9384 68.5783 79.0225 68.4603 79.0793 68.3288C79.1361 68.1972 79.1643 68.0551 79.1619 67.9118V58.4516H86.6026C87.9631 58.4445 87.9631 56.3186 86.5955 56.3186ZM62.6224 55.8615H77.036V66.8453H62.6224V55.8615Z" fill="#1B1B1B"/>
<path d="M68.805 64.1383C70.3705 64.1383 71.6395 62.8692 71.6395 61.3038C71.6395 59.7383 70.3705 58.4692 68.805 58.4692C67.2395 58.4692 65.9705 59.7383 65.9705 61.3038C65.9705 62.8692 67.2395 64.1383 68.805 64.1383Z" fill="#1B1B1B"/>
<path d="M46.8375 64.1383C48.4029 64.1383 49.672 62.8692 49.672 61.3038C49.672 59.7383 48.4029 58.4692 46.8375 58.4692C45.272 58.4692 44.0029 59.7383 44.0029 61.3038C44.0029 62.8692 45.272 64.1383 46.8375 64.1383Z" fill="#1B1B1B"/>
<path d="M94.67 31.1516C94.5362 30.0034 94.1345 28.9026 93.4973 27.938C93.391 27.7821 93.274 27.6404 93.1606 27.4916C92.514 26.2004 91.73 24.9828 90.8222 23.8598C90.343 22.9009 89.7773 21.9877 89.1321 21.1316C88.1577 19.9127 86.7582 19.4025 85.3409 18.8852C85.0326 18.7718 84.7279 18.6549 84.4232 18.5309C84.2673 18.4706 84.1149 18.4104 83.9661 18.3466L83.8244 18.29C83.1796 18.0313 82.5489 17.7301 81.9253 17.4254C80.7442 16.8514 79.5915 16.2219 78.4671 15.5369C78.2049 15.3775 77.9463 15.218 77.6912 15.0479C77.5564 14.9769 77.4314 14.8888 77.3191 14.7858L77.5105 14.9346L77.2802 14.7432C77.0631 14.5434 76.8573 14.3316 76.6637 14.109L76.6424 14.0736C76.5361 13.9106 76.4227 13.7547 76.3164 13.5917C75.6326 12.5288 74.9736 11.4445 74.0275 10.5942C73.1632 9.85297 72.2294 9.19681 71.2391 8.63482C71.1815 8.18296 70.9715 7.76426 70.6438 7.44785C70.0637 6.88539 69.3771 6.44449 68.6242 6.15105C67.6794 5.58887 66.7097 5.05267 65.7153 4.54246C64.1054 3.65898 62.4102 2.94078 60.6556 2.39884C57.1514 1.41738 53.672 2.25711 50.5682 4.01452C49.4627 4.6571 48.3977 5.36707 47.3794 6.14042C47.0417 6.15909 46.7119 6.24969 46.4121 6.40616C40.9346 9.28266 35.8942 12.9237 31.4422 17.2199C30.1997 18.4199 29.0081 19.6694 27.8672 20.9686C27.571 21.2979 27.3712 21.7025 27.2896 22.1378C25.74 23.4895 24.3352 24.9987 23.0981 26.6412C22.5571 27.3961 22.1041 28.2105 21.7481 29.0683C21.3848 29.1814 21.0517 29.3752 20.7737 29.6352C19.5797 30.7477 19.9021 32.9976 20.3698 34.3795C20.4536 34.6354 20.5806 34.8751 20.7454 35.0881C20.8623 36.9003 21.1374 38.6988 21.5674 40.4631C22.0953 42.837 22.6622 45.2003 23.2114 47.5671L25.1247 55.805C25.265 56.297 25.578 56.7219 26.0062 57.0017C26.4345 57.2816 26.9493 57.3976 27.4561 57.3286C27.962 57.2568 28.4256 57.0068 28.7634 56.6235C29.1012 56.2403 29.291 55.7489 29.2986 55.2381C29.5006 52.0315 29.5785 48.8143 29.5395 45.6042C31.2048 43.5704 31.4954 40.9556 31.5343 38.3762C31.9193 38.217 32.2347 37.9254 32.4237 37.5541C32.8371 36.704 33.2948 35.8761 33.7949 35.0739C34.0311 34.6842 34.2862 34.3015 34.5602 33.9259L34.9464 33.3945C34.996 33.3271 35.0492 33.2598 35.0988 33.189L35.1342 33.1464C36.296 31.6858 37.6017 30.3456 39.0317 29.1462L39.5383 28.7281L39.7403 28.5687C40.1265 28.2817 40.5127 28.0018 40.906 27.7289C41.0973 27.6014 41.2922 27.4809 41.4835 27.3746C41.8774 27.5536 42.3156 27.6111 42.7422 27.5397C43.1688 27.4684 43.5645 27.2715 43.8787 26.9743C44.0807 26.7936 44.3004 26.6199 44.5023 26.4463L44.4208 26.5207C44.4479 26.4967 44.4763 26.4743 44.5059 26.4534C44.6157 26.3719 44.7255 26.2975 44.8389 26.2196C45.2725 25.9312 45.7233 25.6697 46.1889 25.4365L46.5432 25.2594C46.6211 25.2239 47.0144 24.9865 46.7239 25.1743C46.4333 25.3621 46.7629 25.1743 46.8479 25.1283L47.2306 24.9901C47.7456 24.8119 48.2709 24.6652 48.8037 24.5507C49.0518 24.4976 49.2998 24.4551 49.5513 24.4125L49.9057 24.3771C50.4254 24.3352 50.9471 24.3234 51.4682 24.3417C51.741 24.3417 52.0103 24.37 52.2796 24.3984H52.3221H52.2548C52.3859 24.4267 52.5241 24.4373 52.6552 24.4621C53.1898 24.5605 53.7177 24.6931 54.2354 24.859C54.5047 24.9367 54.787 24.9583 55.065 24.9223C55.3429 24.8864 55.6105 24.7937 55.8511 24.6499L60.5068 25.5853L61.1481 25.7944C61.591 25.9467 62.0233 26.1203 62.4626 26.2904L62.7319 26.4109C62.9693 26.5172 63.2067 26.627 63.4406 26.7404C64.3295 27.1731 65.1921 27.6582 66.0235 28.1931C66.9022 28.7529 68.1884 28.4234 68.8333 27.6297H68.9041C70.0663 27.7041 71.2284 27.7856 72.3835 27.9238L72.5465 27.9451L72.7733 27.977C73.0674 28.023 73.3579 28.0726 73.652 28.1258C74.2295 28.2321 74.8035 28.3596 75.3704 28.5191C75.9079 28.6634 76.4368 28.8385 76.9542 29.0435L77.2873 29.1958C77.5636 29.3305 77.8329 29.4722 78.0986 29.6281C78.3644 29.784 78.5451 29.9009 78.7612 30.0497L79.0022 30.2269L79.1155 30.3225C79.3175 30.4962 79.5159 30.6769 79.7037 30.8682C79.9705 31.0932 80.2033 31.3558 80.3946 31.6477C80.3946 31.6477 80.1501 31.3146 80.2848 31.513L80.4159 31.6937C80.5045 31.8142 80.586 31.9382 80.6674 32.0481C80.8446 32.3173 81.0111 32.5937 81.167 32.8772C81.4611 33.4086 81.6666 33.9933 81.9607 34.5212L82.0245 34.6806C82.0812 34.8224 82.1343 34.9606 82.1875 35.1023C82.3079 35.4141 82.4249 35.7294 82.5418 36.0483C82.778 36.7002 82.9977 37.3557 83.2008 38.0148C84.0466 40.7118 84.6862 43.4693 85.1141 46.2633L85.1992 46.8372C85.1992 46.8939 85.1992 46.9506 85.224 47.0073C85.2736 47.4183 85.3232 47.8293 85.3692 48.2439C85.4519 49.0139 85.5169 49.7863 85.5641 50.5611C85.6668 52.1626 85.6987 53.7712 85.6633 55.3763C85.6619 55.8919 85.8479 56.3905 86.1867 56.7791C86.5255 57.1678 86.9941 57.4201 87.5051 57.489C88.0161 57.5579 88.5347 57.4388 88.9644 57.1537C89.3941 56.8687 89.7055 56.4372 89.8407 55.9397C91.2155 51.2532 92.3871 46.5101 93.3555 41.7103C93.8374 39.3116 94.3193 36.8951 94.6133 34.4645C94.6311 34.3192 94.6452 34.1775 94.6594 34.0322C94.7877 33.7538 94.8668 33.4554 94.8933 33.15C94.9607 32.4756 94.8847 31.7945 94.67 31.1516Z" fill="#333333"/>
<path d="M30.1385 58.824C30.3358 54.4316 30.7877 50.0543 31.492 45.7142C31.7936 43.6647 32.2871 41.6481 32.966 39.6909C33.552 38.1149 34.3164 36.6111 35.2442 35.2088C37.2075 32.2311 39.8789 29.7872 43.019 28.0959C46.1591 26.4047 49.6698 25.519 53.2364 25.5182C57.6796 25.543 61.74 27.1516 65.4745 29.4936C66.6367 30.2271 67.7032 28.3882 66.5375 27.6583C62.9589 25.4048 59.0366 23.7856 54.7883 23.4596C50.8728 23.1736 46.9484 23.8779 43.3767 25.5077C39.8051 27.1375 36.7012 29.6402 34.3513 32.7852C32.0294 35.9013 30.4535 39.5087 29.7452 43.3297C28.7725 48.4448 28.1803 53.6249 27.9736 58.8275C27.9736 59.1094 28.0856 59.3798 28.285 59.5791C28.4843 59.7785 28.7547 59.8905 29.0366 59.8905C29.3168 59.885 29.584 59.7713 29.7822 59.5731C29.9804 59.3749 30.0941 59.1077 30.0995 58.8275L30.1385 58.824Z" fill="#1B1B1B"/>
<path d="M67.2921 29.8369C69.3613 28.6216 71.8416 28.5472 74.1021 29.2275C76.3687 29.9705 78.3492 31.3977 79.7712 33.3128C83.1478 37.6531 83.9167 43.4002 84.4375 48.7078C84.7918 52.1943 85.093 55.6879 85.4225 59.1779C85.4297 59.4575 85.544 59.7238 85.7418 59.9216C85.9396 60.1194 86.2058 60.2337 86.4855 60.2408C86.7674 60.2408 87.0377 60.1288 87.2371 59.9295C87.4364 59.7302 87.5484 59.4598 87.5484 59.1779C87.239 55.904 86.9307 52.6313 86.6236 49.3598C86.326 46.2276 85.993 43.0742 85.2064 40.0235C83.7891 34.6769 80.6853 29.3019 75.2253 27.3532C72.3163 26.315 68.9362 26.4178 66.2433 28.0016C65.0635 28.7102 66.1335 30.5314 67.3063 29.8369H67.2921Z" fill="#1B1B1B"/>
<path d="M94.7658 31.8955C93.4903 38.4291 92.001 44.9178 90.2979 51.3617C89.8089 53.2065 89.3023 55.0489 88.7779 56.889C88.4058 58.2071 90.4538 58.7704 90.8294 57.4559C92.6506 51.0499 94.2627 44.5895 95.6658 38.0748C96.065 36.2064 96.4488 34.3344 96.8173 32.4589C96.8847 32.1871 96.845 31.8998 96.7066 31.6565C96.5681 31.4131 96.3413 31.2323 96.0733 31.1514C95.9385 31.1143 95.7979 31.1042 95.6592 31.1215C95.5206 31.1388 95.3867 31.1833 95.2653 31.2524C95.1439 31.3215 95.0372 31.4139 94.9515 31.5242C94.8658 31.6346 94.8027 31.7607 94.7658 31.8955Z" fill="#1B1B1B"/>
<path d="M18.942 32.4659C20.2199 39.0019 21.7104 45.4918 23.4134 51.9356C23.9024 53.7805 24.4091 55.6229 24.9335 57.463C25.2878 58.7775 27.357 58.2177 26.9814 56.8961C25.1602 50.49 23.5481 44.0308 22.145 37.5185C21.7458 35.6595 21.362 33.7852 20.9935 31.8955C20.9566 31.7607 20.8935 31.6346 20.8078 31.5242C20.7221 31.4139 20.6154 31.3215 20.494 31.2524C20.3726 31.1833 20.2387 31.1388 20.1001 31.1215C19.9614 31.1042 19.8207 31.1143 19.686 31.1514C19.4175 31.2315 19.1902 31.4122 19.0516 31.6558C18.9129 31.8994 18.8737 32.187 18.942 32.4589V32.4659Z" fill="#1B1B1B"/>
<path d="M20.7668 31.9949C22.595 27.6899 25.6103 24.0865 28.916 20.8481C32.3873 17.4634 36.0984 14.3337 40.0203 11.4835C44.0431 8.54405 48.2688 5.89305 52.6659 3.55032C53.6805 2.96487 54.7733 2.52702 55.9114 2.24998C57.0188 2.04719 58.156 2.07372 59.2526 2.32793C61.6195 2.83815 63.7914 3.99676 65.8784 5.18372C69.7546 7.38757 73.7938 10.3071 75.126 14.7219C75.5193 16.0294 77.5708 15.4731 77.174 14.1586C75.8595 9.78276 72.3482 6.66831 68.5889 4.31565C66.4995 2.96654 64.2812 1.82832 61.9667 0.917749C59.5184 -0.0034748 56.8043 -0.375507 54.2816 0.489026C53.0553 0.945144 51.87 1.50461 50.7384 2.1614C49.5786 2.79681 48.4294 3.45348 47.2909 4.1314C45.1083 5.43293 42.9718 6.81004 40.8813 8.26274C36.6399 11.2185 32.6142 14.4723 28.8346 17.9994C24.8697 21.7055 21.0786 25.8723 18.9314 30.9213C18.7988 31.1668 18.7645 31.4535 18.8355 31.7233C18.9066 31.9931 19.0777 32.2257 19.3141 32.374C19.7605 32.6362 20.5435 32.5264 20.7668 31.9949Z" fill="#1B1B1B"/>
<path d="M76.483 15.0834C78.1767 15.8806 79.8065 16.8018 81.4187 17.7478C83.0308 18.6938 84.6075 19.5903 86.1204 20.6426C88.7136 22.4583 90.8773 24.8203 92.4592 27.5624C93.3724 29.1301 94.1103 30.7936 94.6595 32.5228C94.7403 32.7907 94.9213 33.0172 95.1648 33.1551C95.4083 33.293 95.6956 33.3318 95.9669 33.2633C96.1017 33.2264 96.2278 33.1633 96.3382 33.0776C96.4485 32.9919 96.5409 32.8853 96.61 32.7639C96.6791 32.6425 96.7236 32.5086 96.7409 32.37C96.7582 32.2313 96.7481 32.0906 96.711 31.9559C95.676 28.6597 94.0066 25.5977 91.7966 22.9421C89.4404 20.1359 86.4145 18.212 83.293 16.3695C81.4151 15.2641 79.5337 14.1657 77.5602 13.2374C77.3155 13.1027 77.0285 13.0669 76.7582 13.1374C76.488 13.2079 76.2551 13.3794 76.1075 13.6165C76.0366 13.737 75.9902 13.8702 75.9709 14.0087C75.9516 14.1471 75.9598 14.288 75.995 14.4232C76.0302 14.5585 76.0917 14.6855 76.1761 14.7969C76.2604 14.9084 76.366 15.0021 76.4866 15.0727L76.483 15.0834Z" fill="#1B1B1B"/>
<path d="M62.4485 20.9651C63.4158 22.0848 64.383 23.2186 65.283 24.402C66.0483 25.4118 66.7818 26.5492 66.7747 27.8637C66.7747 28.0046 66.8307 28.1398 66.9303 28.2395C67.03 28.3392 67.1652 28.3951 67.3061 28.3951C67.4471 28.3951 67.5823 28.3392 67.682 28.2395C67.7816 28.1398 67.8376 28.0046 67.8376 27.8637C67.8376 26.4003 67.129 25.1071 66.2751 23.9662C65.3113 22.6729 64.2626 21.4364 63.2067 20.2175C62.7567 19.6967 62.0091 20.4514 62.4556 20.9687L62.4485 20.9651Z" fill="#1B1B1B"/>
<path d="M66.4239 20.0191C67.3561 20.8702 67.9793 22.0068 68.1955 23.2504C68.3396 24.4912 68.3206 25.7455 68.1388 26.9814C68.0715 27.6617 69.1345 27.6546 69.2018 26.9814C69.3967 25.6112 69.3967 24.2203 69.2018 22.8501C68.9208 21.4714 68.21 20.2173 67.1716 19.2679C66.6861 18.786 65.9314 19.5372 66.4204 20.0191H66.4239Z" fill="#1B1B1B"/>
<path d="M69.6517 27.6442C70.906 26.5812 72.4649 25.3021 74.2294 25.6742C74.3651 25.7073 74.5083 25.6873 74.6296 25.6181C74.7508 25.5489 74.841 25.4358 74.8814 25.3021C74.9182 25.1683 74.9019 25.0254 74.8359 24.9032C74.7699 24.7811 74.6592 24.6892 74.5271 24.6466C72.3303 24.186 70.4985 25.5679 68.9112 26.893C68.8115 26.9931 68.7558 27.1286 68.7561 27.2698C68.7564 27.411 68.8128 27.5463 68.9129 27.6459C69.013 27.7455 69.1486 27.8013 69.2898 27.801C69.431 27.8006 69.5662 27.7442 69.6658 27.6442H69.6517Z" fill="#1B1B1B"/>
</g>
<defs>
<clipPath id="clip0_238_666">
<rect width="114.377" height="150" fill="white" transform="translate(0.811523)"/>
</clipPath>
</defs>
</svg>
