<svg width="58" height="60" viewBox="0 0 58 60" fill="none" xmlns="http://www.w3.org/2000/svg">
<path d="M51.4722 34.5942C51.0451 33.5154 50.0787 33.448 49.0674 33.6502C48.7287 33.7243 48.3977 33.8296 48.0785 33.9649C47.927 33.9063 47.7682 33.8685 47.6065 33.8525C47.3223 33.83 47.0367 33.83 46.7525 33.8525C46.5502 32.2343 46.5951 30.5937 46.4603 28.9755C46.282 27.232 46.0119 25.499 45.6512 23.7839C45.359 22.323 45.0444 20.9071 44.4151 19.5586C43.7409 18.1202 42.6396 17.0415 41.4709 16.0076C41.2696 15.8227 41.0204 15.6981 40.7517 15.648C40.6394 15.5806 40.527 15.4907 40.4146 15.4233C38.9313 14.5018 37.6277 14.7715 35.9646 14.9963C35.6774 15.0357 35.4017 15.1352 35.1555 15.2884C35.0991 15.1846 35.0227 15.093 34.9308 15.0187C34.0544 14.3283 33.0045 13.8928 31.8967 13.7602C30.6831 13.5804 29.6268 12.8612 28.3682 12.6589C27.1331 12.4794 25.8822 12.4342 24.6374 12.524C23.4013 12.6364 22.2326 13.4006 20.9965 13.2657C20.7473 13.2192 20.4898 13.2641 20.271 13.3921C20.0523 13.52 19.887 13.7225 19.8053 13.9624C18.368 14.6698 17.0966 15.6731 16.0745 16.9066C14.9058 18.2551 13.5124 19.8283 12.9506 21.5364C12.6584 22.4354 12.5235 23.3793 12.2314 24.2783C11.9167 25.2672 12.0291 26.1437 11.9167 27.1326C11.8043 28.1889 11.4897 29.2227 11.3773 30.3015C11.265 31.4477 11.1526 32.5715 11.0627 33.7177V33.83C10.0288 33.6278 9.08491 33.1109 7.91622 33.5154C6.4329 34.0548 6.0733 35.6954 6.02835 37.1113C5.96093 39.4262 7.15209 41.5389 9.12986 42.4603C9.28027 42.5957 9.46847 42.682 9.66925 42.7075L10.0738 42.775C10.3764 42.851 10.6845 42.9036 10.9953 42.9323C11.2767 42.9626 11.5589 42.882 11.7819 42.7075C11.8043 42.8199 11.8043 42.9098 11.8268 43.0222C12.023 43.0948 12.1882 43.2327 12.2947 43.4128C12.4011 43.5929 12.4422 43.8042 12.4112 44.0111C12.3437 44.6853 12.6584 45.0899 12.8157 45.6967C12.9506 46.2136 12.9056 46.6856 13.1304 47.18C13.512 48.0969 13.9628 48.9834 14.4788 49.832C14.5429 49.9358 14.5885 50.0498 14.6137 50.1691C14.747 50.273 14.8548 50.406 14.9288 50.5579C15.0028 50.7098 15.0411 50.8767 15.0407 51.0456C15.0856 51.1131 15.243 51.2704 15.0632 51.0681C15.1081 51.1131 15.1531 51.1805 15.198 51.2254C15.3805 51.4315 15.5388 51.6577 15.67 51.8997C16.4791 52.5964 17.3106 53.2706 18.1872 53.9224C18.2891 54.0001 18.403 54.0608 18.5243 54.1022C18.7658 54.2734 19.0214 54.4237 19.2884 54.5517C20.7248 55.2332 22.195 55.8408 23.6934 56.3721C23.7873 56.4717 23.9026 56.5486 24.0306 56.5969C25.3341 57.2037 26.6376 57.3161 27.9636 57.2936C28.2558 57.2936 28.5705 57.2936 28.8626 57.2711C29.9089 57.1813 30.9599 57.1588 32.0091 57.2037C32.1923 57.2212 32.377 57.1958 32.5487 57.1295C32.7203 57.0632 32.8741 56.9578 32.998 56.8216H33.1778C33.3863 56.8313 33.594 56.7892 33.7822 56.699C33.9705 56.6088 34.1334 56.4733 34.2565 56.3047L36.3827 55.8822C36.5536 55.8541 36.7164 55.7893 36.86 55.6923C37.0035 55.5954 37.1244 55.4684 37.2142 55.3203C38.248 54.8484 39.147 54.0842 40.1584 53.5898C41.6193 52.8931 42.5182 51.9491 43.3723 50.5782C43.7094 50.0163 44.069 49.432 44.3836 48.8476C44.4046 48.6772 44.45 48.5106 44.5185 48.3532C44.8782 47.7497 45.1008 47.0745 45.1703 46.3754C45.2006 45.6075 45.2756 44.8421 45.395 44.083C45.4281 43.8569 45.5419 43.6504 45.7154 43.5017C45.8889 43.3529 46.1104 43.272 46.3389 43.2739C46.3614 43.0267 46.3839 42.7795 46.3839 42.5322C47.7099 43.4762 50.1372 42.0378 50.9013 40.9141C51.9216 39.3139 52.1689 36.3697 51.4722 34.5942Z" fill="#FFF3E8"/>
<path d="M55.9669 29.3351C55.9445 29.2452 55.9445 29.1778 55.922 29.0879C55.0455 25.6942 53.4498 22.4803 51.9664 19.3114C50.5955 16.3897 49.1571 13.4904 47.3591 10.816C45.0892 7.42229 41.8978 3.75891 38.122 2.18569C37.8809 2.00502 37.6057 1.87505 37.313 1.80362C35.7677 1.35136 34.1546 1.17635 32.5483 1.2867C32.4076 1.21106 32.256 1.15797 32.0988 1.12938C31.4021 0.972054 30.5481 0.994528 29.9413 1.42155C29.6067 1.64652 29.2533 1.84204 28.885 2.00589L28.84 2.02836C28.1902 1.38284 27.3443 0.971709 26.4352 0.85968C24.8845 0.634933 23.2438 1.08443 21.8279 1.71372C21.7605 1.71372 21.7155 1.69124 21.6481 1.69124C21.3776 1.67255 21.1058 1.68765 20.839 1.73619C20.5631 1.76378 20.2915 1.82413 20.0299 1.91599C19.3149 2.15724 18.6677 2.5656 18.1421 3.10715C18.0522 3.19705 17.9847 3.30942 17.8948 3.39932L17.6476 3.48922C16.7936 3.78139 15.8721 4.41068 15.535 5.24224C12.411 8.05158 10.1635 11.5127 8.11835 15.176C5.33225 20.0508 2.97118 25.1564 1.0613 30.4364C0.910241 30.8808 0.887031 31.3587 0.994316 31.8156C1.1016 32.2726 1.33507 32.6902 1.66812 33.0209C1.51528 33.3833 1.48374 33.7854 1.57822 34.1672C1.82544 35.2909 2.02771 36.3247 2.54463 37.2911C2.39173 37.4538 2.30293 37.6664 2.29467 37.8895C2.2864 38.1126 2.35923 38.3312 2.49968 38.5048C2.88175 39.0442 3.42114 39.7858 4.07291 40.1454C4.07196 40.3337 4.11833 40.5191 4.20775 40.6848C4.47745 41.2017 5.08427 41.6512 5.48881 42.0782C5.89336 42.5053 6.41027 42.7974 6.72492 43.2919C7.08451 43.8313 7.30926 44.2808 8.02845 44.4381C8.22909 44.5887 8.47435 44.6678 8.72517 44.6628H8.73865C8.83285 44.7985 8.94643 44.9197 9.07577 45.0224C9.25154 45.1843 9.47164 45.2901 9.70788 45.3261C9.94411 45.3621 10.1857 45.3268 10.4018 45.2247C10.9636 47.5621 11.503 49.9668 11.4356 52.3716C11.3907 53.5628 10.9861 54.5517 10.4467 55.5855C9.79496 56.8441 9.0533 57.2486 7.68234 57.5858C6.24396 57.9454 6.87325 59.9681 8.28916 59.7433C10.3568 59.4062 12.402 59.0691 14.4472 58.6645C14.5679 58.7181 14.6974 58.7486 14.8293 58.7544C16.9419 58.8893 18.7174 57.5183 20.7851 57.5408H20.83C20.8975 57.5408 20.9649 57.5633 21.0323 57.5633C22.628 57.5633 22.628 55.0911 21.0323 55.0911C20.8799 55.0898 20.7282 55.1125 20.5828 55.1585C19.2343 54.6641 18.2005 54.0572 17.2341 52.8886C16.1766 51.5684 15.2081 50.1794 14.3348 48.7307C14.2333 48.5725 14.0937 48.4422 13.9288 48.3519C13.7639 48.2616 13.5789 48.2141 13.3909 48.2138C13.1437 46.8429 12.7841 45.4719 12.4919 44.1684C12.2896 43.3143 11.3907 43.202 10.8288 43.5616C10.7838 43.5166 10.7614 43.4717 10.7164 43.4267C10.6585 43.3801 10.6058 43.3273 10.5591 43.2694C10.5591 43.2469 10.5366 43.2469 10.5366 43.2244C10.5188 43.1773 10.4962 43.1321 10.4692 43.0896C10.4467 43.0446 10.4467 42.9997 10.4243 42.9772C10.3594 42.7543 10.2257 42.5576 10.0422 42.4154C10.1988 42.2444 10.2964 42.0276 10.3207 41.797C10.345 41.5665 10.2946 41.3341 10.177 41.1343C9.63764 40.1454 9.81744 38.9318 9.92981 37.853C10.0422 36.6618 10.222 35.4482 10.7838 34.3694C10.9139 34.1124 10.9459 33.8168 10.8737 33.5379C10.9636 33.5154 11.0535 33.5154 11.121 33.4929C12.0424 33.2457 12.829 32.0995 12.447 31.1331C12.402 31.0432 12.3795 30.9533 12.3346 30.8634C14.0876 30.6386 15.571 29.8745 16.9644 28.7058C17.0318 28.6609 17.3465 28.3912 17.4139 28.3462C19.2793 27.4247 21.0772 26.2336 22.2235 24.3682C23.2123 22.7725 23.8866 20.9296 24.6282 19.2215L25.9093 16.3672C26.0666 15.9851 26.2464 15.6255 26.4037 15.2435C27.0748 15.3296 27.7536 15.3371 28.4265 15.2659C28.425 15.2781 28.4263 15.2905 28.4301 15.3022C28.434 15.3138 28.4404 15.3245 28.4489 15.3334C29.2656 17.888 30.4627 20.305 31.9999 22.5028C33.3484 24.3907 35.1913 26.9528 37.4388 27.8518C37.5961 27.9192 37.7535 27.9641 37.9333 28.0316C37.9912 28.1842 38.0845 28.3208 38.2057 28.4303C38.3268 28.5397 38.4723 28.6187 38.63 28.6609C40.6527 29.3126 42.6529 29.897 44.788 29.9869C44.9917 29.9987 45.1945 29.9519 45.3724 29.852C45.6196 30.324 45.8668 30.8184 45.8219 31.3129C45.8081 31.4894 45.8427 31.6663 45.9219 31.8247C46.0011 31.9831 46.1219 32.1169 46.2714 32.2119C46.2821 32.4142 46.3432 32.6106 46.4492 32.7833C46.5552 32.956 46.7026 33.0995 46.8782 33.2007C46.8605 33.4292 46.9156 33.6573 47.0355 33.8525C47.7207 35.0101 48.1642 36.2945 48.339 37.6283C48.4249 38.2618 48.4774 38.8995 48.4964 39.5386C48.4964 39.8757 48.6537 41.0219 48.4739 41.4489L48.2267 41.7861C47.8221 42.3479 48.1143 42.9772 48.6087 43.2694C48.3575 43.2325 48.1013 43.2539 47.8597 43.3318C47.618 43.4098 47.3976 43.5422 47.2153 43.7189C47.1133 43.6285 46.9893 43.5665 46.8557 43.5391L46.5635 43.4941C46.3645 43.4874 46.1683 43.5424 46.0017 43.6515L45.7769 43.8313C45.6383 43.968 45.5377 44.1384 45.4847 44.3257L45.4398 44.6179L45.2825 44.8201C45.1658 45.0094 45.1036 45.2271 45.1027 45.4494V45.6292C45.1051 45.7429 45.1201 45.856 45.1476 45.9664C44.9471 46.1884 44.8352 46.4763 44.833 46.7754V47.0227C44.8345 47.0856 44.819 47.1477 44.788 47.2025C44.7605 47.3052 44.7454 47.4108 44.7431 47.5171C43.7767 48.9105 43.1699 50.5512 42.0911 51.8997C41.4248 52.7048 40.645 53.4089 39.7762 53.9898C39.0795 54.4843 37.9557 55.5181 37.0792 55.5406C35.6408 55.563 35.6184 57.8105 37.0792 57.788C37.3146 57.7914 37.5492 57.7611 37.7759 57.6981C37.8495 57.7633 37.9329 57.8164 38.0232 57.8555C38.3766 58.0378 38.7721 58.1232 39.1694 58.1027C39.8573 58.4133 40.596 58.5961 41.3494 58.6421C42.2484 58.732 43.035 59.0241 43.934 59.2264C45.8668 59.7209 47.9794 59.6984 49.9572 59.8557C50.0827 59.8724 50.2103 59.8641 50.3326 59.8313C50.4548 59.7985 50.5694 59.7418 50.6697 59.6645C50.77 59.5872 50.854 59.4908 50.9168 59.3809C50.9797 59.271 51.0202 59.1498 51.036 59.0241V58.8668C51.0679 58.6835 51.0538 58.4951 50.995 58.3186C50.9362 58.1421 50.8344 57.9829 50.6989 57.8555C50.5978 57.6828 50.4497 57.5425 50.2719 57.4509C48.4739 56.4845 47.3951 55.5855 46.7209 53.6077C46.0691 51.6749 46.159 49.832 47.2827 48.1015C47.3955 47.927 47.4577 47.7248 47.4625 47.5171C47.7556 47.4722 48.0238 47.3264 48.2207 47.1048C48.4177 46.8832 48.5311 46.5998 48.5413 46.3035V46.2361L48.5638 46.1462L48.6762 45.9214L48.811 45.6517C48.9977 45.5948 49.1663 45.4903 49.3003 45.3484C49.4343 45.2065 49.529 45.0322 49.5751 44.8426C49.605 44.7252 49.6126 44.6032 49.5976 44.483C49.758 44.5028 49.9207 44.489 50.0754 44.4426C50.2302 44.3962 50.3736 44.3181 50.4966 44.2133C51.0528 43.7618 51.5784 43.2738 52.0698 42.7525C52.1268 42.7312 52.1799 42.7008 52.2272 42.6626C54.0027 41.5613 54.6994 39.3138 55.5085 37.4934C56.5423 35.201 56.4524 32.8187 56.5423 30.3465C56.5646 30.1388 56.521 29.9295 56.4177 29.748C56.3145 29.5665 56.1568 29.422 55.9669 29.3351V29.3351Z" fill="#754414"/>
<path d="M25.6494 14.7714C24.9752 17.0189 24.2785 19.2664 23.1997 21.3565C22.3045 23.1765 21.0418 24.7911 19.4914 26.0987C18.6456 26.7994 17.6983 27.3678 16.682 27.7843C16.5112 27.8351 16.3666 27.95 16.2786 28.105C16.1907 28.2601 16.1661 28.4431 16.21 28.6158C16.2999 28.9305 16.7045 29.2227 17.0416 29.0878C19.0601 28.2607 20.8433 26.9483 22.2333 25.2671C23.7615 23.4467 24.8178 21.334 25.6269 19.1315C26.1214 17.8055 26.5259 16.4795 26.9305 15.131C27.2002 14.2995 25.8966 13.9399 25.6494 14.7714V14.7714Z" fill="#1B1B1B"/>
<path d="M27.4472 15.3558C28.4958 17.9287 29.7983 20.3906 31.3353 22.705C32.7737 24.8626 34.4818 26.8853 36.7292 28.2338C37.9529 28.9941 39.3109 29.5128 40.7297 29.7621C40.8153 29.7857 40.9047 29.7922 40.9928 29.7813C41.0809 29.7703 41.166 29.7422 41.2432 29.6983C41.3205 29.6545 41.3883 29.5959 41.4429 29.5259C41.4974 29.4558 41.5377 29.3757 41.5613 29.2901C41.5849 29.2045 41.5914 29.1151 41.5805 29.027C41.5695 28.9389 41.5413 28.8538 41.4975 28.7766C41.4537 28.6994 41.3951 28.6315 41.325 28.577C41.255 28.5224 41.1749 28.4822 41.0893 28.4586C38.7519 28.054 36.7068 26.8404 35.0212 25.1773C33.2232 23.4018 31.8522 21.1768 30.6386 18.9742C29.9252 17.6864 29.2874 16.3581 28.7282 14.9962C28.6774 14.8254 28.5625 14.6808 28.4075 14.5928C28.2525 14.5049 28.0694 14.4803 27.8967 14.5243C27.6045 14.6142 27.3123 15.0187 27.4472 15.3558V15.3558Z" fill="#1B1B1B"/>
<path d="M35.7406 18.5023C37.0599 22.5027 39.1865 26.1898 41.9885 29.3351C42.7715 30.2123 43.6013 31.0465 44.4742 31.8342C44.6024 31.9537 44.771 32.0201 44.9462 32.0201C45.1214 32.0201 45.29 31.9537 45.4182 31.8342C45.4821 31.7734 45.533 31.7001 45.5677 31.619C45.6025 31.5379 45.6204 31.4505 45.6204 31.3623C45.6204 31.274 45.6025 31.1867 45.5677 31.1055C45.533 31.0244 45.4821 30.9512 45.4182 30.8903C42.3908 28.2125 39.9498 24.9375 38.2487 21.2711C37.7747 20.2582 37.3692 19.2145 37.0351 18.1472C36.9843 17.9763 36.8693 17.8318 36.7143 17.7438C36.5593 17.6558 36.3763 17.6312 36.2035 17.6752C36.1178 17.6986 36.0376 17.7387 35.9674 17.7932C35.8972 17.8477 35.8385 17.9156 35.7946 17.9928C35.7508 18.0701 35.7226 18.1553 35.7118 18.2435C35.701 18.3317 35.7077 18.4212 35.7316 18.5068L35.7406 18.5023Z" fill="#1B1B1B"/>
<path d="M20.0307 17.9179C19.289 19.8283 18.4575 21.6937 17.5585 23.5366C16.7075 25.3291 15.739 27.0634 14.6592 28.7282C14.1519 29.5347 13.4869 30.2304 12.7039 30.7734C12.6272 30.8177 12.5599 30.8766 12.506 30.9469C12.452 31.0172 12.4125 31.0974 12.3895 31.183C12.3665 31.2685 12.3607 31.3578 12.3722 31.4456C12.3837 31.5334 12.4125 31.6181 12.4567 31.6949C12.501 31.7716 12.56 31.8389 12.6302 31.8928C12.7005 31.9468 12.7807 31.9864 12.8663 32.0093C12.9518 32.0323 13.0411 32.0382 13.1289 32.0266C13.2167 32.0151 13.3015 31.9864 13.3782 31.9421C15.0188 30.8408 16.0302 29.1328 16.9966 27.4472C18.0454 25.5818 19.0118 23.6714 19.8958 21.7161C20.4128 20.5924 20.8847 19.4462 21.3342 18.2775C21.3782 18.1048 21.3536 17.9217 21.2656 17.7667C21.1777 17.6117 21.0331 17.4967 20.8623 17.4459C20.6898 17.407 20.5089 17.4337 20.3552 17.521C20.2014 17.6083 20.0857 17.7498 20.0307 17.9179V17.9179Z" fill="#1B1B1B"/>
<path d="M26.9979 14.8838C26.9381 15.8809 26.9681 16.8813 27.0878 17.873C27.2002 18.8619 27.335 19.8732 27.5373 20.8396C27.8969 22.5926 28.4812 24.3457 29.4701 25.8515C30.0059 26.6678 30.6656 27.3957 31.4254 28.009C31.5538 28.128 31.7224 28.1941 31.8974 28.1941C32.0724 28.1941 32.241 28.128 32.3694 28.009C32.5941 27.7618 32.6615 27.2899 32.3694 27.0651C29.6724 24.9075 28.8408 21.4015 28.4588 18.1202C28.3018 17.049 28.2566 15.9644 28.3239 14.8838C28.3239 14.705 28.2529 14.5335 28.1264 14.4071C28 14.2806 27.8285 14.2096 27.6497 14.2096C27.4759 14.2187 27.312 14.2933 27.191 14.4184C27.0701 14.5435 27.0011 14.7098 26.9979 14.8838V14.8838Z" fill="#1B1B1B"/>
<path d="M14.6141 21.0464C13.6927 23.9006 13.6702 26.9797 12.569 29.789C12.0071 31.2274 11.3104 32.5759 10.6361 33.9468C9.93942 35.3627 9.2427 36.7562 9.0629 38.3519C8.88311 40.0599 9.26518 41.813 9.78209 43.4311C9.8077 43.5173 9.85029 43.5976 9.90736 43.6671C9.96443 43.7366 10.0348 43.7939 10.1144 43.8358C10.194 43.8777 10.2811 43.9033 10.3707 43.9109C10.4603 43.9186 10.5506 43.9083 10.6361 43.8806C10.8002 43.8286 10.9381 43.7158 11.0216 43.5654C11.1052 43.415 11.1281 43.2383 11.0856 43.0715C10.6361 41.6781 10.299 40.2622 10.3664 38.7789C10.4339 37.2956 11.1081 36.0145 11.7374 34.711C12.4116 33.3175 13.1083 31.9466 13.6927 30.5082C14.2256 29.1434 14.6172 27.7276 14.8614 26.283C15.1535 24.6423 15.4008 22.9792 15.8952 21.3835C15.9218 21.2979 15.9312 21.2079 15.923 21.1187C15.9148 21.0294 15.8891 20.9427 15.8473 20.8634C15.8056 20.7841 15.7486 20.7138 15.6797 20.6565C15.6108 20.5992 15.5313 20.556 15.4457 20.5294C15.3601 20.5029 15.2701 20.4934 15.1809 20.5017C15.0917 20.5099 15.0049 20.5356 14.9256 20.5773C14.8463 20.6191 14.776 20.676 14.7187 20.7449C14.6614 20.8138 14.6182 20.8933 14.5917 20.9789C14.6038 20.9996 14.6114 21.0226 14.6141 21.0464V21.0464Z" fill="#1B1B1B"/>
<path d="M42.0784 21.4015C42.9774 24.2333 43.0224 27.2674 44.0787 30.0318C44.6406 31.4702 45.3148 32.8411 46.0115 34.2345C46.6408 35.5156 47.3825 36.8191 47.5847 38.235C47.8095 39.8757 47.4274 41.5163 46.9105 43.0671C46.8698 43.2399 46.8989 43.4218 46.9915 43.5732C47.084 43.7247 47.2326 43.8336 47.4049 43.8762C47.5717 43.9187 47.7484 43.8958 47.8988 43.8122C48.0492 43.7286 48.162 43.5907 48.214 43.4267C48.7255 41.9835 48.984 40.4629 48.9782 38.9318C48.9534 38.1687 48.8249 37.4126 48.5961 36.6843C48.3237 35.94 48.0085 35.2122 47.6522 34.5042C46.9779 33.1108 46.2587 31.7174 45.6519 30.279C45.1014 28.9107 44.702 27.4863 44.4608 26.0313C44.1461 24.3682 43.9214 22.6601 43.4044 21.0419C43.3501 20.8737 43.2332 20.7329 43.0778 20.6486C42.9224 20.5644 42.7406 20.5432 42.57 20.5895C42.3994 20.6357 42.2532 20.7459 42.1617 20.8971C42.0701 21.0483 42.0403 21.2289 42.0784 21.4015V21.4015Z" fill="#1B1B1B"/>
<path d="M8.83764 45.7865C10.2535 47.7193 11.602 50.1691 11.2874 52.6413C10.9952 54.7539 9.28713 56.5519 7.42173 57.4734C6.33908 58.001 5.14125 58.2483 3.93816 58.1925C3.75934 58.1925 3.58784 58.2636 3.4614 58.39C3.33495 58.5165 3.26392 58.688 3.26392 58.8668C3.26392 59.0456 3.33495 59.2171 3.4614 59.3435C3.58784 59.47 3.75934 59.541 3.93816 59.541C5.19761 59.5827 6.45135 59.3535 7.61456 58.8688C8.77778 58.3842 9.82334 57.6554 10.6806 56.7317C11.579 55.806 12.215 54.658 12.5235 53.4054C12.7984 52.0902 12.7208 50.7256 12.2987 49.4499C11.788 47.8881 11.0209 46.4222 10.0288 45.1123C9.93584 44.9612 9.78858 44.8514 9.61723 44.8054C9.44588 44.7594 9.26344 44.7808 9.10733 44.8651C9.02867 44.9074 8.9592 44.9649 8.90297 45.0344C8.84674 45.1038 8.80486 45.1837 8.77977 45.2694C8.75467 45.3551 8.74687 45.445 8.7568 45.5338C8.76674 45.6225 8.79421 45.7085 8.83764 45.7865V45.7865Z" fill="#1B1B1B"/>
<path d="M21.8507 56.2597C17.5581 57.9931 12.9469 58.7973 8.32096 58.6196C7.00222 58.575 5.6881 58.4398 4.38789 58.215C4.21503 58.1674 4.03031 58.1903 3.87436 58.2788C3.71842 58.3673 3.60401 58.5142 3.55633 58.687C3.50864 58.8599 3.53158 59.0446 3.62009 59.2005C3.7086 59.3565 3.85544 59.4709 4.0283 59.5186C8.81725 60.3226 13.7233 60.085 18.4121 58.8219C19.7 58.4625 20.9678 58.0349 22.2103 57.5408C22.3812 57.49 22.5257 57.375 22.6137 57.22C22.7017 57.065 22.7262 56.882 22.6823 56.7092C22.5924 56.4171 22.1878 56.1249 21.8507 56.2597V56.2597Z" fill="#1B1B1B"/>
<path d="M29.8517 1.44402C28.8396 0.903566 27.7688 0.481266 26.6603 0.185437C25.5122 -0.0618123 24.3247 -0.0618123 23.1767 0.185437C21.05 0.62654 19.0085 1.40824 17.131 2.50033C15.2656 3.64654 13.6474 5.26471 12.209 6.92784C10.7488 8.6766 9.45464 10.5576 8.3434 12.5465C5.89366 16.7717 4.14064 21.3566 1.89317 25.6942C1.62231 26.2365 1.3968 26.8003 1.21893 27.3798C1.01718 27.9302 0.85201 28.4933 0.724488 29.0654C0.477756 30.2476 0.364673 31.4538 0.387368 32.6613C0.384028 35.0177 0.99605 37.3341 2.16287 39.3813C4.27549 43.0222 7.91638 45.5393 11.7371 47.1126C12.1866 47.2924 12.6585 47.4722 13.1305 47.652C13.2161 47.6756 13.3055 47.6821 13.3936 47.6711C13.4817 47.6602 13.5668 47.632 13.644 47.5882C13.7213 47.5444 13.7891 47.4858 13.8437 47.4157C13.8982 47.3457 13.9385 47.2656 13.9621 47.18C13.9857 47.0944 13.9922 47.005 13.9813 46.9169C13.9703 46.8288 13.9421 46.7437 13.8983 46.6665C13.8545 46.5892 13.7959 46.5214 13.7258 46.4668C13.6558 46.4123 13.5757 46.372 13.4901 46.3484C9.89416 45.0898 6.34316 42.9772 4.07321 39.8532C2.80991 38.1816 2.01546 36.2033 1.77181 34.1222C1.52534 31.8811 1.7944 29.6134 2.55842 27.4922C2.96778 26.471 3.43296 25.4731 3.95185 24.503C4.46877 23.4467 4.96321 22.3904 5.43518 21.3116C6.42407 19.1541 7.41295 17.019 8.51421 14.9288C10.5594 11.0857 13.0091 7.35486 16.4253 4.59047C17.9874 3.379 19.7684 2.48008 21.6709 1.94296C22.6598 1.65079 23.6936 1.33614 24.7274 1.31367C25.7461 1.3241 26.7532 1.5301 27.6941 1.92048C28.1885 2.12275 28.638 2.3475 29.11 2.59472C29.2661 2.67901 29.4486 2.70036 29.6199 2.65439C29.7913 2.60841 29.9385 2.49861 30.0315 2.3475C30.0858 2.27919 30.1246 2.19984 30.1451 2.115C30.1656 2.03016 30.1674 1.94186 30.1503 1.85627C30.1331 1.77068 30.0976 1.68985 30.046 1.61942C29.9944 1.549 29.9281 1.49067 29.8517 1.44851V1.44402Z" fill="#1B1B1B"/>
<path d="M47.9665 45.1123C46.3483 47.3373 44.9773 50.1017 45.3819 52.911C45.7415 55.4057 47.6743 57.5633 49.8768 58.642C51.1616 59.2964 52.5943 59.6062 54.0346 59.541C54.212 59.5365 54.3809 59.464 54.5064 59.3385C54.6318 59.213 54.7043 59.0442 54.7089 58.8668C54.7089 58.688 54.6378 58.5165 54.5114 58.39C54.3849 58.2636 54.2135 58.1926 54.0346 58.1926C52.9524 58.2397 51.8731 58.0465 50.8744 57.6268C49.8757 57.2071 48.9824 56.5714 48.2586 55.7653C47.5081 54.9821 46.9778 54.0145 46.7214 52.9604C46.4966 51.8592 46.6764 50.6905 47.0135 49.6117C47.5086 48.2353 48.2054 46.9401 49.0812 45.7686C49.1255 45.6918 49.1543 45.6071 49.1659 45.5193C49.1774 45.4314 49.1716 45.3422 49.1486 45.2566C49.1256 45.171 49.086 45.0908 49.032 45.0205C48.9781 44.9503 48.9108 44.8913 48.834 44.8471C48.6808 44.7732 48.5054 44.76 48.3428 44.81C48.1803 44.86 48.0426 44.9696 47.9575 45.1168L47.9665 45.1123Z" fill="#1B1B1B"/>
<path d="M35.7852 57.5633C40.2189 59.3571 44.9862 60.1772 49.7645 59.9681C51.1727 59.8973 52.5758 59.7473 53.9672 59.5186C54.0529 59.4952 54.1332 59.4551 54.2034 59.4006C54.2735 59.3461 54.3322 59.2782 54.3761 59.2009C54.42 59.1237 54.4481 59.0385 54.4589 58.9503C54.4698 58.8621 54.463 58.7726 54.4392 58.687C54.3884 58.5162 54.2734 58.3716 54.1184 58.2837C53.9634 58.1957 53.7804 58.1711 53.6076 58.2151C47.7159 59.1863 41.6701 58.5016 36.1448 56.2373C35.8077 56.1024 35.4031 56.3946 35.3132 56.7093C35.2662 56.885 35.2891 57.0722 35.3771 57.2314C35.4651 57.3907 35.6114 57.5096 35.7852 57.5633V57.5633Z" fill="#1B1B1B"/>
<path d="M28.8178 2.61721C29.7407 2.12138 30.7223 1.74383 31.7395 1.49348C32.7434 1.29079 33.7798 1.31382 34.7736 1.5609C36.7589 1.99093 38.6581 2.75061 40.3923 3.80837C42.1453 4.9321 43.6286 6.48285 44.9771 8.05608C46.3706 9.69673 47.5168 11.5397 48.5955 13.4051C50.9554 17.4954 52.6635 21.9005 54.7986 26.0808C55.7861 28.07 56.2868 30.2654 56.2594 32.4861C56.2963 34.6355 55.7528 36.7552 54.6862 38.6216C52.7534 41.9704 49.3597 44.3527 45.8536 45.8135C45.4041 45.9933 44.9546 46.1731 44.5052 46.3305C44.3343 46.3813 44.1897 46.4962 44.1018 46.6512C44.0138 46.8062 43.9892 46.9893 44.0332 47.162C44.0566 47.2477 44.0967 47.328 44.1512 47.3982C44.2057 47.4683 44.2736 47.527 44.3508 47.5709C44.4281 47.6148 44.5133 47.6429 44.6015 47.6537C44.6897 47.6646 44.7792 47.6579 44.8647 47.634C48.7978 46.263 52.5286 43.9931 55.0233 40.5994C56.3727 38.7734 57.2246 36.6282 57.4955 34.3739C57.7921 32.0032 57.5383 29.5961 56.7539 27.3394C56.5718 26.7759 56.3464 26.2273 56.0796 25.6987C55.7874 25.1368 55.5177 24.5974 55.248 24.0356C54.7087 22.9568 54.2142 21.8555 53.6973 20.7543C52.6859 18.5518 51.6746 16.3268 50.5284 14.1917C49.4527 12.1252 48.2126 10.1485 46.82 8.28083C45.4553 6.44434 43.8531 4.79684 42.0554 3.38135C40.3509 2.11737 38.4279 1.1787 36.3828 0.61247C35.2591 0.297824 34.1129 -0.0168215 32.9442 0.00565314C31.8372 0.0410231 30.7468 0.285024 29.7303 0.724843C29.1909 0.94959 28.6515 1.19681 28.1121 1.46651C28.0282 1.50216 27.9523 1.55448 27.8892 1.6203C27.826 1.68612 27.7769 1.76407 27.7447 1.84943C27.7125 1.9348 27.698 2.0258 27.7021 2.11693C27.7061 2.20806 27.7286 2.29742 27.7682 2.37961C27.8077 2.4618 27.8636 2.5351 27.9323 2.59508C28.001 2.65506 28.0812 2.70048 28.168 2.72857C28.2548 2.75667 28.3464 2.76686 28.4372 2.75854C28.528 2.75021 28.6162 2.72354 28.6965 2.68014C28.7285 2.64963 28.7669 2.6266 28.8088 2.61272L28.8178 2.61721Z" fill="#1B1B1B"/>
<path d="M11.8852 41.9659C10.5367 42.258 8.89608 41.8086 8.15442 40.5724C7.68245 39.7634 7.61503 38.752 7.59255 37.853C7.5276 36.8979 7.63416 35.9388 7.9072 35.0212C8.06452 34.5717 8.33422 34.2121 8.82866 34.2346C9.3231 34.2571 9.7726 34.6167 10.1547 34.9313C10.4918 35.201 10.9638 34.729 10.6266 34.4593C9.86249 33.83 8.73876 33.1333 7.8173 33.9199C7.48046 34.2569 7.25328 34.6878 7.16553 35.156C7.01574 35.7365 6.93279 36.3322 6.91831 36.9315C6.89587 37.5168 6.91841 38.1028 6.98573 38.6846C7.03074 39.2505 7.14393 39.8089 7.32285 40.3477C7.64932 41.2005 8.29386 41.8933 9.12083 42.2805C10.0499 42.7291 11.1036 42.8495 12.11 42.6221C12.501 42.5277 12.3212 41.876 11.8852 41.9659Z" fill="#FFF3E8"/>
<path d="M13.9398 39.2914L13.8499 38.5497C13.719 38.0833 13.4715 37.6579 13.1307 37.3136L12.5689 36.8641C12.3342 36.7208 12.0752 36.6217 11.8047 36.5719C11.7127 36.5488 11.6225 36.5187 11.535 36.482C11.2636 36.4101 10.9843 36.3723 10.7035 36.3696C10.3141 36.3683 9.92848 36.4452 9.56942 36.5957C9.21037 36.7463 8.88523 36.9675 8.61333 37.2462L8.16383 37.808C7.9654 38.1184 7.84937 38.4742 7.82671 38.8419C7.75926 39.0845 7.75926 39.3409 7.82671 39.5835C7.84261 39.9525 7.9592 40.31 8.16383 40.6174C8.22572 40.731 8.30119 40.8366 8.38858 40.932C8.4507 41.0386 8.52623 41.1368 8.61333 41.2242C8.69753 41.3126 8.78763 41.3952 8.88302 41.4714L8.95045 41.5388C9.49469 42.0348 10.193 42.3285 10.9282 42.3704L11.6699 42.258C12.1363 42.1271 12.5617 41.8796 12.906 41.5388L13.2206 41.1343C13.6468 40.6101 13.8983 39.9657 13.9398 39.2914V39.2914Z" fill="#FFF3E8"/>
<path d="M15.3555 38.7295C14.9734 37.5833 13.9171 36.6169 12.6361 36.6618C12.5679 36.6582 12.4995 36.6658 12.4338 36.6843C12.3919 36.3289 12.3011 35.981 12.1641 35.6505C11.7596 34.6841 11.0179 34.0997 10.029 33.7626C8.63558 33.2906 6.90503 34.302 6.56791 35.7179C6.38493 36.4678 6.50613 37.2596 6.90503 37.9204C6.91651 38.395 6.96158 38.8681 7.03988 39.3363C7.26085 40.162 7.74149 40.8948 8.41083 41.4265C9.20155 42.1468 10.2191 42.5681 11.2876 42.6176C12.3214 42.6401 13.1305 42.303 14.052 41.8984C15.1308 41.4265 15.6926 39.8083 15.3555 38.7295Z" fill="#FFF3E8"/>
<path d="M51.4947 36.0775C51.3823 34.6841 50.2811 33.1109 48.6854 33.2682C47.719 33.3581 46.9998 33.6727 46.393 34.3694C46.4829 34.2346 46.2806 34.4369 46.0783 34.5268C45.0445 34.9987 44.55 36.3247 44.7298 37.4709C43.8084 37.9654 43.1116 39.0442 43.1566 40.0331C43.224 41.7187 44.3927 42.6401 45.9659 42.8424C47.7864 43.0671 49.5619 42.4154 50.5058 40.7522C50.8879 40.078 51.0227 39.3588 51.1576 38.6171C51.2924 37.8081 51.5621 36.9091 51.4947 36.0775Z" fill="#FFF3E8"/>
<path d="M10.8381 33.1333C9.73689 32.549 8.34346 31.9871 7.17477 32.7737C6.00609 33.5603 5.80382 35.2684 5.78134 36.527C5.73639 38.9543 6.34321 41.6737 8.4783 43.1346C9.55709 43.8537 10.9505 44.1459 12.1866 43.7414C12.3575 43.6906 12.502 43.5756 12.59 43.4206C12.678 43.2656 12.7026 43.0825 12.6586 42.9098C12.6352 42.8241 12.5951 42.7438 12.5406 42.6737C12.4861 42.6035 12.4182 42.5448 12.3409 42.5009C12.2637 42.4571 12.1785 42.4289 12.0903 42.4181C12.0021 42.4073 11.9126 42.414 11.827 42.4378V42.4378C11.4369 42.5619 11.025 42.602 10.6182 42.5555C10.2115 42.509 9.81925 42.377 9.46719 42.1681C8.68266 41.7076 8.06781 41.0061 7.71417 40.1679C7.35277 39.2818 7.15479 38.3376 7.12982 37.381C7.08487 36.3697 7.10735 35.2459 7.57932 34.3245C8.11871 33.2906 9.33234 33.875 10.1639 34.302C10.2415 34.3448 10.327 34.3713 10.4153 34.3797C10.5035 34.3881 10.5925 34.3783 10.6768 34.3509C10.7611 34.3235 10.8388 34.2791 10.9052 34.2204C10.9716 34.1618 11.0253 34.0901 11.0629 34.0098C11.1408 33.8619 11.1609 33.6903 11.1194 33.5283C11.0779 33.3663 10.9776 33.2255 10.8381 33.1333V33.1333Z" fill="#1B1B1B"/>
<path d="M47.8313 34.3065C48.2571 34.0507 48.7194 33.8612 49.2022 33.7446C49.3852 33.7016 49.5761 33.7059 49.7569 33.757C49.9378 33.8081 50.1027 33.9044 50.2361 34.0368C50.5507 34.3964 50.6631 34.9133 50.753 35.3628C50.8463 35.8968 50.8839 36.4391 50.8654 36.981C50.8429 38.7789 50.4159 40.8916 48.8427 41.9703C48.0111 42.5322 47.0896 42.7569 46.1682 42.4423C45.9953 42.3946 45.8106 42.4176 45.6546 42.5061C45.4987 42.5946 45.3843 42.7414 45.3366 42.9143C45.2889 43.0871 45.3119 43.2719 45.4004 43.4278C45.4889 43.5837 45.6357 43.6981 45.8086 43.7458C46.3633 43.9136 46.9465 43.9663 47.5224 43.9006C48.0982 43.8349 48.6546 43.6522 49.1573 43.3638C50.2056 42.7761 51.0222 41.8486 51.4722 40.7342C51.9454 39.5708 52.1896 38.3269 52.1914 37.0709C52.2139 35.7898 52.1015 34.1716 51.18 33.1603C50.9413 32.904 50.6469 32.7059 50.3197 32.5812C49.9924 32.4566 49.6409 32.4086 49.2921 32.4411C48.5055 32.486 47.8088 32.8231 47.1121 33.1827C47.0377 33.2294 46.9733 33.2904 46.9227 33.3622C46.8721 33.434 46.8364 33.5152 46.8175 33.601C46.7987 33.6868 46.7971 33.7755 46.813 33.8619C46.8288 33.9483 46.8618 34.0307 46.9098 34.1042C47.0184 34.2365 47.1683 34.3284 47.3355 34.3651C47.5027 34.4018 47.6773 34.3811 47.8313 34.3065V34.3065Z" fill="#1B1B1B"/>
<path d="M11.0631 33.0434C10.8749 33.7226 10.8317 34.4337 10.9362 35.1307C11.0408 35.8276 11.2907 36.4948 11.6699 37.0888C11.7055 37.1728 11.7579 37.2487 11.8237 37.3118C11.8895 37.375 11.9674 37.4241 12.0528 37.4563C12.1382 37.4884 12.2292 37.5029 12.3203 37.4989C12.4114 37.4949 12.5008 37.4724 12.583 37.4328C12.6652 37.3932 12.7385 37.3374 12.7985 37.2687C12.8584 37.1999 12.9038 37.1198 12.9319 37.033C12.96 36.9462 12.9702 36.8546 12.9619 36.7638C12.9536 36.6729 12.9269 36.5847 12.8835 36.5045C12.861 36.482 12.861 36.4596 12.8386 36.4146L12.6363 36.0775C12.6018 36.0199 12.5718 35.9598 12.5464 35.8977C12.5464 35.8752 12.434 35.6505 12.5014 35.8078C12.3926 35.5487 12.3171 35.2768 12.2767 34.9987C12.2767 34.9537 12.2542 34.9313 12.2542 34.8863V34.9088C12.2542 34.8414 12.2317 34.7739 12.2317 34.684V34.2346C12.227 34.1515 12.2346 34.0682 12.2542 33.9873C12.2542 33.9649 12.2767 33.7851 12.2542 33.8974C12.2809 33.7156 12.3184 33.5354 12.3666 33.358C12.3902 33.2725 12.3967 33.1831 12.3858 33.0949C12.3748 33.0068 12.3467 32.9217 12.3028 32.8445C12.259 32.7673 12.2004 32.6995 12.1304 32.6449C12.0603 32.5903 11.9802 32.5501 11.8946 32.5265C11.809 32.5029 11.7196 32.4963 11.6315 32.5073C11.5434 32.5182 11.4583 32.5464 11.3811 32.5902C11.3039 32.6341 11.236 32.6927 11.1815 32.7627C11.1269 32.8328 11.0867 32.9129 11.0631 32.9984V33.0434Z" fill="#1B1B1B"/>
<path d="M45.5166 33.4075C45.5615 33.5648 45.584 33.7446 45.6289 33.9019V33.8794C45.6254 33.9256 45.6331 33.9718 45.6514 34.0143C45.6514 34.1042 45.6739 34.1941 45.6739 34.2615V34.711C45.6775 34.7718 45.6699 34.8328 45.6514 34.8908V34.8908L45.6289 35.0032C45.5856 35.2807 45.5102 35.5522 45.4042 35.8123C45.4716 35.6549 45.3817 35.8797 45.3593 35.9022L45.2918 36.037C45.2303 36.1647 45.1549 36.2853 45.0671 36.3966C45.0228 36.4733 44.9941 36.5581 44.9825 36.6459C44.971 36.7337 44.9769 36.823 44.9999 36.9085C45.0228 36.9941 45.0624 37.0743 45.1163 37.1446C45.1703 37.2148 45.2376 37.2738 45.3143 37.3181C45.391 37.3623 45.4757 37.3911 45.5636 37.4026C45.6514 37.4141 45.7407 37.4083 45.8262 37.3853C45.9118 37.3623 45.992 37.3228 46.0623 37.2688C46.1325 37.2149 46.1915 37.1476 46.2358 37.0708C46.6149 36.4768 46.8649 35.8096 46.9694 35.1127C47.074 34.4157 47.0308 33.7046 46.8426 33.0254C46.7867 32.8686 46.6747 32.738 46.5282 32.6587C46.3818 32.5795 46.2112 32.5573 46.0493 32.5964C45.8874 32.6355 45.7457 32.7331 45.6515 32.8704C45.5573 33.0077 45.5173 33.175 45.539 33.3401C45.527 33.3607 45.5193 33.3837 45.5166 33.4075V33.4075Z" fill="#1B1B1B"/>
<path d="M44.64 42.7076C44.5309 45.5159 43.5136 48.2131 41.7407 50.3939C39.8753 52.6863 37.2683 54.3494 34.5264 55.3608C32.6835 56.035 30.7282 56.4396 28.7953 56.8217C28.7096 56.845 28.6294 56.8851 28.5592 56.9397C28.489 56.9942 28.4303 57.062 28.3864 57.1393C28.3426 57.2166 28.3144 57.3018 28.3036 57.39C28.2928 57.4782 28.2995 57.5676 28.3234 57.6532V57.6532C28.3742 57.8241 28.4891 57.9686 28.6441 58.0566C28.7991 58.1446 28.9822 58.1692 29.1549 58.1252C30.9518 57.808 32.7242 57.3649 34.459 56.7992C36.0434 56.2654 37.5537 55.5329 38.9539 54.6191C41.516 52.956 43.6286 50.6636 44.8423 47.8093C45.535 46.1937 45.9236 44.4642 45.9885 42.7076C46.0109 41.831 44.6625 41.831 44.64 42.7076V42.7076Z" fill="#1B1B1B"/>
<path d="M12.0067 42.7076C12.1305 45.7979 13.2411 48.7674 15.1757 51.1805C17.1534 53.6977 19.9853 55.4732 22.9519 56.5969C24.8398 57.3161 26.8625 57.7431 28.8628 58.1252C28.9483 58.1488 29.0377 58.1553 29.1259 58.1444C29.214 58.1334 29.2991 58.1052 29.3763 58.0614C29.4535 58.0176 29.5213 57.959 29.5759 57.889C29.6305 57.8189 29.6707 57.7388 29.6943 57.6532C29.7179 57.5676 29.7244 57.4782 29.7135 57.3901C29.7026 57.302 29.6744 57.2169 29.6306 57.1397C29.5867 57.0625 29.5281 56.9946 29.4581 56.9401C29.388 56.8855 29.3079 56.8453 29.2223 56.8216V56.8216C27.473 56.5088 25.7462 56.0809 24.0532 55.5406C22.5755 55.0487 21.164 54.3769 19.8504 53.5403C17.4483 52.0545 15.5522 49.8763 14.4115 47.2924C13.7776 45.8441 13.4266 44.2878 13.3777 42.7076C13.3328 41.831 11.9843 41.831 12.0067 42.7076V42.7076Z" fill="#1B1B1B"/>
<path d="M24.053 45.8989C24.053 45.8989 24.7497 52.2367 29.0648 52.2367C33.38 52.2367 33.807 45.8989 33.807 45.8989" fill="#DF2B00"/>
<path d="M23.7158 45.8989C23.8079 46.6789 23.9812 47.4472 24.2327 48.1913C24.6822 49.5622 25.4014 50.9107 26.5925 51.7648C27.2401 52.2275 28.0041 52.5001 28.7983 52.5517C29.5926 52.6034 30.3855 52.432 31.0875 52.0569C32.3461 51.3378 33.1102 50.0117 33.5822 48.6633C33.8989 47.7719 34.0955 46.8422 34.1665 45.8989C34.189 45.4719 33.5147 45.4719 33.4923 45.8989C33.4959 45.9597 33.4883 46.0206 33.4698 46.0787C33.4698 46.1461 33.4473 46.191 33.4473 46.2585C33.4473 46.2809 33.4248 46.4158 33.4473 46.3259C33.4473 46.3708 33.4248 46.4158 33.4248 46.4607C33.3546 46.9545 33.2495 47.4427 33.1102 47.9216C32.7731 49.1352 32.2112 50.3713 31.2223 51.1804C30.6651 51.6054 29.9954 51.8574 29.2962 51.9054C28.5971 51.9533 27.8993 51.795 27.2892 51.4501C26.143 50.7984 25.4463 49.5623 24.9968 48.3486C24.7878 47.7853 24.6225 47.2068 24.5024 46.6181C24.4574 46.4383 24.435 46.236 24.39 46.0562C24.3909 46.0247 24.3832 45.9936 24.3675 45.9663C24.3451 45.8539 24.3675 46.0337 24.3675 45.9663V45.9214C24.3451 45.4719 23.6708 45.4719 23.7158 45.8989V45.8989Z" fill="#1B1B1B"/>
<path d="M24.0527 46.236H33.8292C33.9186 46.236 34.0043 46.2005 34.0676 46.1373C34.1308 46.074 34.1663 45.9883 34.1663 45.8989C34.1663 45.8095 34.1308 45.7237 34.0676 45.6605C34.0043 45.5973 33.9186 45.5618 33.8292 45.5618H24.0527C23.9633 45.5618 23.8775 45.5973 23.8143 45.6605C23.7511 45.7237 23.7156 45.8095 23.7156 45.8989C23.7156 45.9883 23.7511 46.074 23.8143 46.1373C23.8775 46.2005 23.9633 46.236 24.0527 46.236V46.236Z" fill="#1B1B1B"/>
<path d="M24.3226 29.8295C22.21 29.0654 20.1198 28.3013 18.0072 27.5371C17.6027 27.3798 17.4229 28.0316 17.8274 28.1889C19.94 28.953 22.0302 29.7172 24.1428 30.4813C24.5473 30.6162 24.7271 29.9644 24.3226 29.8295Z" fill="#1B1B1B"/>
<path d="M33.7396 30.4858C35.8522 29.7216 37.9424 28.9575 40.055 28.1933C40.4595 28.036 40.2797 27.3843 39.8752 27.5416C37.7626 28.3057 35.6724 29.0699 33.5598 29.834C33.1553 29.9688 33.3351 30.6206 33.7396 30.4858Z" fill="#1B1B1B"/>
<path d="M24.3457 35.2684C22.0083 34.4144 19.671 33.5603 17.3336 32.7288C17.248 32.7049 17.1585 32.6982 17.0703 32.709C16.9822 32.7198 16.897 32.748 16.8197 32.7918C16.7424 32.8357 16.6746 32.8944 16.6201 32.9646C16.5655 33.0347 16.5254 33.115 16.502 33.2007C16.4581 33.3735 16.4826 33.5565 16.5706 33.7115C16.6586 33.8665 16.8032 33.9815 16.974 34.0323C19.3114 34.8863 21.6487 35.7404 23.9861 36.5719C24.159 36.6196 24.3437 36.5967 24.4996 36.5082C24.6556 36.4197 24.77 36.2728 24.8177 36.1C24.8654 35.9271 24.8424 35.7424 24.7539 35.5864C24.6654 35.4305 24.5186 35.3161 24.3457 35.2684V35.2684Z" fill="#1B1B1B"/>
<path d="M24.0984 35.3583C21.6936 36.01 19.2888 36.6393 16.884 37.2911C16.0525 37.5158 16.4121 38.8194 17.2436 38.5946C19.6484 37.9429 22.0532 37.3136 24.458 36.6618C25.2896 36.4371 24.93 35.1335 24.0984 35.3583Z" fill="#1B1B1B"/>
<path d="M33.8971 36.5719C36.2345 35.7179 38.5719 34.8639 40.9092 34.0323C41.0773 33.9773 41.2188 33.8616 41.3061 33.7078C41.3934 33.554 41.4202 33.3732 41.3812 33.2007C41.3578 33.115 41.3177 33.0347 41.2632 32.9646C41.2087 32.8944 41.1408 32.8357 41.0635 32.7918C40.9863 32.748 40.9011 32.7198 40.8129 32.709C40.7247 32.6982 40.6352 32.7049 40.5496 32.7288C38.2123 33.5828 35.8749 34.4368 33.5375 35.2684C33.3695 35.3234 33.2279 35.4391 33.1406 35.5929C33.0534 35.7466 33.0266 35.9275 33.0656 36.1C33.089 36.1857 33.1291 36.2659 33.1836 36.3361C33.2381 36.4063 33.3059 36.465 33.3832 36.5088C33.4605 36.5527 33.5457 36.5809 33.6339 36.5917C33.7221 36.6025 33.8115 36.5958 33.8971 36.5719V36.5719Z" fill="#1B1B1B"/>
<path d="M33.4251 36.6618C35.8299 37.3136 38.2346 37.9429 40.6394 38.5946C41.471 38.8194 41.8306 37.5158 40.999 37.2911C38.5942 36.6393 36.1894 36.01 33.7847 35.3583C32.9531 35.1335 32.5935 36.4371 33.4251 36.6618Z" fill="#1B1B1B"/>
<path d="M16.1867 42.2356C16.5913 41.7411 16.9958 41.2242 17.4228 40.7298C17.4538 40.6988 17.4784 40.662 17.4952 40.6215C17.5119 40.581 17.5206 40.5376 17.5206 40.4938C17.5206 40.4499 17.5119 40.4065 17.4952 40.3661C17.4784 40.3256 17.4538 40.2888 17.4228 40.2578C17.3918 40.2268 17.355 40.2022 17.3146 40.1854C17.2741 40.1687 17.2307 40.16 17.1868 40.16C17.143 40.16 17.0996 40.1687 17.0591 40.1854C17.0186 40.2022 16.9818 40.2268 16.9509 40.2578C16.5463 40.7522 16.1418 41.2691 15.7147 41.7636C15.655 41.8277 15.6218 41.912 15.6218 41.9996C15.6218 42.0872 15.655 42.1715 15.7147 42.2356C15.7452 42.2675 15.7818 42.293 15.8224 42.3103C15.8629 42.3277 15.9066 42.3367 15.9507 42.3367C15.9949 42.3367 16.0385 42.3277 16.0791 42.3103C16.1197 42.293 16.1563 42.2675 16.1867 42.2356V42.2356Z" fill="#FF7983"/>
<path d="M18.1642 42.1007C18.6586 41.5388 19.1756 40.9994 19.67 40.4376C19.7326 40.375 19.7677 40.2901 19.7677 40.2016C19.7677 40.1131 19.7326 40.0282 19.67 39.9656C19.6074 39.903 19.5225 39.8679 19.434 39.8679C19.3455 39.8679 19.2606 39.903 19.198 39.9656C18.7036 40.5275 18.1867 41.0669 17.6922 41.6287C17.6612 41.6597 17.6367 41.6965 17.6199 41.737C17.6031 41.7775 17.5945 41.8209 17.5945 41.8647C17.5945 41.9085 17.6031 41.9519 17.6199 41.9924C17.6367 42.0329 17.6612 42.0697 17.6922 42.1007C17.7232 42.1317 17.76 42.1563 17.8005 42.173C17.841 42.1898 17.8844 42.1985 17.9282 42.1985C17.972 42.1985 18.0154 42.1898 18.0559 42.173C18.0964 42.1563 18.1332 42.1317 18.1642 42.1007V42.1007Z" fill="#FF7983"/>
<path d="M38.6613 42.2356C39.0659 41.7411 39.4704 41.2242 39.8974 40.7298C39.96 40.6672 39.9952 40.5823 39.9952 40.4938C39.9952 40.4053 39.96 40.3204 39.8974 40.2578C39.8348 40.1952 39.75 40.16 39.6614 40.16C39.5729 40.16 39.4881 40.1952 39.4255 40.2578C39.0209 40.7522 38.6164 41.2691 38.1894 41.7636C38.1296 41.8277 38.0964 41.912 38.0964 41.9996C38.0964 42.0872 38.1296 42.1715 38.1894 42.2356C38.2198 42.2675 38.2564 42.293 38.297 42.3103C38.3375 42.3277 38.3812 42.3367 38.4253 42.3367C38.4695 42.3367 38.5131 42.3277 38.5537 42.3103C38.5943 42.293 38.6309 42.2675 38.6613 42.2356V42.2356Z" fill="#FF7983"/>
<path d="M40.6388 42.1007C41.1333 41.5388 41.6502 40.9994 42.1446 40.4376C42.2072 40.375 42.2424 40.2901 42.2424 40.2016C42.2424 40.1131 42.2072 40.0282 42.1446 39.9656C42.082 39.903 41.9971 39.8679 41.9086 39.8679C41.8201 39.8679 41.7352 39.903 41.6726 39.9656C41.1782 40.5275 40.6613 41.0669 40.1668 41.6287C40.1043 41.6913 40.0691 41.7762 40.0691 41.8647C40.0691 41.9532 40.1043 42.0381 40.1668 42.1007C40.2294 42.1633 40.3143 42.1985 40.4028 42.1985C40.4913 42.1985 40.5762 42.1633 40.6388 42.1007Z" fill="#FF7983"/>
<path d="M6.95323 26.72C6.25167 26.0978 5.7706 24.9956 5.51002 24C5.26949 24.9956 4.78842 26.0978 4.06682 26.72C3.36526 27.3422 2.12249 27.7867 1 28C2.12249 28.2133 3.36526 28.64 4.06682 29.28C4.76837 29.92 5.26949 31.0044 5.51002 32C5.75056 31.0044 6.23163 29.9022 6.93319 29.28C7.63474 28.6578 8.87751 28.2133 10 28C8.89755 27.7689 7.65479 27.3422 6.95323 26.72Z" fill="#FFE200"/>
</svg>
