<svg width="28" height="21" viewBox="0 0 28 21" fill="none" xmlns="http://www.w3.org/2000/svg">
<path d="M2.03264 8C3.47126 8 4.23234 7.20295 4.23234 6.16974C4.23234 5.15621 3.4991 4.75277 2.84012 4.48708C2.29252 4.28044 1.83773 4.15252 1.83773 3.81796C1.83773 3.55228 2.01407 3.41451 2.39461 3.41451C2.73802 3.41451 3.10928 3.60148 3.48982 3.88684L4.22306 2.84379C3.77755 2.4797 3.16497 2.12546 2.33892 2.12546C1.10449 2.12546 0.297006 2.84379 0.297006 3.89668C0.297006 4.83149 1.01168 5.28413 1.64281 5.54982C2.18114 5.77614 2.69162 5.93358 2.69162 6.26814C2.69162 6.54366 2.50599 6.71095 2.06976 6.71095C1.6521 6.71095 1.21587 6.5043 0.733234 6.12054L0 7.21279C0.538323 7.68512 1.34581 8 2.03264 8Z" fill="#1B1B1B"/>
<path d="M7.97986 8C8.53675 8 9.20501 7.82288 9.72477 7.34071L9.08436 6.18942C8.81519 6.41574 8.49962 6.58303 8.16549 6.58303C7.52507 6.58303 7.04244 5.99262 7.04244 5.05781C7.04244 4.13284 7.49723 3.54244 8.23046 3.54244C8.45322 3.54244 8.65741 3.631 8.89873 3.83764L9.66909 2.72571C9.26998 2.36162 8.76879 2.12546 8.12837 2.12546C6.65262 2.12546 5.35322 3.20787 5.35322 5.05781C5.35322 6.91759 6.49483 8 7.97986 8Z" fill="#1B1B1B"/>
<path d="M11.0994 7.86224H12.7515V4.66421C13.0207 3.9262 13.4941 3.66052 13.8839 3.66052C14.1159 3.66052 14.2737 3.69988 14.4686 3.74908L14.7378 2.24354C14.5893 2.17466 14.4129 2.12546 14.0973 2.12546C13.5683 2.12546 12.9836 2.48954 12.5938 3.23739H12.5659L12.4453 2.26322H11.0994V7.86224Z" fill="#1B1B1B"/>
<path d="M18.0526 8C19.3891 8 20.6329 6.91759 20.6329 5.05781C20.6329 3.20787 19.3891 2.12546 18.0526 2.12546C16.7068 2.12546 15.4631 3.20787 15.4631 5.05781C15.4631 6.91759 16.7068 8 18.0526 8ZM18.0526 6.58303C17.4308 6.58303 17.1523 5.99262 17.1523 5.05781C17.1523 4.13284 17.4308 3.54244 18.0526 3.54244C18.6652 3.54244 18.9436 4.13284 18.9436 5.05781C18.9436 5.99262 18.6652 6.58303 18.0526 6.58303Z" fill="#1B1B1B"/>
<path d="M23.6374 8C24.0087 8 24.2779 7.93112 24.4542 7.8524L24.2593 6.56335C24.1665 6.58303 24.1293 6.58303 24.0737 6.58303C23.9437 6.58303 23.7859 6.47478 23.7859 6.10086V0H22.1338V6.04182C22.1338 7.21279 22.5051 8 23.6374 8Z" fill="#1B1B1B"/>
<path d="M27.1832 8C27.5545 8 27.8237 7.93112 28 7.8524L27.8051 6.56335C27.7123 6.58303 27.6751 6.58303 27.6195 6.58303C27.4895 6.58303 27.3317 6.47478 27.3317 6.10086V0H25.6796V6.04182C25.6796 7.21279 26.0509 8 27.1832 8Z" fill="#1B1B1B"/>
<line x1="13.7075" y1="19.7125" x2="18.7685" y2="14.6515" stroke="black"/>
<line y1="-0.5" x2="7.15733" y2="-0.5" transform="matrix(-0.707107 -0.707107 -0.707107 0.707107 14.061 20.066)" stroke="black"/>
</svg>
