<svg xmlns="http://www.w3.org/2000/svg" xmlns:xlink="http://www.w3.org/1999/xlink" width="335" height="170" viewBox="0 0 335 170" preserveAspectRatio="none">
  <defs>
    <clipPath id="clip-path">
      <rect id="長方形_233" data-name="長方形 233" width="57.78" height="169.567" fill="none"/>
    </clipPath>
    <clipPath id="clip-path-3">
      <rect id="長方形_230" data-name="長方形 230" width="7.751" height="15.069" fill="none"/>
    </clipPath>
    <clipPath id="clip-path-4">
      <rect id="長方形_215" data-name="長方形 215" width="104.626" height="129.524" fill="none"/>
    </clipPath>
    <clipPath id="clip-path-6">
      <rect id="長方形_213" data-name="長方形 213" width="4.137" height="4.79" fill="none"/>
    </clipPath>
  </defs>
  <g id="グループ_443" data-name="グループ 443" transform="translate(-98 -1749)">
    <rect id="長方形_296" data-name="長方形 296" width="335" height="170" transform="translate(98 1749)" fill="#fff"/>
    <g id="グループ_438" data-name="グループ 438" transform="translate(17.122 53)">
      <g id="グループ_367" data-name="グループ 367" transform="translate(235.882 1696)">
        <g id="グループ_418" data-name="グループ 418" clip-path="url(#clip-path)">
          <g id="グループ_417" data-name="グループ 417">
            <g id="グループ_416" data-name="グループ 416" clip-path="url(#clip-path)">
              <path id="パス_2254" data-name="パス 2254" d="M37.613,111.2c-8.177-4.721-21.434-4.721-29.61,0s-8.177,12.375,0,17.1,21.434,4.721,29.61,0,8.177-12.375,0-17.1" transform="translate(0.655 37.726)" fill="#647ddd"/>
              <path id="パス_2255" data-name="パス 2255" d="M41.112,64.49c-.593.683-2.529,13.565-2.529,13.565l-9.065-4.007-15.982-4.6-4.369.366s-2.375-17.022-.76-17.058,25.114,9.4,25.114,9.4Z" transform="translate(2.748 18.486)" fill="#004080"/>
              <path id="パス_2256" data-name="パス 2256" d="M6.353,5.287a3.841,3.841,0,0,1,.45-.794A5.715,5.715,0,0,1,8.017,3.356a16.782,16.782,0,0,1,7.5-3.249c.309-.045.618-.07.926-.09A9.908,9.908,0,0,1,24.026,2.7c.077.072.149.149.219.226C27,5.961,27.513,10.366,27.152,14.27a10.169,10.169,0,0,1-1.184,4.509c-.436.689-2.694,2.818-3.685,1.976-.836-.708.186-2.027-.205-3.094a.938.938,0,0,0-.213-.4.868.868,0,0,0-.752-.089,1.218,1.218,0,0,1-.6,0c-.444-.167-.5-.759-.47-1.229.07-1.094.2-2.316-.4-3.075a.3.3,0,0,0-.072-.084,1.373,1.373,0,0,0-.321-.282,2.031,2.031,0,0,0-.643-.284c-1.21-.315-2.567.128-3.738-.379-2.015-.875-4.429-1.585-6.51-.517-1.238.636-1.477,1.723-2.358.207-.6-1.036-.251-3.329-.1-4.458a6.991,6.991,0,0,1,.451-1.784" transform="translate(1.983 0)" fill="#dceffe"/>
              <path id="パス_2257" data-name="パス 2257" d="M12.477,58.65a4.5,4.5,0,0,0,4.5-4.5V47.8a4.5,4.5,0,1,0-9,0v6.352a4.5,4.5,0,0,0,4.5,4.5" transform="translate(2.795 15.17)" fill="#ffc2b0"/>
              <path id="パス_2258" data-name="パス 2258" d="M15,59.534a4.5,4.5,0,0,0,3.3-7.564L10.04,43.06a7.458,7.458,0,0,1,1.895-9.732l5.787-4.387a4.5,4.5,0,1,0-5.441-7.175L6.494,26.153a16.484,16.484,0,0,0-3.8,22.136,4.512,4.512,0,0,0,.46.586L11.7,58.093A4.492,4.492,0,0,0,15,59.534" transform="translate(0 7.306)" fill="#c4e1ff"/>
              <path id="パス_2259" data-name="パス 2259" d="M31.058,113.7c3.535-.074,2.922,5.313,1.435,7.068-1.391,1.643-4.848,3.7-6.649,4.9-2.843,1.9-10.062,2.636-6.107-2.564,1.675-2.2,3.9-3.969,5.338-6.329a8.934,8.934,0,0,1,2.062-2.84c.956-.69,2.589-.618,3.034.473Z" transform="translate(6.511 39.766)" fill="#004080"/>
              <path id="パス_2260" data-name="パス 2260" d="M18.219,107.415a2.589,2.589,0,0,1,2.263,1.7,7.59,7.59,0,0,1,.4,2.956,3.366,3.366,0,0,1-.663,2.471,3.327,3.327,0,0,1-1.521.706,17.936,17.936,0,0,1-3.119.65c-1.2.1-2.419-.036-3.61.145-.76.115-1.494.359-2.24.535a12.772,12.772,0,0,1-6.44-.165,2.4,2.4,0,0,1-1.252-.69,1.816,1.816,0,0,1,.178-2.216,5.3,5.3,0,0,1,1.991-1.31l6.586-3.025a17.517,17.517,0,0,1,6.751-2.05c.758-.018,1.756.325,1.687,1.079Z" transform="translate(0.607 37.535)" fill="#004080"/>
              <path id="パス_2261" data-name="パス 2261" d="M13.2,112.414l.216.005a2.64,2.64,0,0,0,2.7-2.575l.109-4.455a2.641,2.641,0,0,0-2.574-2.7l-.217-.005a2.643,2.643,0,0,0-2.7,2.575l-.109,4.455a2.641,2.641,0,0,0,2.575,2.7" transform="translate(3.723 35.98)" fill="#dceffe"/>
              <path id="パス_2262" data-name="パス 2262" d="M27.461,117.828h.216a2.642,2.642,0,0,0,2.641-2.641v-4.455a2.642,2.642,0,0,0-2.641-2.641h-.216a2.642,2.642,0,0,0-2.641,2.641v4.455a2.642,2.642,0,0,0,2.641,2.641" transform="translate(8.697 37.876)" fill="#dceffe"/>
              <path id="パス_2263" data-name="パス 2263" d="M19.95,46.639l15.168,4.812,4.258,6.335L37.718,97.706v34.851a3.321,3.321,0,0,1-3.321,3.321H32.113a3.319,3.319,0,0,1-3.306-3.042l-3.5-41.613L24.157,75.457l-2.884-1.169-2.011,18.9-1.615,32.469a3.231,3.231,0,0,1-3.464,3.377l-1.608-.117a3.232,3.232,0,0,1-2.961-2.756l-.736-35.9-.643-37.41Z" transform="translate(2.885 16.343)" fill="#004080"/>
              <path id="パス_2264" data-name="パス 2264" d="M8.183,29.715l.39,18.6c-7.056,7.554-4.872,21.7,4.365,26.341l5.889,2.96a23.2,23.2,0,0,0,19.862,2.151,5.456,5.456,0,0,0,3.626-5.313L41.051,32.419a8.044,8.044,0,0,0-2.19-5.236,7.583,7.583,0,0,0-1.751-1.429l-3.352-2.113-.933-.59a29.546,29.546,0,0,0-11.863-4.132,19.367,19.367,0,0,0-2.514-.172,9.085,9.085,0,0,0-4.494.952A11.6,11.6,0,0,0,8.183,29.715" transform="translate(1.542 6.569)" fill="#dceffe"/>
              <path id="パス_2265" data-name="パス 2265" d="M26.526,78.758a23.059,23.059,0,0,0,5.256-1.18,5.456,5.456,0,0,0,3.626-5.313L34.143,30.23a8.042,8.042,0,0,0-2.189-5.237,17.358,17.358,0,0,0-2.209.362,2.171,2.171,0,0,0-.609.248,5.7,5.7,0,0,0-2.7,1.427c-1.657,1.733-1.257,4.551-.439,6.817.8,2.286,1.9,1.449,1.276,3.773-.456,1.657-1.733,3.009-2.076,4.7-.7,3.58,3.084,14.459,2.722,18.1-.209,2.076-1.714,3.751-2.666,5.6-2.019,4.019-1.2,8.932,1.276,12.74" transform="translate(8.449 8.758)" fill="#c4e1ff"/>
              <path id="パス_2266" data-name="パス 2266" d="M34.1,52.869c-1.171,2.128.123,5.173-1.477,7a3.325,3.325,0,0,1-3.7.727,4.937,4.937,0,0,1-2.61-2.91,9.89,9.89,0,0,1-.458-3.968,3.913,3.913,0,0,1,.452-1.88,3.165,3.165,0,0,1,2.259-1.291,5.783,5.783,0,0,1,5.72,2.712Z" transform="translate(9.053 17.691)" fill="#d49a8a"/>
              <path id="パス_2267" data-name="パス 2267" d="M31.909,64.644a4.491,4.491,0,0,0,3.157-1.292c.44-.433,1.5-1.33,2.617-2.281,3.064-2.6,7.26-6.158,9.583-9.156a10.166,10.166,0,0,0-.354-12.861,4.512,4.512,0,0,0-.39-.4L31.467,25.127a4.5,4.5,0,1,0-6.019,6.7L40.217,45.1a1.125,1.125,0,0,1-.068,1.3c-1.749,2.255-5.685,5.595-8.29,7.805-1.359,1.152-2.431,2.062-3.109,2.728a4.5,4.5,0,0,0,3.159,7.712" transform="translate(8.394 8.4)" fill="#dceffe"/>
              <path id="パス_2268" data-name="パス 2268" d="M17.535,26.1l-.91-.591-4.78,21.272a3.276,3.276,0,0,0,.2,1.919L15,55.536a.742.742,0,0,0,1.3.13l3.818-4.944Z" transform="translate(4.129 8.939)" fill="#4568c7"/>
              <path id="パス_2269" data-name="パス 2269" d="M14.611,23.275l.324,3.11c.315.9,1.465.94,2.205.074l2.4-2.647Z" transform="translate(5.12 8.156)" fill="#4568c7"/>
              <path id="パス_2270" data-name="パス 2270" d="M25.339,25.54a12.743,12.743,0,0,0,.7-2.37c1.487-7.957-13.164-8.379-13.164.613v1.406a.811.811,0,0,0,.894.889l3.814-.808,3.171,3.764a1.114,1.114,0,0,0,1.914.122c.8-1.07,1.733-2.34,2.672-3.615" transform="translate(4.512 5.999)" fill="#dceffe"/>
              <path id="パス_2271" data-name="パス 2271" d="M18.751,11.875c.015,0,.03.015.045.03a.8.8,0,0,0,.016-.2.231.231,0,0,1-.061.166" transform="translate(6.571 4.103)" fill="#4168c3"/>
              <path id="パス_2272" data-name="パス 2272" d="M21.8,13.837l1.772,9.055c0,.005,0-.624,0-.637,0,3.35-7.75,5.661-8.192,2.664l-.043.009-.088-.448-1.772-9.053a4.3,4.3,0,0,1,.633-3.219,4.174,4.174,0,0,1,2.155-1.66c.213-.061.446-.124.675-.169a4.559,4.559,0,0,1,1.479.019,4.258,4.258,0,0,1,1.675.752,4.385,4.385,0,0,1,1.7,2.687" transform="translate(4.694 3.619)" fill="#d49a8a"/>
              <g id="グループ_415" data-name="グループ 415" transform="translate(17.768 12.603)" style="mix-blend-mode: multiply;isolation: isolate">
                <g id="グループ_414" data-name="グループ 414">
                  <g id="グループ_413" data-name="グループ 413" clip-path="url(#clip-path-3)">
                    <path id="パス_2273" data-name="パス 2273" d="M15.643,24.4c3.418-.84,5.72-3.6,5.188-6.315l-1.58-8.075-.122-.625a8.131,8.131,0,0,0-2.536.109l-.049.008-.178.034c-.162.031-.32.08-.479.127l-.146.027A3.389,3.389,0,0,0,14.7,10.3a1.885,1.885,0,0,0-.4.366c-.055.062-.109.124-.165.185a6.108,6.108,0,0,0-.365.547,4.908,4.908,0,0,0-.516,3.375l1.522,7.781Z" transform="translate(-13.157 -9.333)" fill="#d49a8a"/>
                  </g>
                </g>
              </g>
              <path id="パス_2274" data-name="パス 2274" d="M21.47,21.573a13.307,13.307,0,0,0,1.566-4.99c.242-1.495,2.261-.868,2.266-2.4.005-1.084-1.014-2.243-1.472-3.182A6.814,6.814,0,0,0,21.57,8.239a13.483,13.483,0,0,0-4.219-1.78A33.285,33.285,0,0,0,12.3,5.476l-.47-1.612h-.84a4.449,4.449,0,0,0-4.45,4.45v10.7a2.556,2.556,0,0,0,.076.519,6.434,6.434,0,0,0,8.645,4.477Z" transform="translate(2.293 1.354)" fill="#d49a8a"/>
              <path id="パス_2275" data-name="パス 2275" d="M9.114,7.3a5.259,5.259,0,0,1,.423-2.184l.007,0c.095.036.165-.012.212-.149a.406.406,0,0,0-.188.069l.027-.068a7.021,7.021,0,0,1,.7-.12A5.815,5.815,0,0,0,14.454.1c.286-.039.573-.065.859-.082A9.9,9.9,0,0,1,22.9,2.7c.077.07.149.147.219.224,2.76,3.037,3.268,7.442,2.907,11.348a10.2,10.2,0,0,1-1.183,4.509c-.438.687-2.7,2.817-3.687,1.974-.836-.708.188-2.027-.205-3.094a.945.945,0,0,0-.212-.4.869.869,0,0,0-.752-.09,1.208,1.208,0,0,1-.6,0c-.444-.167-.5-.759-.47-1.229.072-1.094.2-2.316-.4-3.075a.279.279,0,0,0-.072-.084,1.377,1.377,0,0,0-.321-.282,2.018,2.018,0,0,0-.643-.284c-1.21-.315-2.567.128-3.737-.379a9.891,9.891,0,0,0-4.851-1.017c.089-1.175.149-2.352.228-3.526" transform="translate(3.114 0)" fill="#dceffe"/>
              <path id="パス_2276" data-name="パス 2276" d="M17.127,23.418a7.106,7.106,0,0,0,2.708-1.743,12.617,12.617,0,0,0,2.8-5.335,8.508,8.508,0,0,0,.178-1.581.916.916,0,0,0-.244-.743.689.689,0,0,0-.913.2,2.612,2.612,0,0,0-.377.96A7.5,7.5,0,0,1,19.3,18.369c-1.795.644-4.042-.227-5.456-1.325a10.825,10.825,0,0,0-3.418-2.2c-4.175-1.2-5.492,1.853-4.247,4.834a4.132,4.132,0,0,0,.89,1.246,10.044,10.044,0,0,0,10.054,2.5" transform="translate(2.009 4.875)" fill="#dceffe"/>
              <rect id="長方形_231" data-name="長方形 231" width="6.812" height="0.483" transform="matrix(0.924, -0.383, 0.383, 0.924, 18.478, 17.638)" fill="#004080"/>
              <path id="パス_2277" data-name="パス 2277" d="M16.735,12.805a.665.665,0,0,0,.5.042c.016-.043.008-.09.032-.132Z" transform="translate(5.864 4.455)" fill="#d49a8a"/>
              <path id="パス_2278" data-name="パス 2278" d="M20.133,10.856a1.82,1.82,0,0,0-1.909,1.182,5.435,5.435,0,0,1-.531,1.1,1.1,1.1,0,0,1-.57.375,1.167,1.167,0,0,0,.853,1.442,2.4,2.4,0,0,0,1.919-.569,2.933,2.933,0,0,0,1.233-1.776,1.546,1.546,0,0,0-1-1.754" transform="translate(5.98 3.791)" fill="#d49a8a"/>
              <path id="パス_2279" data-name="パス 2279" d="M9.061,11.23c.147-.5.467-.674.837-.46a2.207,2.207,0,0,1,.836,1.426l.239-.039A2.845,2.845,0,0,0,9.9,10.323c-.475-.274-.887-.047-1.075.593Z" transform="translate(3.092 3.577)" fill="#fab300"/>
              <path id="パス_2280" data-name="パス 2280" d="M9.061,11.23c.147-.5.467-.674.837-.46a2.207,2.207,0,0,1,.836,1.426l.239-.039A2.845,2.845,0,0,0,9.9,10.323c-.475-.274-.887-.047-1.075.593Z" transform="translate(3.092 3.577)" fill="#004080"/>
              <path id="パス_2281" data-name="パス 2281" d="M12.608,16.922a5.637,5.637,0,0,1-2.547-4.412,1.93,1.93,0,0,1,.831-1.78,1.935,1.935,0,0,1,1.958.169A5.641,5.641,0,0,1,15.4,15.313a1.928,1.928,0,0,1-.832,1.78,1.478,1.478,0,0,1-.752.2,2.44,2.44,0,0,1-1.2-.366m-1.475-5.774a1.482,1.482,0,0,0-.59,1.363,5.105,5.105,0,0,0,2.307,3.995,1.483,1.483,0,0,0,1.475.17,1.482,1.482,0,0,0,.59-1.363,5.105,5.105,0,0,0-2.307-3.995,1.959,1.959,0,0,0-.961-.3,1.013,1.013,0,0,0-.513.13" transform="translate(3.525 3.692)" fill="#004080"/>
              <path id="パス_2282" data-name="パス 2282" d="M7.824,14.16A5.635,5.635,0,0,1,5.277,9.749a1.93,1.93,0,0,1,.831-1.78,1.935,1.935,0,0,1,1.958.169,5.641,5.641,0,0,1,2.547,4.413,1.931,1.931,0,0,1-.832,1.78,1.464,1.464,0,0,1-.752.194,2.437,2.437,0,0,1-1.2-.365M6.349,8.386a1.482,1.482,0,0,0-.59,1.363,5.105,5.105,0,0,0,2.307,3.995,1.483,1.483,0,0,0,1.475.17,1.482,1.482,0,0,0,.59-1.363A5.1,5.1,0,0,0,7.824,8.556a1.959,1.959,0,0,0-.961-.3,1.013,1.013,0,0,0-.513.13" transform="translate(1.849 2.724)" fill="#004080"/>
              <path id="パス_2283" data-name="パス 2283" d="M16.5,9.505l-.392.026a.63.63,0,0,0,.392-.026" transform="translate(5.644 3.331)" fill="#d49a8a"/>
              <path id="パス_2284" data-name="パス 2284" d="M7.2,8.076c.026.142.155.269.122.405-1,4.116,9.63,4.053,10.594,4.451,2.644,1.106-2.843-.379,0,0l1.191-.07.128-.007a.678.678,0,0,1-.2-.077,1.021,1.021,0,0,1-.328-.289.836.836,0,0,1-.128-.244,1.829,1.829,0,0,1,.174-1.306c.964-2.085,3.415-3.2,4.316-5.314a7.061,7.061,0,0,0,.424-2.933C23.466,1.225,18.779.175,17.762.061c-3.95-.44-6.944,2.6-9.345,5.294A3.511,3.511,0,0,0,7.2,8.076" transform="translate(2.514 0.006)" fill="#d49a8a"/>
            </g>
          </g>
        </g>
      </g>
      <g id="グループ_368" data-name="グループ 368" transform="translate(195.878 1736.476)">
        <g id="グループ_379" data-name="グループ 379" clip-path="url(#clip-path-4)">
          <g id="グループ_378" data-name="グループ 378" transform="translate(0 0)">
            <g id="グループ_377" data-name="グループ 377" clip-path="url(#clip-path-4)">
              <path id="パス_2012" data-name="パス 2012" d="M28.976,26.287a3.492,3.492,0,0,0-4.94-.048,39.336,39.336,0,0,1-8.428,5.755,4.479,4.479,0,0,1-.4.2,70.153,70.153,0,0,1-4.184,7.064,11.011,11.011,0,0,0,8.065-1.211,78.026,78.026,0,0,0,9.841-6.827,3.485,3.485,0,0,0,.048-4.934" transform="translate(0.592 1.355)" fill="#ffc2b0"/>
              <path id="パス_2013" data-name="パス 2013" d="M53.069,17.325,33.443,6.082a1.743,1.743,0,0,0-1.206-.208c-.556.129-1.078.3-1.077.79l-.03,18.243,1.727,1.02c-.566.275-17.794,8.66-17.822,8.681l-.041.7a.847.847,0,0,0,.424.735c2.932,1.7,20.111,11.63,20.111,11.63a1.826,1.826,0,0,0,1.827,0l16.328-9.437a.551.551,0,0,0,.275-.477L53.987,18.9a1.824,1.824,0,0,0-.918-1.579" transform="translate(0.805 0.314)" fill="#dceffe"/>
              <path id="パス_2014" data-name="パス 2014" d="M52.116,37.689,29.82,24.967l-.046-18.2a.684.684,0,0,1,1.023-.6L51.358,17.948a1.445,1.445,0,0,1,.726,1.249Z" transform="translate(1.599 0.326)" fill="#004080"/>
              <path id="パス_2015" data-name="パス 2015" d="M31.226,23.87V8.173L50.414,19.186l.038,15.72Z" transform="translate(1.677 0.439)" fill="#577de8"/>
              <path id="パス_2016" data-name="パス 2016" d="M52.922,36.732,30.637,23.88,14.878,32.989a.683.683,0,0,0,0,1.183L35.394,46.028a1.442,1.442,0,0,0,1.444,0Z" transform="translate(0.78 1.282)" fill="#fff"/>
              <path id="パス_2017" data-name="パス 2017" d="M36.128,46.484a1.685,1.685,0,0,1-.847-.227L14.766,34.4a.932.932,0,0,1,0-1.615L30.65,23.606l.124.072L53.433,36.746,36.974,46.257a1.679,1.679,0,0,1-.846.227m-5.478-22.3L15.016,33.219a.434.434,0,0,0,0,.751L35.531,45.826a1.2,1.2,0,0,0,1.194,0l15.711-9.081Z" transform="translate(0.768 1.267)" fill="#fff"/>
              <path id="パス_2018" data-name="パス 2018" d="M34.224,38.2l-7.207-4.161a.669.669,0,0,0-.684.008L22.4,36.472a.4.4,0,0,0,.009.692l7.2,4.162a.669.669,0,0,0,.334.091.659.659,0,0,0,.35-.1l3.941-2.428a.4.4,0,0,0-.009-.692" transform="translate(1.192 1.823)" fill="#c4e1ff"/>
              <path id="パス_2019" data-name="パス 2019" d="M24.156,30.289l5.92-4.163,17.954,10.3-6.81,4.372Z" transform="translate(1.297 1.403)" fill="#c4e1ff"/>
              <path id="パス_2020" data-name="パス 2020" d="M17.315,10.7c.012,0,.022.012.034.022a.676.676,0,0,0,.011-.145.169.169,0,0,1-.044.123" transform="translate(0.93 0.568)" fill="#4168c3"/>
              <path id="パス_2021" data-name="パス 2021" d="M14.221,24.846c-2.334,0-4.163-1.312-4.163-2.987s1.829-2.986,4.163-2.986,4.163,1.312,4.163,2.986-1.829,2.987-4.163,2.987" transform="translate(0.54 1.013)" fill="#004080"/>
              <path id="パス_2022" data-name="パス 2022" d="M12.822,12.9,11.688,20.89c-.157,1.106,1.143,2,2.9,2s3.317-.9,3.474-2h.028L19.229,12.9Z" transform="translate(0.627 0.693)" fill="#ffc2b0"/>
              <path id="パス_2023" data-name="パス 2023" d="M25.172,13.671a2.356,2.356,0,0,1-2.29-2.413,2.293,2.293,0,1,1,4.579,0,2.356,2.356,0,0,1-2.29,2.413m0-4.451a1.982,1.982,0,0,0-1.915,2.038,1.919,1.919,0,1,0,3.83,0A1.982,1.982,0,0,0,25.172,9.22" transform="translate(1.229 0.475)" fill="#004080"/>
              <path id="パス_2024" data-name="パス 2024" d="M15.015,14.281c-.7-1.041-1.378,1.4-1.553.3-.181-1.143-1.694-.665-1.7-1.832,0-.829.762-1.714,1.1-2.433a5.2,5.2,0,0,1,1.7-2.116,10,10,0,0,1,3.162-1.36,24.449,24.449,0,0,1,3.785-.752l.352-1.233h3.966V16.437a2.3,2.3,0,0,1-.076.482,4.829,4.829,0,0,1-6.5,3.325Z" transform="translate(0.632 0.261)" fill="#ffc2b0"/>
              <path id="パス_2025" data-name="パス 2025" d="M28.337,4.809a2.806,2.806,0,0,1-.856,1.209C25.73,7.629,24.1,7.71,22.609,9.079a8.2,8.2,0,0,0-1.962,5.372,1.157,1.157,0,0,0-.053.2.758.758,0,0,0,.066.148,2.737,2.737,0,0,0,.592,1.557,3.687,3.687,0,0,0,2.462,1.129,3.244,3.244,0,0,0,2.409-.7c-.075.067.071,2.364-.089,2.784a3.407,3.407,0,0,1-1.876,2c-1.86.789-3.964-.165-5.468-1.308-.911-.691-1.983-2.722-3.087-2.9L13.353,17a3.142,3.142,0,0,1-2.16-.954,3.149,3.149,0,0,1-.473-1.127c-1.185-4.243-2.446-8.227.965-12.108C14.844-.763,23.874-.911,27.56,2.271a2.481,2.481,0,0,1,.777,2.538" transform="translate(0.509 0)" fill="#0095e0"/>
              <path id="パス_2026" data-name="パス 2026" d="M19.872,17.523l-5.007-1.645-.307-5.75h5.314Z" transform="translate(0.782 0.544)" fill="#0095e0"/>
              <path id="パス_2027" data-name="パス 2027" d="M17.941,13.871c.364,1.332,1.445,2.189,2.414,1.914s1.46-1.578,1.1-2.911-1.446-2.189-2.415-1.914-1.459,1.579-1.1,2.911" transform="translate(0.957 0.586)" fill="#ffc2b0"/>
              <path id="パス_2028" data-name="パス 2028" d="M21.806,12.339,21.653,12l5.121-2.3.154.34Z" transform="translate(1.163 0.521)" fill="#004080"/>
              <path id="パス_2029" data-name="パス 2029" d="M21.615,13.783h-.056a1.029,1.029,0,0,1-1.029-1.028V6.71a1.029,1.029,0,0,1,1.029-1.028h.056A1.028,1.028,0,0,1,22.644,6.71v6.044a1.028,1.028,0,0,1-1.028,1.028" transform="translate(1.102 0.305)" fill="#0095e0"/>
              <path id="パス_2030" data-name="パス 2030" d="M7.04,36.315a10.983,10.983,0,0,0,.024,5.906A10.539,10.539,0,0,0,8.211,44.9l5.9,9.709c.752,1.245.021,2.871-1.654,3.615a4.654,4.654,0,0,1-.793.267,3.317,3.317,0,0,1-3.6-1.181l-5.9-9.7A14.958,14.958,0,0,1,.341,43.061a15.409,15.409,0,0,1,.2-7.277L3.765,23.76a3.766,3.766,0,0,1,3.954-2.35c1.8.144,2.931,1.44,2.546,2.891Z" transform="translate(0 1.149)" fill="#fecf44"/>
              <path id="パス_2031" data-name="パス 2031" d="M17.584,105.516c-1.532-1.2-5.041.894-6.724,1.269-1.088.242-5.053.468-4.747,2.353a6.479,6.479,0,0,0-.2,1.445,5.592,5.592,0,0,0,.175,1.84,4.9,4.9,0,0,0,2.327,1.4,3.075,3.075,0,0,0,.314-.037,7,7,0,0,0,2.083-.978c2.076-1.273,5.186-2.39,6.747-4.313.7-.858.89-2.292.022-2.975" transform="translate(0.317 5.645)" fill="#0095e0"/>
              <path id="パス_2032" data-name="パス 2032" d="M21.326,113.227a2.006,2.006,0,0,0-1.755,1.316,5.892,5.892,0,0,0-.309,2.293,2.611,2.611,0,0,0,.513,1.917,2.6,2.6,0,0,0,1.18.548,13.933,13.933,0,0,0,2.42.5c.931.08,1.876-.027,2.8.113.589.09,1.158.279,1.738.415a9.9,9.9,0,0,0,5-.129,1.865,1.865,0,0,0,.971-.534,1.411,1.411,0,0,0-.138-1.719,4.1,4.1,0,0,0-1.545-1.017l-5.108-2.346A13.59,13.59,0,0,0,21.852,113c-.588-.014-1.361.253-1.309.838Z" transform="translate(1.034 6.067)" fill="#0095e0"/>
              <path id="パス_2033" data-name="パス 2033" d="M8.626,110.477l.168,0a2.049,2.049,0,0,0,2.074-2.023L10.909,105a2.049,2.049,0,0,0-2.024-2.074l-.168,0a2.049,2.049,0,0,0-2.073,2.024L6.6,108.4a2.048,2.048,0,0,0,2.023,2.073" transform="translate(0.355 5.526)" fill="#dceffe"/>
              <path id="パス_2034" data-name="パス 2034" d="M22.694,115.978h.168a2.048,2.048,0,0,0,2.048-2.048v-3.456a2.048,2.048,0,0,0-2.048-2.048h-.168a2.048,2.048,0,0,0-2.048,2.048v3.456a2.048,2.048,0,0,0,2.048,2.048" transform="translate(1.108 5.821)" fill="#dceffe"/>
              <path id="パス_2035" data-name="パス 2035" d="M27.577,60.631,23.282,50.337,2.707,53.532V60.75S6.172,80.836,6.289,81.637l-.14,26.646a2.506,2.506,0,0,0,2.3,2.137l1.248.093a2.508,2.508,0,0,0,2.688-2.621l2.821-22.5L13.947,68.813,17.57,71.88l.1-.036,4.044,15.242c1.114,5.893-.983,26.378-.983,26.378a2.574,2.574,0,0,0,2.566,2.359h1.771a2.576,2.576,0,0,0,2.575-2.575l2.685-27.032Z" transform="translate(0.145 2.703)" fill="#d9ebfb"/>
              <path id="パス_2036" data-name="パス 2036" d="M3.421,27.036,2.707,57.692a2.889,2.889,0,0,0,1.435,2.57l6.785,3.952a16.355,16.355,0,0,0,14.006,1.517l2.645-.94L26.6,28.943a5.67,5.67,0,0,0-1.544-3.693,5.38,5.38,0,0,0-1.236-1.007l-2.363-1.49-.658-.416a20.827,20.827,0,0,0-8.365-2.913,13.618,13.618,0,0,0-1.772-.121,6.411,6.411,0,0,0-3.169.671,8.181,8.181,0,0,0-4.068,7.063" transform="translate(0.145 1.036)" fill="#fecf44"/>
              <path id="パス_2037" data-name="パス 2037" d="M20.37,66.26a16.21,16.21,0,0,0,3.706-.832l2.646-.94L25.74,28.639A5.667,5.667,0,0,0,24.2,24.947a11.905,11.905,0,0,0-1.557.255,1.509,1.509,0,0,0-.43.174A4.043,4.043,0,0,0,20.3,26.383c-1.169,1.222-.886,3.21-.309,4.807s1.342,3.29.9,4.928c-.322,1.169-1.222,2.121-1.464,3.317-.5,2.524,2.175,11.329,1.92,13.894-.148,1.464-1.209,2.646-1.88,3.948a9.167,9.167,0,0,0,.9,8.983" transform="translate(1.002 1.339)" fill="#ffa97b"/>
              <path id="パス_2038" data-name="パス 2038" d="M50.012,45.16a78.1,78.1,0,0,1-9.841,6.827A11.222,11.222,0,0,1,23.788,45.4L19.315,30.046a3.494,3.494,0,0,1,6.709-1.954L30.5,43.443c.005.009.005.02.011.03a4.245,4.245,0,0,0,6.185,2.459c1.7-.979,5.843-1.976,8.731-4.814,1.378-1.352,3.285-2.27,4.637-.892a3.487,3.487,0,0,1-.048,4.934" transform="translate(1.03 1.373)" fill="#ffc2b0"/>
              <path id="パス_2039" data-name="パス 2039" d="M31.5,43.169l-4.461-15.3a4.492,4.492,0,0,0-8.626,2.512L22.882,45.73a12.351,12.351,0,0,0,.768,1.98l.188.379a.514.514,0,0,0,.625.258l.4-.136c.232-.078.468-.166.682-.256a17.709,17.709,0,0,0,5.711-3.717l.251-.246a.515.515,0,0,0,.1-.594Z" transform="translate(0.979 1.322)" fill="#fecf44"/>
              <path id="パス_2040" data-name="パス 2040" d="M48.008,38.4s.542-.392,1.309-.916a.413.413,0,0,0-.063-.713,4.178,4.178,0,1,0,.417,7.315c1.274-.8,1.159-3.892.1-4.956Z" transform="translate(2.324 1.952)" fill="#ffc2b0"/>
              <path id="パス_2041" data-name="パス 2041" d="M75.487,54.266a16.073,16.073,0,0,0,.392-1.806c-.23-.861-.434-1.636-.419-1.7L65.133,40.331a2.188,2.188,0,0,0-1.449-.858,2.251,2.251,0,0,0-.315-.022,2.177,2.177,0,0,0-1.312.439,2.2,2.2,0,0,0-.44,3.076L71.382,55.12l.024.028a2.377,2.377,0,0,0,4.081-.883" transform="translate(3.285 2.118)" fill="#ffc2b0"/>
              <path id="パス_2042" data-name="パス 2042" d="M60.69,44.03c1.178,1.588,3.153,2.119,4.411,1.185s1.323-2.977.145-4.566-3.154-2.118-4.412-1.185-1.322,2.978-.144,4.566" transform="translate(3.213 2.094)" fill="#ffc2b0"/>
              <path id="パス_2043" data-name="パス 2043" d="M64.54,41.52h0a.945.945,0,0,0,.2-1.322l-3.383-4.56a.945.945,0,1,0-1.518,1.126l3.383,4.56a.945.945,0,0,0,1.322.2" transform="translate(3.203 1.893)" fill="#ffc2b0"/>
              <path id="パス_2044" data-name="パス 2044" d="M93.347,47.069a15.361,15.361,0,0,1,.563,6.524,14.937,14.937,0,0,1-.725,3.159L89.052,68.512a2.906,2.906,0,0,0,1.785,3.7,3.192,3.192,0,0,0,.71.154,2.9,2.9,0,0,0,2.989-1.939L98.668,58.68a21.349,21.349,0,0,0,.23-13.342L94.931,32.63a2.91,2.91,0,0,0-5.552,1.743Z" transform="translate(4.772 1.643)" fill="#d9ebfb"/>
              <path id="パス_2045" data-name="パス 2045" d="M90.836,71.054a3.134,3.134,0,0,0,.71.154,2.9,2.9,0,0,0,2.989-1.938l4.132-11.749a21.269,21.269,0,0,0,1.122-5.342,20.206,20.206,0,0,1-5.881.256,14.872,14.872,0,0,1-.725,3.159l-4.132,11.76a2.905,2.905,0,0,0,1.784,3.7" transform="translate(4.773 2.801)" fill="#ffc2b0"/>
              <path id="パス_2046" data-name="パス 2046" d="M94.634,91.469l2.351-23.528-.607-6.767L81.957,63.284l-8.345-3.613.9,31.025s3.011,26.205,3.047,26.471a17.558,17.558,0,0,1,.314,3.631,6.972,6.972,0,0,0,4.909-1.646,3.7,3.7,0,0,0-.236-1.315c-.005.04-.014.059-.018-.035l1.022-24.945,1.133-19.741.647,11.417,2.415,6.878,3.151,28.08c1.532-.015,2.562-.051,4.093-.126.06-.032.122-.061.183-.093a3.048,3.048,0,0,0-.143-.391Z" transform="translate(3.952 3.204)" fill="#ffc2b0"/>
              <path id="パス_2047" data-name="パス 2047" d="M78.349,120.653c-1.981,1.4-1.788,2.712-4.76,1.981a5.508,5.508,0,0,1-2.572-1.233,2.037,2.037,0,0,1-.488-2.46,3.3,3.3,0,0,1,2.152-1.195,13.234,13.234,0,0,1,4.264-.247,3.637,3.637,0,0,1,1.917.629c1.056.85.375,1.9-.513,2.525" transform="translate(3.774 6.305)" fill="#004080"/>
              <path id="パス_2048" data-name="パス 2048" d="M93.567,118.866H90.2a.829.829,0,0,1-.829-.829v-4.174a.83.83,0,0,1,.829-.83h3.362a.83.83,0,0,1,.829.83v4.174a.829.829,0,0,1-.829.829" transform="translate(4.799 6.069)" fill="#26366d"/>
              <path id="パス_2049" data-name="パス 2049" d="M79.137,115.248a5.212,5.212,0,0,0-1.338.961,19.178,19.178,0,0,0-4.058,4.145,3.5,3.5,0,0,0,2.418,1.916,16.492,16.492,0,0,0,1.884-.666,10.262,10.262,0,0,0,4.159-3.449c.126-.181.247-.426.122-.608l-1.659-1.606c-1.662-1.608-4.119.687-5.794,1.562-.634.331-1.353.79-1.377,1.5-.023.667.593,1.176,1.2,1.463a5.751,5.751,0,0,0,1.888.524Z" transform="translate(3.946 6.188)" fill="#ffc2b0"/>
              <path id="パス_2050" data-name="パス 2050" d="M82.366,123.206H81.6a.771.771,0,0,1-.77-.77v-3.993a.771.771,0,0,1,.77-.77h.768a.77.77,0,0,1,.77.77v3.993a.77.77,0,0,1-.77.77" transform="translate(4.34 6.318)" fill="#004080"/>
              <path id="パス_2051" data-name="パス 2051" d="M83.342,115.545a2.637,2.637,0,0,0-2.407.349,24.03,24.03,0,0,0-3.043,2.735c-1.4,1.218-2.811,1.9-4.526,1.116-.564.342-.959.738-.941,1.192.025.664,1.213,1.513,1.736,1.873,1.647,1.134,4.294-.685,5.632-1.366,1.056-.537,2.174-.437,3.178-.885,1.353-.6,1.782-3.744.37-5.014" transform="translate(3.889 6.195)" fill="#004080"/>
              <path id="パス_2052" data-name="パス 2052" d="M92.112,120.174h-.6a.826.826,0,0,1-.827-.826v-3.738a.827.827,0,0,1,.827-.827h.6a.827.827,0,0,1,.826.827v3.738a.826.826,0,0,1-.826.826" transform="translate(4.869 6.163)" fill="#004080"/>
              <path id="パス_2053" data-name="パス 2053" d="M92.189,117.334h-.905a2.4,2.4,0,0,1-2.4-2.4v-.773a2.293,2.293,0,0,1,2.293-2.293H92.3a2.293,2.293,0,0,1,2.293,2.293v.773a2.4,2.4,0,0,1-2.4,2.4" transform="translate(4.772 6.006)" fill="#004080"/>
              <path id="パス_2054" data-name="パス 2054" d="M76.282,54.067,74.6,56.7a12.6,12.6,0,0,0-1.982,6.941l.451,31.1s14.515,8.015,22.807-1.078l.862-20.906s2.976-14.452-2.966-17.82Z" transform="translate(3.899 2.903)" fill="#577de8"/>
              <path id="パス_2055" data-name="パス 2055" d="M93.741,53.137a22.046,22.046,0,0,0,.054,2.983,1.385,1.385,0,0,1-.629,1.293A18.326,18.326,0,0,1,90.5,58.8a14.5,14.5,0,0,1-8.573,1.119c-.114-.026-.222-.054-.336-.081-1.635-.418-5.194-1.386-5.514-3.412a.986.986,0,0,1-.027-.25c.005-.19.016-.386.027-.582V46.5c-.886-2.635-2.51-4.515-1.7-7.862a11.912,11.912,0,0,1,1.9-4.259A11.487,11.487,0,0,1,82.7,30.234c.875-.251,1.739-.457,2.521-.62a15.514,15.514,0,0,1,5.063-.191,7.262,7.262,0,0,1,4.536,2.016,4.12,4.12,0,0,1,.38.478c2.107,3.161.988,7.583.222,11.017a57.011,57.011,0,0,0-1.679,10.2" transform="translate(3.982 1.573)" fill="#dceffe"/>
              <path id="パス_2056" data-name="パス 2056" d="M81.728,24.723c.011,0,.021.012.032.023a.726.726,0,0,0,.011-.151.185.185,0,0,1-.042.127" transform="translate(4.388 1.321)" fill="#4168c3"/>
              <path id="パス_2057" data-name="パス 2057" d="M89.487,32.878H83.137L82.353,28.2l-.587-3.525h6.351Z" transform="translate(4.39 1.325)" fill="#ffc2b0"/>
              <g id="グループ_376" data-name="グループ 376" transform="translate(86.743 27.241)" style="mix-blend-mode: multiply;isolation: isolate">
                <g id="グループ_375" data-name="グループ 375">
                  <g id="グループ_374" data-name="グループ 374" clip-path="url(#clip-path-6)">
                    <path id="パス_2058" data-name="パス 2058" d="M86.46,25.853l-3.153,4.79h-.2l-.783-4.674Z" transform="translate(-82.323 -25.853)" fill="#ffc2b0"/>
                  </g>
                </g>
              </g>
              <path id="パス_2059" data-name="パス 2059" d="M82.174,23.3a.531.531,0,0,0,.406.033c.014-.034.006-.073.026-.105Z" transform="translate(4.412 1.247)" fill="#ffc2b0"/>
              <path id="パス_2060" data-name="パス 2060" d="M80.339,27.271c-.074.005-.148.02-.222.03l.583-.557c-.123.173-.242.35-.36.528" transform="translate(4.301 1.436)" fill="#ffc2b0"/>
              <path id="パス_2061" data-name="パス 2061" d="M89.74,31.392c-.994,1.456-4.313.934-7.48-1.155.879-.256,1.742-.462,2.525-.623a15.71,15.71,0,0,1,5.061-.191,2.186,2.186,0,0,1-.105,1.968" transform="translate(4.417 1.573)" fill="#ffc2b0"/>
              <path id="パス_2062" data-name="パス 2062" d="M81.459,23.275c.011,0,.021.012.032.023a.726.726,0,0,0,.011-.151.185.185,0,0,1-.042.127" transform="translate(4.374 1.243)" fill="#4168c3"/>
              <path id="パス_2063" data-name="パス 2063" d="M77.183,21.927a8.519,8.519,0,0,0,1.487,5.1,6.466,6.466,0,0,0,5.013,2.191,5.561,5.561,0,0,0,2.983-.656c1.708-1.022,2.507-3.225,2.94-5.306a17.555,17.555,0,0,0,.321-2.4,8.927,8.927,0,0,0-.267-2.714,7.8,7.8,0,0,0-3.416-4.454,12.3,12.3,0,0,0-5.19-1.643,4.165,4.165,0,0,0-2.607.316,2.217,2.217,0,0,0-1.054,1.46,1.686,1.686,0,0,0-.022.669c-.056,1.7-.111,3.395-.166,5.1-.022.766-.044,1.545-.022,2.336" transform="translate(4.143 0.643)" fill="#ffc2b0"/>
              <path id="パス_2064" data-name="パス 2064" d="M91.523,18.339a11.765,11.765,0,0,1-.727,4.148,10.509,10.509,0,0,1-3.138,4.667c-1.183.919-3.6,1.786-4.811.477-1.186-1.282-.523-3.575-1.7-4.868a4.808,4.808,0,0,0-1.242-.867,9.086,9.086,0,0,1-2.658-2.1c-1.8-2.238-1.52-6.755.993-8.432a9.011,9.011,0,0,1,6.984-1.057,8.086,8.086,0,0,1,2.14.933c.037.026.074.047.121.079a8.78,8.78,0,0,1,4.038,7.017" transform="translate(4.085 0.538)" fill="#004080"/>
              <path id="パス_2065" data-name="パス 2065" d="M81.9,21.851a.531.531,0,0,0,.406.033c.014-.034.006-.073.026-.105Z" transform="translate(4.397 1.169)" fill="#ffc2b0"/>
              <path id="パス_2066" data-name="パス 2066" d="M83.8,22.417a3.039,3.039,0,0,1-.612,1.753,3.277,3.277,0,0,1-.78.895,1.393,1.393,0,0,1-1.125.272c-1.206-.293-1.093-2.067-.719-2.938a2.123,2.123,0,0,1,1.612-1.3A1.42,1.42,0,0,1,83.8,22.417" transform="translate(4.312 1.132)" fill="#ffc2b0"/>
              <path id="パス_2067" data-name="パス 2067" d="M81.529,38.366c-.813-1.452-1.511-2.5-3.263-2.221A22.817,22.817,0,0,0,74.691,37.2c-.113.346-.219.7-.311,1.075-.81,3.347.814,5.226,1.7,7.861v9.094c-.011.2-.021.391-.026.582a.988.988,0,0,0,.026.25c.321,2.026,3.88,2.994,5.514,3.412.115.026.223.054.337.081V38.907a2.659,2.659,0,0,1-.4-.542" transform="translate(3.982 1.938)" fill="#bddcff"/>
              <path id="パス_2068" data-name="パス 2068" d="M93.985,54.908a21.7,21.7,0,0,1-.056-2.946l.022-.48-.423.228c-4.226,2.282-8.218,4.438-14.954,1.579-.239-.1-.486-.195-.732-.289a7.833,7.833,0,0,1-1.69-.8l-.427-.3v2.484c-.011.2-.021.4-.025.58a1.2,1.2,0,0,0,.028.308c.355,2.25,4.113,3.222,5.717,3.637a11.054,11.054,0,0,0,2.764.338,16.7,16.7,0,0,0,6.317-1.394,18.617,18.617,0,0,0,2.7-1.4,1.671,1.671,0,0,0,.753-1.543" transform="translate(4.064 2.764)" fill="#577de8"/>
              <path id="パス_2069" data-name="パス 2069" d="M99.132,32.414l-.047-.071c-.929-1.379-2.429-2.269-3.485-3.553-3.964-4.826-1.166-12.19-5.962-16.772-4.589-4.385-9.814-1.2-11.574,4.108-.005.015-.5,2.692-.5,2.709-1.058,3.237.322-11,2.274,9.378.359,3.764.729,7.167.808,10.951a7.915,7.915,0,0,0,3.735,6.225,13.124,13.124,0,0,0,7.208,1.878,9.809,9.809,0,0,0,3.907-.681c3.56-1.552,5.005-5.95,4.817-9.831a8.651,8.651,0,0,0-1.179-4.342" transform="translate(4.145 0.535)" fill="#004080"/>
              <path id="パス_2070" data-name="パス 2070" d="M83.157,11.558h0Z" transform="translate(4.465 0.621)" fill="#004080"/>
              <path id="パス_2071" data-name="パス 2071" d="M72.967,56.742l.044.016a3.119,3.119,0,0,0,4.02-2.24l3.9-15.6a3.259,3.259,0,0,0-6.323-1.582l-1.537,6.15-1.515,6.057c-.671,2.9-2.052,5.907,1.413,7.2" transform="translate(3.796 1.872)" fill="#dceffe"/>
            </g>
          </g>
        </g>
      </g>
    </g>
  </g>
</svg>
