<svg xmlns="http://www.w3.org/2000/svg" xmlns:xlink="http://www.w3.org/1999/xlink" width="334" height="170" viewBox="0 0 334 170" preserveAspectRatio="none">
  <defs>
    <clipPath id="clip-path">
      <rect id="長方形_220" data-name="長方形 220" width="125.639" height="152.296" fill="none"/>
    </clipPath>
    <clipPath id="clip-path-3">
      <rect id="長方形_216" data-name="長方形 216" width="30.316" height="17.503" fill="none"/>
    </clipPath>
    <clipPath id="clip-path-4">
      <rect id="長方形_217" data-name="長方形 217" width="7.09" height="30.247" fill="none"/>
    </clipPath>
    <clipPath id="clip-path-5">
      <rect id="長方形_237" data-name="長方形 237" width="42.438" height="118.066" fill="none"/>
    </clipPath>
    <clipPath id="clip-path-6">
      <rect id="長方形_236" data-name="長方形 236" width="42.439" height="118.066" fill="none"/>
    </clipPath>
    <clipPath id="clip-path-7">
      <rect id="長方形_235" data-name="長方形 235" width="6.303" height="37.273" fill="none"/>
    </clipPath>
  </defs>
  <g id="グループ_442" data-name="グループ 442" transform="translate(-473 -1749)">
    <rect id="長方形_297" data-name="長方形 297" width="334" height="170" transform="translate(473 1749)" fill="#fff"/>
    <g id="グループ_436" data-name="グループ 436" transform="translate(6.499 3)">
      <g id="グループ_369" data-name="グループ 369" transform="translate(582.621 1746)">
        <g id="グループ_389" data-name="グループ 389" clip-path="url(#clip-path)">
          <g id="グループ_388" data-name="グループ 388">
            <g id="グループ_387" data-name="グループ 387" clip-path="url(#clip-path)">
              <path id="パス_2072" data-name="パス 2072" d="M26.209,129.573a1.662,1.662,0,0,1-.826-.22L.841,115.327a1.668,1.668,0,1,1,1.656-2.9l24.541,14.026a1.668,1.668,0,0,1-.829,3.116" transform="translate(0 22.723)" fill="#d9e8ff"/>
              <path id="パス_2073" data-name="パス 2073" d="M13.9,73.474,12.2,72.483l1.2-.694,1.706.992Z" transform="translate(2.47 14.538)" fill="#d9e8ff"/>
              <path id="パス_2074" data-name="パス 2074" d="M14.069,131.474l-1.706-.993L12.2,72.367l1.706.99Z" transform="translate(2.47 14.654)" fill="#d9e8ff"/>
              <path id="パス_2075" data-name="パス 2075" d="M54.808,49.447,53.1,48.456l1.2-.694,1.706.992Z" transform="translate(10.753 9.672)" fill="#d9e8ff"/>
              <path id="パス_2076" data-name="パス 2076" d="M54.973,107.446l-1.706-.993L53.1,48.34l1.706.99Z" transform="translate(10.753 9.789)" fill="#d9e8ff"/>
              <path id="パス_2077" data-name="パス 2077" d="M69.39,107.635a1.662,1.662,0,0,1-.826-.22L44.021,93.389a1.668,1.668,0,1,1,1.656-2.9l24.542,14.026a1.668,1.668,0,0,1-.829,3.116" transform="translate(8.744 18.28)" fill="#d9e8ff"/>
              <path id="パス_2078" data-name="パス 2078" d="M62.489,1.752,59.662.313a2.5,2.5,0,0,0-2.6.108L8.192,28.276a6.651,6.651,0,0,0-2.87,6.176l9.821,77.276a4.024,4.024,0,0,0,.4,1.342,1.137,1.137,0,0,0,.536.817l3.583,2.221,1.152-3.075,47.146-26.87a6.652,6.652,0,0,0,2.87-6.176L61.3,4.938Z" transform="translate(1.069 0)" fill="#83bbef"/>
              <path id="パス_2079" data-name="パス 2079" d="M70.332,87.233,21.459,115.088c-1.875,1.068-3.651.038-3.948-2.29L7.69,35.522a6.651,6.651,0,0,1,2.872-6.176L59.435,1.491c1.875-1.069,3.651-.038,3.947,2.29L73.2,81.057a6.653,6.653,0,0,1-2.872,6.176" transform="translate(1.549 0.216)" fill="#d9e8ff"/>
              <path id="パス_2080" data-name="パス 2080" d="M66.915,79.365,22.5,104.676a1.518,1.518,0,0,1-2.256-1.127L11.415,34.041a1.518,1.518,0,0,1,.754-1.509l44.41-25.31a1.516,1.516,0,0,1,2.256,1.127l8.835,69.507a1.517,1.517,0,0,1-.754,1.509" transform="translate(2.309 1.422)" fill="#f1f3fa"/>
              <path id="パス_2081" data-name="パス 2081" d="M21.79,105.119a1.726,1.726,0,0,1-1.712-1.508L11.244,34.1a1.717,1.717,0,0,1,.857-1.717L56.51,7.076a1.727,1.727,0,0,1,2.567,1.281l8.835,69.508a1.723,1.723,0,0,1-.859,1.716l-.1-.18.1.18-44.41,25.311a1.728,1.728,0,0,1-.854.226M57.365,7.264a1.3,1.3,0,0,0-.648.174L12.306,32.75a1.3,1.3,0,0,0-.648,1.3l8.834,69.507a1.308,1.308,0,0,0,1.946.973l44.41-25.311a1.305,1.305,0,0,0,.651-1.3L58.663,8.41A1.29,1.29,0,0,0,57.951,7.4a1.315,1.315,0,0,0-.586-.141" transform="translate(2.274 1.387)" fill="#d9edfe"/>
              <path id="パス_2082" data-name="パス 2082" d="M38,43.859,29.121,32.908a.852.852,0,0,1-.078-.964,18.784,18.784,0,0,1,6.313-6.738c7.106-4.227,14.061.712,15.538,11.032S47.807,58.348,40.7,62.575c-6.884,4.095-13.618-.423-15.374-10.094a.85.85,0,0,1,.388-.869L38,43.912A.036.036,0,0,0,38,43.859" transform="translate(5.126 4.798)" fill="#b6d9ff"/>
              <path id="パス_2083" data-name="パス 2083" d="M25.961,30.976l7.737,9.6a.728.728,0,0,1-.183,1.075L22.293,48.621a.72.72,0,0,1-1.091-.491c-.072-.427-.142-.832-.15-.892-.835-5.984.631-10.868,3.176-16.07a1.035,1.035,0,0,1,1.734-.192" transform="translate(4.215 6.195)" fill="#fd569e"/>
              <path id="パス_2084" data-name="パス 2084" d="M52.485,55.488l-9.912,5.649.278,2.185,9.912-5.649Z" transform="translate(8.621 11.237)" fill="#b6d9ff"/>
              <path id="パス_2085" data-name="パス 2085" d="M55.3,57.706,43,64.719l.277,2.185,12.306-7.013Z" transform="translate(8.707 11.686)" fill="#b6d9ff"/>
              <path id="パス_2086" data-name="パス 2086" d="M43.424,67.34l.278,2.185,4.689-2.673-.278-2.184Z" transform="translate(8.793 13.095)" fill="#b6d9ff"/>
              <path id="パス_2087" data-name="パス 2087" d="M31.148,80.45,28.483,59.484a.49.49,0,0,0-.748-.354L25.31,60.652a.489.489,0,0,0-.226.477l2.659,20.928a.491.491,0,0,0,.743.357l2.431-1.484a.492.492,0,0,0,.231-.481" transform="translate(5.079 11.959)" fill="#b6d9ff"/>
              <path id="パス_2088" data-name="パス 2088" d="M27.348,81.546,25.539,67.318a.491.491,0,0,0-.748-.355l-2.425,1.522a.489.489,0,0,0-.226.477l1.8,14.191a.491.491,0,0,0,.743.357l2.431-1.484a.492.492,0,0,0,.231-.481" transform="translate(4.483 13.545)" fill="#b6d9ff"/>
              <path id="パス_2089" data-name="パス 2089" d="M34.617,75.864l-.969-7.624a.49.49,0,0,0-.748-.354l-2.425,1.521a.491.491,0,0,0-.226.477l.964,7.587a.49.49,0,0,0,.742.357l2.431-1.484a.492.492,0,0,0,.231-.481" transform="translate(6.125 13.732)" fill="#b6d9ff"/>
              <path id="パス_2090" data-name="パス 2090" d="M76.9,69.342a46.6,46.6,0,0,1-7.906-2.866c-.837-.352-1.875-.79-2.18-.89a3.126,3.126,0,0,1,1.546-6.058,24.923,24.923,0,0,1,3.059,1.183c1.5.634,4.786,2.014,6.278,2.406,1.092-.993,2.435-4.091,3.359-6.222a42.216,42.216,0,0,1,3.411-6.753,3.127,3.127,0,1,1,5.184,3.5,37.807,37.807,0,0,0-2.857,5.744c-1.872,4.317-3.64,8.4-7.179,9.811a4.616,4.616,0,0,1-2.715.147" transform="translate(13.059 9.875)" fill="#004aab"/>
              <path id="パス_2091" data-name="パス 2091" d="M66.3,62.756a3.8,3.8,0,0,1-.813-.253l-3.57-1.569c-1.495-.657-2.145-2.108-1.454-3.241a3.2,3.2,0,0,1,3.959-.862l3.57,1.569c1.495.657,2.145,2.107,1.454,3.241A3,3,0,0,1,66.3,62.756" transform="translate(12.187 11.443)" fill="#ffbca8"/>
              <path id="パス_2092" data-name="パス 2092" d="M72.309,63.967a.54.54,0,0,1-.2-.055l-19.5-9.8a.54.54,0,1,1,.485-.964l19.5,9.8a.54.54,0,0,1-.281,1.021" transform="translate(10.593 10.75)" fill="#714e51"/>
              <path id="パス_2093" data-name="パス 2093" d="M68.007,58.335c1.705.948,2.6,2.6,1.994,3.684s-2.476,1.2-4.182.253-2.6-2.6-1.994-3.684,2.477-1.2,4.182-.253" transform="translate(12.886 11.683)" fill="#ffbca8"/>
              <g id="グループ_383" data-name="グループ 383" transform="translate(92.089 126.112)" opacity="0.18">
                <g id="グループ_382" data-name="グループ 382">
                  <g id="グループ_381" data-name="グループ 381" clip-path="url(#clip-path-3)">
                    <path id="パス_2094" data-name="パス 2094" d="M102.458,119.814c-5.92,3.418-15.517,3.418-21.437,0s-5.919-8.959,0-12.376,15.517-3.419,21.437,0,5.92,8.959,0,12.376" transform="translate(-76.581 -104.874)" fill="#5873dd"/>
                  </g>
                </g>
              </g>
              <path id="パス_2095" data-name="パス 2095" d="M89.477,106.369a1.569,1.569,0,0,1,1.374,1.031,4.612,4.612,0,0,1,.243,1.8,2.04,2.04,0,0,1-.4,1.5,2.009,2.009,0,0,1-.924.429,10.8,10.8,0,0,1-1.9.394c-.73.064-1.469-.022-2.193.089-.462.07-.907.218-1.361.325a7.753,7.753,0,0,1-3.914-.1,1.462,1.462,0,0,1-.76-.418,1.1,1.1,0,0,1,.107-1.346,3.226,3.226,0,0,1,1.211-.8l4-1.837a10.634,10.634,0,0,1,4.1-1.246c.459-.011,1.065.2,1.025.655Z" transform="translate(16.091 21.503)" fill="#714e51"/>
              <path id="パス_2096" data-name="パス 2096" d="M87.26,109.2l.131-.011a1.6,1.6,0,0,0,1.469-1.729l-.219-2.7a1.6,1.6,0,0,0-1.729-1.469l-.131.011a1.6,1.6,0,0,0-1.469,1.729l.219,2.7A1.6,1.6,0,0,0,87.26,109.2" transform="translate(17.275 20.916)" fill="#d9edfe"/>
              <path id="パス_2097" data-name="パス 2097" d="M95.779,112.83c-.233.518-.475,1.031-.7,1.546a13.881,13.881,0,0,0-.63,1.613c-.249.83-.715,2.445-.129,3.2.884,1.135,2.327.164,3.046-.637a33.126,33.126,0,0,0,2.973-3.858,5.077,5.077,0,0,0,.9-1.966c.368-2.278-.728-5.507-3.023-4.751a2.252,2.252,0,0,0-1.395,1.922,14.673,14.673,0,0,1-1.037,2.934" transform="translate(19.042 21.842)" fill="#714e51"/>
              <path id="パス_2098" data-name="パス 2098" d="M97.962,111.926h.131a1.606,1.606,0,0,0,1.605-1.6v-2.708a1.606,1.606,0,0,0-1.605-1.605h-.131a1.6,1.6,0,0,0-1.6,1.605v2.708a1.6,1.6,0,0,0,1.6,1.6" transform="translate(19.513 21.467)" fill="#d9edfe"/>
              <path id="パス_2099" data-name="パス 2099" d="M100.68,95.756,101.688,71.5l-3.369-3.849-8.436-2.923-7.119,3.769V90.275a13.142,13.142,0,0,0,.137,1.894l1.873,20.874a1.964,1.964,0,0,0,1.8,1.675l.978.072a1.964,1.964,0,0,0,2.106-2.053l.04-3.463L88.429,92.319l.329-11.775,6.31,2.392-.227,11.54L98,116.32a2.019,2.019,0,0,0,2.011,1.849H101.4a2.017,2.017,0,0,0,2.017-2.018Z" transform="translate(16.76 13.107)" fill="#385fc7"/>
              <path id="パス_2100" data-name="パス 2100" d="M82.294,51.987V75.469a1.542,1.542,0,0,0,.736,1.314l5.144,3.157a12.864,12.864,0,0,0,8.068,1.841,12.7,12.7,0,0,0,2.9-.652L102,79.219l-1.55-25.738a4.429,4.429,0,0,0-1.21-2.892,4.171,4.171,0,0,0-.967-.79l-1.852-1.168-.515-.326a16.341,16.341,0,0,0-6.554-2.282,10.876,10.876,0,0,0-1.389-.095,5.026,5.026,0,0,0-2.483.527,6.41,6.41,0,0,0-3.187,5.533" transform="translate(16.665 9.301)" fill="#d9edfe"/>
              <g id="グループ_386" data-name="グループ 386" transform="translate(111.574 60.835)" opacity="0.59">
                <g id="グループ_385" data-name="グループ 385">
                  <g id="グループ_384" data-name="グループ 384" clip-path="url(#clip-path-4)">
                    <path id="パス_2101" data-name="パス 2101" d="M98.326,52.537a4.526,4.526,0,0,0-.1-.78c-1.038-.889-2.049-1.732-2.97-.673a16.118,16.118,0,0,0-1.475,3.332c.014.04.028.081.042.12.441,1.263,1.052,3.359.7,4.643-.253.915-.957,1.662-1.146,2.6-.39,1.978,1.7,6.922,1.5,8.931-.117,1.147-.948,2.072-1.473,3.093a7.183,7.183,0,0,0,.7,7.037,12.675,12.675,0,0,0,2.9-.652l2.855-1.91Z" transform="translate(-92.785 -50.59)" fill="#83bbef"/>
                  </g>
                </g>
              </g>
              <path id="パス_2102" data-name="パス 2102" d="M101.429,53.536c0-.084-.013-.167-.02-.251h.055s-.035-1.426-.035-1.431a4.834,4.834,0,0,0-1.308-3.137c-1.071-1.134-3.12-1.611-4.535-2.231-4.721-2.068-14.266-.73-14.266,5.571V80.62a1.932,1.932,0,0,0,.924,1.647l1.667,1.023a1.083,1.083,0,0,0,1.1.028,1.43,1.43,0,0,0,.728-1.278q-.081-6.246-.165-12.492c-.084-6.443-1.057-12.654-.089-19.058A6.064,6.064,0,0,1,86,48.584c1.041-2.017,4.33-2.088,6.279-1.659a2.849,2.849,0,0,1,1.6.891l-1.495-.432a5.828,5.828,0,0,1,1.857.98c.681,1.348.369,3.325.043,4.933a79.679,79.679,0,0,0-.3,30.007,3.453,3.453,0,0,0,.386,1.076,3.437,3.437,0,0,0,.382,1.23,3.058,3.058,0,0,0,1.592,1.557q.723.013,1.443-.026a12.772,12.772,0,0,0,2.077-.493l2.411-1.548a1.456,1.456,0,0,0,.667-1.3c-.251-4.9-1.514-30.261-1.514-30.266" transform="translate(16.467 9.231)" fill="#004aab"/>
              <path id="パス_2103" data-name="パス 2103" d="M89.04,50.921l-.552-.36L85.582,63.487a1.993,1.993,0,0,0,.119,1.166l1.8,4.153a.45.45,0,0,0,.789.078l2.32-3Z" transform="translate(17.323 10.239)" fill="#385fc7"/>
              <path id="パス_2104" data-name="パス 2104" d="M87.475,49.036l.2,1.89c.191.547.89.57,1.34.044l1.457-1.608Z" transform="translate(17.714 9.93)" fill="#385fc7"/>
              <path id="パス_2105" data-name="パス 2105" d="M93.864,49.953a7.8,7.8,0,0,0,.426-1.441c.9-4.834-8-5.091-8,.373v.854a.492.492,0,0,0,.542.54l2.317-.491,1.928,2.287a.677.677,0,0,0,1.163.075c.487-.651,1.052-1.423,1.623-2.2" transform="translate(17.474 9.079)" fill="#eff8ff"/>
              <path id="パス_2106" data-name="パス 2106" d="M90.526,41.371c.01,0,.019.01.029.019a.5.5,0,0,0,.011-.127.151.151,0,0,1-.04.108" transform="translate(18.332 8.356)" fill="#714e51"/>
              <path id="パス_2107" data-name="パス 2107" d="M91.753,42.333l1.076,5.5v0l.052.268-.03.006a1.224,1.224,0,0,1-.026.263,3.576,3.576,0,0,1-2.186,1.247c-1.106.212-2.652.357-2.785-.548v-.007l-.026,0-.053-.268v0L86.7,43.3a2.614,2.614,0,0,1,.385-1.956,2.543,2.543,0,0,1,1.31-1.008c.13-.037.271-.076.411-.1a2.776,2.776,0,0,1,.9.011,2.606,2.606,0,0,1,1.017.457,2.663,2.663,0,0,1,1.035,1.633" transform="translate(17.546 8.141)" fill="#ffbca8"/>
              <path id="パス_2108" data-name="パス 2108" d="M87.993,48.679c2.077-.511,3.475-2.187,3.153-3.837l-.961-4.907-.073-.38a4.964,4.964,0,0,0-1.54.066l-.03.006-.108.02c-.1.019-.195.048-.291.077l-.089.017a2.086,2.086,0,0,0-.633.369,1.144,1.144,0,0,0-.243.222l-.1.113a3.721,3.721,0,0,0-.221.333,2.982,2.982,0,0,0-.314,2.05l.925,4.727Z" transform="translate(17.513 8.003)" fill="#ffbca8"/>
              <path id="パス_2109" data-name="パス 2109" d="M80.97,38.05a32.633,32.633,0,0,0,3.405,1.74l.657-3.534a9.068,9.068,0,0,0-1.569-1.049c-.427-.131-1.789.958-1.789.958Z" transform="translate(16.397 7.127)" fill="#004aab"/>
              <path id="パス_2110" data-name="パス 2110" d="M92.01,46.688a8.623,8.623,0,0,0,1.014-3.235c.158-.969,1.466-.564,1.471-1.554,0-.7-.659-1.454-.955-2.063a4.442,4.442,0,0,0-1.466-1.793,8.736,8.736,0,0,0-2.734-1.154,21.574,21.574,0,0,0-3.272-.637l-.305-1.046h-3.43v9.823a1.9,1.9,0,0,0,.066.408,4.19,4.19,0,0,0,5.617,2.82Z" transform="translate(16.672 7.129)" fill="#ffbca8"/>
              <path id="パス_2111" data-name="パス 2111" d="M81.566,35.206a25.1,25.1,0,0,1,3.371-1.682A10.409,10.409,0,0,1,88.913,32.4a6.376,6.376,0,0,1,5.059,1.883c1.786,1.971,2.115,4.828,1.882,7.357a6.566,6.566,0,0,1-.766,2.924c-.285.449-1.746,1.827-2.387,1.282-.544-.459.119-1.314-.133-2.008a.626.626,0,0,0-.141-.257.568.568,0,0,0-.485-.059.753.753,0,0,1-.4,0c-.284-.108-.322-.491-.3-.795.061-.981.2-2.113-.93-2.412-.782-.208-1.663.081-2.422-.248-1.537-.667-2.878-1.813-4.515-2.167-.224-.048-.613-.184-.67.038-.18.717-.066.962-.248,1.451a2.354,2.354,0,0,1-1.692-1.209,2.43,2.43,0,0,1,.042-2.163,2.479,2.479,0,0,1,.758-.813" transform="translate(16.308 6.559)" fill="#714f52"/>
              <rect id="長方形_218" data-name="長方形 218" width="4.799" height="0.313" transform="translate(105.233 50.4) rotate(-31.796)" fill="#714f52"/>
              <path id="パス_2112" data-name="パス 2112" d="M89.752,41.708a.431.431,0,0,0,.326.026c.012-.028,0-.059.02-.085Z" transform="translate(18.175 8.434)" fill="#ffbca8"/>
              <path id="パス_2113" data-name="パス 2113" d="M91.981,40.292a1.182,1.182,0,0,0-1.239.766,3.422,3.422,0,0,1-.344.713.7.7,0,0,1-.369.243.755.755,0,0,0,.553.934,1.547,1.547,0,0,0,1.245-.368,1.9,1.9,0,0,0,.8-1.151,1,1,0,0,0-.646-1.138" transform="translate(18.223 8.154)" fill="#ffbca8"/>
              <path id="パス_2114" data-name="パス 2114" d="M84.145,40.487c.095-.322.3-.438.542-.3a1.433,1.433,0,0,1,.542.926l.155-.025a1.842,1.842,0,0,0-.7-1.189c-.308-.178-.575-.03-.7.384Z" transform="translate(17.008 8.065)" fill="#714f52"/>
              <path id="パス_2115" data-name="パス 2115" d="M84.145,40.487c.095-.322.3-.438.542-.3a1.433,1.433,0,0,1,.542.926l.155-.025a1.842,1.842,0,0,0-.7-1.189c-.308-.178-.575-.03-.7.384Z" transform="translate(17.008 8.065)" fill="#714f52"/>
              <path id="パス_2116" data-name="パス 2116" d="M87.326,44.441a1.594,1.594,0,0,1-.782-.237,3.66,3.66,0,0,1-1.652-2.861A1.112,1.112,0,0,1,86.7,40.3a3.66,3.66,0,0,1,1.652,2.862,1.252,1.252,0,0,1-.54,1.153.962.962,0,0,1-.487.127M85.92,40.376a.652.652,0,0,0-.332.084.959.959,0,0,0-.384.884,3.307,3.307,0,0,0,1.5,2.589.807.807,0,0,0,1.338-.772,3.308,3.308,0,0,0-1.495-2.59,1.271,1.271,0,0,0-.624-.195" transform="translate(17.191 8.113)" fill="#714f52"/>
              <path id="パス_2117" data-name="パス 2117" d="M83.842,42.43a1.581,1.581,0,0,1-.78-.237,3.658,3.658,0,0,1-1.652-2.861,1.112,1.112,0,0,1,1.809-1.044A3.656,3.656,0,0,1,84.87,41.15a1.252,1.252,0,0,1-.54,1.153.958.958,0,0,1-.488.127m-1.4-4.066a.652.652,0,0,0-.332.084.959.959,0,0,0-.384.884,3.311,3.311,0,0,0,1.5,2.59.808.808,0,0,0,1.338-.773,3.308,3.308,0,0,0-1.495-2.59,1.271,1.271,0,0,0-.624-.195" transform="translate(16.485 7.706)" fill="#714f52"/>
              <path id="パス_2118" data-name="パス 2118" d="M101.272,86.169a2.781,2.781,0,0,1-.541-.054,2.735,2.735,0,0,1-2.144-3.22L100.8,71.847a13.9,13.9,0,0,0-1.062-8.633L94.583,52.335a2.736,2.736,0,0,1,4.945-2.345l5.158,10.88a19.4,19.4,0,0,1,1.481,12.053l-2.216,11.047a2.735,2.735,0,0,1-2.679,2.2" transform="translate(19.1 9.806)" fill="#004aab"/>
              <path id="パス_2119" data-name="パス 2119" d="M103.574,77.063c-.72,1.623.293,3.835-.734,5.25a2.176,2.176,0,0,1-2.517.678,3.589,3.589,0,0,1-1.914-2.061A7.869,7.869,0,0,1,97.933,78a3.093,3.093,0,0,1,.236-1.411,2.159,2.159,0,0,1,1.5-1.044,3.9,3.9,0,0,1,4.048,1.8Z" transform="translate(19.832 15.282)" fill="#ffbca8"/>
            </g>
          </g>
        </g>
      </g>
      <g id="グループ_371" data-name="グループ 371" transform="translate(570 1797.934)">
        <g id="グループ_428" data-name="グループ 428" clip-path="url(#clip-path-5)">
          <g id="グループ_427" data-name="グループ 427">
            <g id="グループ_426" data-name="グループ 426" clip-path="url(#clip-path-6)">
              <path id="パス_2286" data-name="パス 2286" d="M32.143,112.434c-5.558-3.208-14.57-3.208-20.129,0s-5.558,8.412,0,11.622,14.571,3.209,20.129,0,5.559-8.413,0-11.622" transform="translate(-0.599 -8.397)" fill="#647ddd"/>
              <path id="パス_2287" data-name="パス 2287" d="M16.879,10.359c.009,0,.018.009.027.018a.5.5,0,0,0,.009-.116.136.136,0,0,1-.036.1" transform="translate(-1.288 -0.783)" fill="#4168c3"/>
              <path id="パス_2288" data-name="パス 2288" d="M14.648,13.36l-.995,7c-.138.971,1,1.755,2.546,1.755s2.907-.784,3.044-1.755h.025l.995-7Z" transform="translate(-1.041 -1.02)" fill="#ffc2b0"/>
              <path id="パス_2289" data-name="パス 2289" d="M13.239,11.911c-1.255-2.264-1.5-4.884.841-6.893,1.879-1.612,7.37-3.8,9.518-1.916,2.3,2.025,2.011,9.5.347,11.93a4.814,4.814,0,0,1-6.363,1.242,11.682,11.682,0,0,1-4.343-4.363" transform="translate(-0.939 -0.181)" fill="#ffc2b0"/>
              <path id="パス_2290" data-name="パス 2290" d="M9.732,4.779A3.915,3.915,0,0,1,10.869,2.2c.478-.355.965-.694,1.461-1A17.332,17.332,0,0,1,18.141,0a14.686,14.686,0,0,0,4.131.629A9.693,9.693,0,0,0,24.626.142a2.919,2.919,0,0,1,.962,2.652c-.359,2.5-2.837,2.3-4.461,3.571a1.4,1.4,0,0,1-.174.659,10.189,10.189,0,0,1-2.271,5.911,12.659,12.659,0,0,1-1.241,1.58c-5.465,6-7.933-6.638-7.71-9.736" transform="translate(-0.742)" fill="#4168c3"/>
              <path id="パス_2291" data-name="パス 2291" d="M18.86,12c.293,1.071,1.161,1.76,1.941,1.538a1.827,1.827,0,0,0,.881-2.34c-.293-1.071-1.162-1.76-1.941-1.538A1.825,1.825,0,0,0,18.86,12" transform="translate(-1.432 -0.734)" fill="#ffc2b0"/>
              <path id="パス_2292" data-name="パス 2292" d="M22.118,11.807h-.045a.827.827,0,0,1-.827-.827V6.123a.827.827,0,0,1,.827-.827h.045a.827.827,0,0,1,.827.827V10.98a.827.827,0,0,1-.827.827" transform="translate(-1.621 -0.404)" fill="#4168c3"/>
              <path id="パス_2293" data-name="パス 2293" d="M12.087,22a22.426,22.426,0,0,1,.012-2.269,2.354,2.354,0,0,1,1.121-1.748,4.648,4.648,0,0,1,5.1.333c2,1.352,1.629,2.551,1.65,4.637.028,2.856.168,7.383.252,10.239l-.885.314a5.57,5.57,0,0,1-1.239.278,4.359,4.359,0,0,1-2.548-.488l-.932-2.363-.167,1.752-2.064-1.008a.967.967,0,0,1-.479-.86c.06-2.383.121-6.434.181-8.818" transform="translate(-0.909 -1.325)" fill="#dceffe"/>
              <path id="パス_2294" data-name="パス 2294" d="M17.352,110.622c-3.173-.869-10.127.112-9.769,2.319a5.725,5.725,0,0,0-.173,1.265c-.157,4.424,6.192,1.793,8.376.578,4.085-2.27,3.613-3.6,1.566-4.163" transform="translate(-0.565 -8.419)" fill="#4168c3"/>
              <path id="パス_2295" data-name="パス 2295" d="M5.788,40.064a17.1,17.1,0,0,0-.357,6.579,16.761,16.761,0,0,0,.731,3.18l4.014,14.023a2.972,2.972,0,0,1-1.529,3.736,2.58,2.58,0,0,1-.639.159A2.7,2.7,0,0,1,5.256,65.8L1.243,51.789A23.909,23.909,0,0,1,.724,38.342L4.017,25.516a2.543,2.543,0,0,1,3.252-1.929,3.058,3.058,0,0,1,1.813,3.662Z" transform="translate(0 -1.79)" fill="#4568c7"/>
              <path id="パス_2296" data-name="パス 2296" d="M6.178,51.746a16.7,16.7,0,0,1-.72-3.109,6.207,6.207,0,0,1-1.342.6,5.812,5.812,0,0,1-3.9-.082,23.707,23.707,0,0,0,1.039,4.56L5.274,67.722a2.692,2.692,0,0,0,2.751,1.942,2.577,2.577,0,0,0,.639-.158,2.974,2.974,0,0,0,1.529-3.737Z" transform="translate(-0.017 -3.712)" fill="#ffc2b0"/>
              <path id="パス_2297" data-name="パス 2297" d="M22.563,117.421a1.757,1.757,0,0,0-1.538,1.153,5.168,5.168,0,0,0-.272,2.01,2.286,2.286,0,0,0,.451,1.679,2.257,2.257,0,0,0,1.034.48c3.222.873,7.01.207,10.122-.784a1.689,1.689,0,0,0,1.252-1.472c0-1-1.121-1.584-2.085-1.87a34.275,34.275,0,0,0-8.5-1.4c-.515-.012-1.193.222-1.146.734Z" transform="translate(-1.584 -8.946)" fill="#4168c3"/>
              <path id="パス_2298" data-name="パス 2298" d="M9.871,113.769l.147,0A1.8,1.8,0,0,0,11.835,112l.037-3.029a1.8,1.8,0,0,0-1.773-1.817l-.147,0a1.8,1.8,0,0,0-1.817,1.773L8.1,111.952a1.8,1.8,0,0,0,1.773,1.817" transform="translate(-0.618 -8.178)" fill="#dceffe"/>
              <path id="パス_2299" data-name="パス 2299" d="M23.933,119.268h.147a1.8,1.8,0,0,0,1.8-1.795v-3.03a1.8,1.8,0,0,0-1.8-1.795h-.147a1.8,1.8,0,0,0-1.795,1.795v3.03a1.8,1.8,0,0,0,1.795,1.795" transform="translate(-1.69 -8.597)" fill="#dceffe"/>
              <path id="パス_2300" data-name="パス 2300" d="M26,62,22.236,50.788,4.2,53.589V62.1S7.24,79.7,7.343,80.406l-.56,23.352a3.175,3.175,0,0,0,2.45,2.311l1.093.08c1.315.1,2.856-.978,2.793-2.3L15.153,83.7l-1.1-14.53,3.176,2.687.086-.03,3.543,14.669c.976,5.164-1.3,22.243-1.3,22.243a2.714,2.714,0,0,0,2.685,2.067H23.8c1.247,0,2.693-1.011,2.693-2.257l1.716-20.434a40.516,40.516,0,0,0-.054-6.073Z" transform="translate(-0.321 -3.876)" fill="#d9ebfb"/>
              <path id="パス_2301" data-name="パス 2301" d="M3.728,57.777a2.977,2.977,0,0,0,1.478,2.641l6.008,2.935.324-3.407,1.836,4.661.157.075a12.528,12.528,0,0,0,5.107,1.386H18.7c.11,0,.228,0,.342,0A13.389,13.389,0,0,0,20.44,66a14.814,14.814,0,0,0,3.353-.753l2.318-.826.3-.105L26.4,64c-.211-7.171-.587-21.356-.66-29.017,0-.792.008-1.526.022-2.239.017-.957.034-1.849-.009-2.7v0c-.144-2.815-.94-5.138-4.53-7.569C17.75,20.112,12.04,18.473,7.37,21.59a6.664,6.664,0,0,0-3.13,4.88,20.918,20.918,0,0,0-.07,3.573c.027.787.057,1.6.035,2.431-.079,3.126-.157,7.97-.236,12.658s-.157,9.523-.24,12.645" transform="translate(-0.284 -1.517)" fill="#4568c7"/>
              <g id="グループ_425" data-name="グループ 425" transform="translate(19.711 27.367)" opacity="0.56" style="mix-blend-mode: multiply;isolation: isolate">
                <g id="グループ_424" data-name="グループ 424">
                  <g id="グループ_423" data-name="グループ 423" clip-path="url(#clip-path-7)">
                    <g id="グループ_422" data-name="グループ 422" opacity="0.51">
                      <g id="グループ_421" data-name="グループ 421">
                        <g id="グループ_420" data-name="グループ 420" clip-path="url(#clip-path-7)">
                          <path id="パス_2302" data-name="パス 2302" d="M21.937,66.812c.067.114-.71.122-.584,0,.3-.276.773-.022,1.2-.075a11.1,11.1,0,0,0,2.862-.752l1.979-.827.253-.1-.007-.32c-.179-7.171-.5-21.356-.563-29.016,0-.792.007-1.526.018-2.239.016-.958.03-1.849-.007-2.7v0A2.588,2.588,0,0,0,26.31,30a2.215,2.215,0,0,0-1.221-.371,2.726,2.726,0,0,0-2.511,2.79l-.78,26.7c.1,0-.4,6.826.139,7.692" transform="translate(-21.339 -29.628)" fill="#004080"/>
                        </g>
                      </g>
                    </g>
                  </g>
                </g>
              </g>
              <path id="パス_2303" data-name="パス 2303" d="M25.284,112.587H23.732a2.726,2.726,0,0,1-1.9-1.162.7.7,0,0,0-1.232.442V113.6a3.131,3.131,0,0,0,3.131,3.131h1.552a3.131,3.131,0,0,0,3.12-2.869v-2.146a.361.361,0,0,0-.669-.189,2.549,2.549,0,0,1-2.451,1.062" transform="translate(-1.572 -8.485)" fill="#bddcff"/>
              <path id="パス_2304" data-name="パス 2304" d="M10.891,107.917h-1.4c-.643,0-1.908-.284-2.149-1.078-.174-.574-.673-.2-.673.409v1.606a2.865,2.865,0,0,0,2.823,2.9h1.4A2.856,2.856,0,0,0,13.7,109.1v-1.991a.325.325,0,0,0-.6-.175,2.276,2.276,0,0,1-2.21.986" transform="translate(-0.509 -8.132)" fill="#bddcff"/>
              <path id="パス_2305" data-name="パス 2305" d="M41.546,16.385,36.965,35.434Z" transform="translate(-2.821 -1.25)" fill="#ffc2b0"/>
              <path id="パス_2306" data-name="パス 2306" d="M36.714,38.242A3.061,3.061,0,0,0,39.687,35.9L44.27,16.848a3.061,3.061,0,0,0-5.952-1.432L33.736,34.465a3.065,3.065,0,0,0,2.978,3.777" transform="translate(-2.568 -0.998)" fill="#ffc2b0"/>
              <path id="パス_2307" data-name="パス 2307" d="M35.757,40.67a3.723,3.723,0,0,1-3.218-.645L18.729,29.438a3.685,3.685,0,0,1-.666-5.191,3.738,3.738,0,0,1,5.221-.678l13.81,10.587a3.685,3.685,0,0,1,.666,5.191,3.724,3.724,0,0,1-2,1.323" transform="translate(-1.319 -1.74)" fill="#4568c7"/>
              <path id="パス_2308" data-name="パス 2308" d="M45.328,14.261c-.413,2.156-2.133,3.638-3.841,3.311s-2.758-2.341-2.345-4.5,2.133-3.639,3.842-3.311,2.757,2.341,2.344,4.5" transform="translate(-2.98 -0.742)" fill="#ffc2b0"/>
              <path id="パス_2309" data-name="パス 2309" d="M40.206,13.02h0a1.05,1.05,0,0,1-.833-1.228L40.558,5.6a1.05,1.05,0,0,1,2.063.394l-1.187,6.192a1.05,1.05,0,0,1-1.228.833" transform="translate(-3.003 -0.362)" fill="#ffc2b0"/>
            </g>
          </g>
        </g>
      </g>
    </g>
  </g>
</svg>
