<svg xmlns="http://www.w3.org/2000/svg" xmlns:xlink="http://www.w3.org/1999/xlink" width="335" height="170" viewBox="0 0 335 170" preserveAspectRatio="none">
  <defs>
    <clipPath id="clip-path">
      <rect id="長方形_241" data-name="長方形 241" width="44.955" height="108.042" fill="none"/>
    </clipPath>
    <clipPath id="clip-path-3">
      <rect id="長方形_239" data-name="長方形 239" width="4.478" height="4.672" fill="none"/>
    </clipPath>
    <clipPath id="clip-path-4">
      <rect id="長方形_228" data-name="長方形 228" width="131.97" height="163.855" fill="none"/>
    </clipPath>
    <clipPath id="clip-path-6">
      <rect id="長方形_221" data-name="長方形 221" width="2.872" height="5.879" fill="none"/>
    </clipPath>
    <clipPath id="clip-path-8">
      <rect id="長方形_223" data-name="長方形 223" width="28.2" height="16.282" fill="none"/>
    </clipPath>
    <clipPath id="clip-path-9">
      <rect id="長方形_224" data-name="長方形 224" width="4.232" height="5.84" fill="none"/>
    </clipPath>
    <clipPath id="clip-path-11">
      <rect id="長方形_226" data-name="長方形 226" width="3.474" height="4.022" fill="none"/>
    </clipPath>
  </defs>
  <g id="グループ_441" data-name="グループ 441" transform="translate(-848 -1749)">
    <rect id="長方形_298" data-name="長方形 298" width="335" height="170" transform="translate(848 1749)" fill="#fff"/>
    <g id="グループ_437" data-name="グループ 437" transform="translate(-9 9)">
      <g id="グループ_366" data-name="グループ 366" transform="translate(1048.169 1740)">
        <g id="グループ_435" data-name="グループ 435" clip-path="url(#clip-path)">
          <g id="グループ_434" data-name="グループ 434" transform="translate(0 0)">
            <g id="グループ_433" data-name="グループ 433" clip-path="url(#clip-path)">
              <path id="パス_2310" data-name="パス 2310" d="M37.954,116.907c5.877-3.393,5.877-8.895,0-12.288s-15.405-3.393-21.283,0-5.876,8.895,0,12.288,15.405,3.393,21.283,0" transform="translate(-1.371 -11.41)" fill="#647ddd"/>
              <path id="パス_2311" data-name="パス 2311" d="M37.655,11.359a25.348,25.348,0,0,0-.092-4.033c-.307-3.517-2.1-6.8-5.948-7.239-7.047-.807-8.446,4.091-8.8,10.015,2.188,2.536,4.794,5.041,6.155,8.133.292.663,3.869.7,4.345.5,1.156-.492,2.573-2.442,3.233-3.476a8.443,8.443,0,0,0,1.107-3.9" transform="translate(-2.55 0)" fill="#0095e0"/>
              <path id="パス_2312" data-name="パス 2312" d="M26.567,105.187a2.023,2.023,0,0,1-1.43,2.473,33.665,33.665,0,0,1-5.732,2.627,3.235,3.235,0,0,1-1.432.187,1.24,1.24,0,0,1-1.05-.878,1.88,1.88,0,0,1,.63-1.487,17.254,17.254,0,0,1,5.219-4.694,3.735,3.735,0,0,1,2.009-.47,1.784,1.784,0,0,1,1.563,1.193Z" transform="translate(-1.889 -11.506)" fill="#004080"/>
              <path id="パス_2313" data-name="パス 2313" d="M39.548,110.151a4.22,4.22,0,0,1-.272,1.436,11.685,11.685,0,0,1-1.574,2.559l-1.059,1.428a7.284,7.284,0,0,1-1.2,1.369,2.462,2.462,0,0,1-1.678.608.68.68,0,0,1-.45-.17.717.717,0,0,1-.136-.23,5.218,5.218,0,0,1,.162-3.312c.418-1.53.973-2.972,1.387-4.484.288-1.049.629-2.518,1.917-2.7,2.034-.276,2.949,1.712,2.906,3.5" transform="translate(-3.684 -11.919)" fill="#004080"/>
              <path id="パス_2314" data-name="パス 2314" d="M36.159,77.431l1.356-22.517-.465-5.389L26,51.2l-5.911-.28-.2,25.891,2.7,20.046c.062.464-.777.756-.776,1.21a1.616,1.616,0,0,0,1.506,1.641,4.284,4.284,0,0,0,2.21-.54,2.866,2.866,0,0,0,1.28-2.388c0-.009-.812-18.248-.812-18.248l1.7-19.5.5,9.092.6,9.258,4.69,24.435c.076,1.01.417,1.786,1.316,1.786H36a1.85,1.85,0,0,0,1.731-1.949Z" transform="translate(-2.224 -5.536)" fill="#fdc0af"/>
              <path id="パス_2315" data-name="パス 2315" d="M35.064,42.568l3.459,5.7s.63,18.91-.227,29.4a14.342,14.342,0,0,1-9.881,3.787s-9.195-1.631-12.84-4.927c0,0,.155-25.362,6.295-34.125Z" transform="translate(-1.741 -4.74)" fill="#4568c7"/>
              <path id="パス_2316" data-name="パス 2316" d="M24,18.689h0a2.51,2.51,0,0,1,1.4,3.264l-6.515,16.27a2.511,2.511,0,0,1-4.661-1.867l6.515-16.27A2.511,2.511,0,0,1,24,18.689" transform="translate(-1.569 -2.069)" fill="#d9ebfb"/>
              <path id="パス_2317" data-name="パス 2317" d="M27.3,15.691c.008,0,.016.009.024.018a.514.514,0,0,0,.009-.116.146.146,0,0,1-.033.1" transform="translate(-3.052 -1.743)" fill="#4168c3"/>
              <path id="パス_2318" data-name="パス 2318" d="M36.457,29.225l-1.3,11.049a4.811,4.811,0,0,0-.413.314c-2.518,2.163-6.056,2.376-9.456,2.3a20.159,20.159,0,0,1-2.324-.82,2.577,2.577,0,0,1-1.5-1.9L19.1,30.941l-.032-.16a5.621,5.621,0,0,1,.519-3.627l1.8-3.448.542-1.848c.175-2.033,1.871-4.062,3.329-3.143l.67.232L27,19.317l4.72,1.648,1.38.479,2.686.934a2.733,2.733,0,0,1,1.62,3.3Z" transform="translate(-2.12 -2.066)" fill="#bddcff"/>
              <path id="パス_2319" data-name="パス 2319" d="M37.4,25.694l-.946,3.543c-.474.586-.945,1.173-1.424,1.76a10.552,10.552,0,0,1-3.44,3.165c-2.314,1.081-4.971.2-7.322-.8-1.452-.61-2.893-1.265-4.309-1.959-.288-.135-.583-.283-.862-.45l-.032-.16a5.627,5.627,0,0,1,.519-3.627l1.8-3.448.684-2.332c.033-1.549,1.252-3.27,3.186-2.659l.671.232L27,19.33l4.721,1.648,1.38.479,2.685.934a2.731,2.731,0,0,1,1.62,3.3" transform="translate(-2.12 -2.079)" fill="#dceffe"/>
              <path id="パス_2320" data-name="パス 2320" d="M33.783,21.5a12.987,12.987,0,0,1-2.549,2.9,7.069,7.069,0,0,1-2.43,1.56,2.94,2.94,0,0,1-2.757-.375,2.838,2.838,0,0,1-.946-2.075,5.887,5.887,0,0,1,.439-2.29A12.754,12.754,0,0,1,26.609,19l1.073.371L32.4,21.023Z" transform="translate(-2.805 -2.124)" fill="#fdc0af"/>
              <path id="パス_2321" data-name="パス 2321" d="M17.4,31.016l.057.118a.2.2,0,0,1-.045,0c0-.038-.008-.08-.012-.122" transform="translate(-1.945 -3.467)" fill="#fff"/>
              <rect id="長方形_238" data-name="長方形 238" width="4.91" height="9.033" transform="translate(24.745 11.49)" fill="#fdc0af"/>
              <g id="グループ_432" data-name="グループ 432" transform="translate(24.693 13.086)" style="mix-blend-mode: multiply;isolation: isolate">
                <g id="グループ_431" data-name="グループ 431">
                  <g id="グループ_430" data-name="グループ 430" clip-path="url(#clip-path-3)">
                    <path id="パス_2322" data-name="パス 2322" d="M32.278,14.733l-4.454,4.672-.023-.066V16.191Z" transform="translate(-27.801 -14.733)" fill="#fdc0af"/>
                  </g>
                </g>
              </g>
              <path id="パス_2323" data-name="パス 2323" d="M21.5,7.727a3.958,3.958,0,0,0,3.751,4.136A3.958,3.958,0,0,0,29,7.727a3.958,3.958,0,0,0-3.752-4.136A3.958,3.958,0,0,0,21.5,7.727" transform="translate(-2.403 -0.401)" fill="#004080"/>
              <path id="パス_2324" data-name="パス 2324" d="M33.065,10.954c.008,0,.016.009.023.017a.52.52,0,0,0,.008-.111.139.139,0,0,1-.031.094" transform="translate(-3.696 -1.214)" fill="#4168c3"/>
              <path id="パス_2325" data-name="パス 2325" d="M32.128,11.618c-.613-3.135-2.614-6.413-5.992-6.969a.358.358,0,0,1-.249-.55.448.448,0,0,1,.052-.444l-.1-.013a3.015,3.015,0,0,0-1.927.24,1.673,1.673,0,0,0-.779,1.1,1.3,1.3,0,0,0-.017.506C23.08,6.78,23.039,8.059,23,9.348c-.017.579-.033,1.169-.017,1.767a6.552,6.552,0,0,0,1.1,3.856,4.739,4.739,0,0,0,3.707,1.657,4.6,4.6,0,0,0,2.206-.932,5,5,0,0,0,2.174-3.578c.02-.107.035-.218.053-.326a.343.343,0,0,1-.094-.173" transform="translate(-2.568 -0.401)" fill="#fdc0af"/>
              <path id="パス_2326" data-name="パス 2326" d="M29.675,3.049A2.833,2.833,0,0,0,28.332,1.28,2.346,2.346,0,0,0,27.043.95a2.55,2.55,0,0,0-1.885.486c-.414.179-.83.393-1.241.616a7.573,7.573,0,0,0-2.556,1.96,4.218,4.218,0,0,0-.706,3.5,3.811,3.811,0,0,0,1.289,2.08c.1.381.358-.407.46-.025.155-1.17.83-.985,1.8-1.661a23.96,23.96,0,0,1,3.137-1.631A5.45,5.45,0,0,0,29.2,4.922a2.481,2.481,0,0,0,.327-.524,1.331,1.331,0,0,0,.144-1.348" transform="translate(-2.295 -0.101)" fill="#0095e0"/>
              <path id="パス_2327" data-name="パス 2327" d="M11.438,39.838a3.442,3.442,0,1,0,3.44-3.336,3.39,3.39,0,0,0-3.44,3.336" transform="translate(-1.279 -4.08)" fill="#d9ebfb"/>
              <path id="パス_2328" data-name="パス 2328" d="M14.379,40.114h0a2.71,2.71,0,0,1-2.364,3.018L3.039,44.526a2.711,2.711,0,0,1-.655-5.383l8.976-1.394a2.712,2.712,0,0,1,3.018,2.364" transform="translate(0 -4.217)" fill="#fdc0af"/>
              <path id="パス_2329" data-name="パス 2329" d="M9.457,45.387C9,46.3,7.469,46.976,5.651,46.976S2.306,46.3,1.845,45.387L1.7,44.143V38.69h.1c.4-.962,1.972-1.68,3.85-1.68S9.1,37.728,9.5,38.69h.1v.482Z" transform="translate(-0.19 -4.137)" fill="#d9ebfb"/>
              <path id="パス_2330" data-name="パス 2330" d="M1.7,38.9c0,1.2,1.769,2.166,3.952,2.166S9.6,40.1,9.6,38.9s-1.77-2.166-3.953-2.166S1.7,37.7,1.7,38.9" transform="translate(-0.19 -4.106)" fill="#fff"/>
              <path id="パス_2331" data-name="パス 2331" d="M2.978,38.927c0,.853,1.261,1.544,2.817,1.544s2.816-.691,2.816-1.544-1.26-1.544-2.816-1.544-2.817.691-2.817,1.544" transform="translate(-0.333 -4.179)" fill="#004080"/>
              <path id="パス_2332" data-name="パス 2332" d="M32.954,11.416a8.347,8.347,0,0,1-3.739-7.27,5.853,5.853,0,0,1,3.643,7.465Z" transform="translate(-3.265 -0.463)" fill="#0095e0"/>
              <path id="パス_2333" data-name="パス 2333" d="M47.1,38.531a24.1,24.1,0,0,1-2.086,2.5,16.7,16.7,0,0,0-1.848,2.251,9.972,9.972,0,0,0-1.091,2.143,1.856,1.856,0,0,0-.125.649,2.6,2.6,0,0,1-3.914,3.415,5.19,5.19,0,0,1-1.1-4.879,13.486,13.486,0,0,1,1.835-4.1,20.709,20.709,0,0,1,2.416-3,19.711,19.711,0,0,0,1.657-1.957c.767-1.1,1.048-2.364.658-2.948a5.317,5.317,0,0,0-1.394-1.091L36.143,27.7a2.6,2.6,0,0,1,2.8-4.376l5.97,3.818a9.323,9.323,0,0,1,2.913,2.58c1.615,2.416,1.329,5.875-.723,8.809" transform="translate(-3.906 -2.561)" fill="#dceffe"/>
              <path id="パス_2334" data-name="パス 2334" d="M37.362,13.951a18.9,18.9,0,0,0-.373-3.34,4.438,4.438,0,0,0-.91-2.159,1.891,1.891,0,0,0-2.137-.565c-1.119.544-1.05,2.121-.98,3.364.408,7.219-6.859,11.472-6.782,18.614.028,2.6,1.306,4.992,2.551,7.268.263.481.677,1.037,1.213.929a1.22,1.22,0,0,0,.645-.474,12.907,12.907,0,0,0,2.658-6.3c.584-3.625-.025-6.878,1.453-10.321.534-1.244,1.408-2.31,2.017-3.519a7.719,7.719,0,0,0,.645-3.5" transform="translate(-2.926 -0.866)" fill="#0095e0"/>
              <path id="パス_2335" data-name="パス 2335" d="M32.636,12.862a.344.344,0,0,0,.342.038A.92.92,0,0,1,33,12.779Z" transform="translate(-3.648 -1.428)" fill="#fdc0af"/>
              <path id="パス_2336" data-name="パス 2336" d="M35.062,10.148c-.536-.186-1.065.411-1.3,1.092a6.024,6.024,0,0,1-.36,1.017.77.77,0,0,1-.388.346,1.152,1.152,0,0,0,.58,1.332,1.348,1.348,0,0,0,1.3-.525,2.864,2.864,0,0,0,.838-1.641c.083-.674-.189-1.453-.675-1.622" transform="translate(-3.686 -1.13)" fill="#fdc0af"/>
              <path id="パス_2337" data-name="パス 2337" d="M41.929,52.416a2.6,2.6,0,0,1-3.667-.2,5.19,5.19,0,0,1-1.1-4.879,5.224,5.224,0,0,0,5.138.814,1.879,1.879,0,0,0-.125.649,2.6,2.6,0,0,1-.247,3.614" transform="translate(-4.134 -5.291)" fill="#fdc0af"/>
            </g>
          </g>
        </g>
      </g>
      <g id="グループ_370" data-name="グループ 370" transform="translate(956 1746.145)">
        <g id="グループ_411" data-name="グループ 411" clip-path="url(#clip-path-4)">
          <g id="グループ_410" data-name="グループ 410">
            <g id="グループ_409" data-name="グループ 409" clip-path="url(#clip-path-4)">
              <path id="パス_2120" data-name="パス 2120" d="M97.944,110.711c-6.561-3.787-17.2-3.787-23.757,0s-6.561,9.929,0,13.717,17.2,3.787,23.757,0,6.561-9.93,0-13.717" transform="translate(23.493 36.587)" fill="#c5defb"/>
              <path id="パス_2121" data-name="パス 2121" d="M125.008,87.918l-75.561,43.4L0,101.646,75.858,58.32Z" transform="translate(0 19.78)" fill="#7fa7df"/>
              <path id="パス_2122" data-name="パス 2122" d="M38.727,114.774a2.241,2.241,0,0,0,2.03,0,.618.618,0,0,0,0-1.172,2.241,2.241,0,0,0-2.03,0,.618.618,0,0,0,0,1.172" transform="translate(12.992 38.448)" fill="#bedcfc"/>
              <path id="パス_2123" data-name="パス 2123" d="M38.306,93.925v26.683a.323.323,0,0,0,.021.1.236.236,0,0,0,.209.125h2.412a.234.234,0,0,0,.208-.125.293.293,0,0,0,.023-.1V93.925a.232.232,0,0,0-.23-.23H38.536a.232.232,0,0,0-.23.23" transform="translate(12.992 31.778)" fill="#bedcfc"/>
              <g id="グループ_393" data-name="グループ 393" transform="translate(51.298 125.474)" opacity="0.63" style="mix-blend-mode: multiply;isolation: isolate">
                <g id="グループ_392" data-name="グループ 392">
                  <g id="グループ_391" data-name="グループ 391" clip-path="url(#clip-path-6)">
                    <path id="パス_2124" data-name="パス 2124" d="M38.306,98.495a.2.2,0,0,0,.027.1.47.47,0,0,0-.027.153.706.706,0,0,0,.421.584,2.236,2.236,0,0,0,2.032,0,.706.706,0,0,0,.42-.584.47.47,0,0,0-.027-.153.2.2,0,0,0,.027-.1V93.925a.232.232,0,0,0-.23-.23H38.536a.232.232,0,0,0-.23.23Z" transform="translate(-38.306 -93.696)" fill="#bedcfc"/>
                  </g>
                </g>
              </g>
              <path id="パス_2125" data-name="パス 2125" d="M95.8,83.118a2.241,2.241,0,0,0,2.03,0,.618.618,0,0,0,0-1.172,2.241,2.241,0,0,0-2.03,0,.618.618,0,0,0,0,1.172" transform="translate(32.348 27.711)" fill="#bedcfc"/>
              <path id="パス_2126" data-name="パス 2126" d="M95.375,62.269V88.952a.323.323,0,0,0,.021.1.236.236,0,0,0,.209.125h2.412a.234.234,0,0,0,.208-.125.293.293,0,0,0,.023-.1V62.269a.231.231,0,0,0-.23-.229H95.605a.231.231,0,0,0-.23.229" transform="translate(32.348 21.042)" fill="#bedcfc"/>
              <g id="グループ_396" data-name="グループ 396" transform="translate(127.724 83.082)" opacity="0.63" style="mix-blend-mode: multiply;isolation: isolate">
                <g id="グループ_395" data-name="グループ 395">
                  <g id="グループ_394" data-name="グループ 394" clip-path="url(#clip-path-6)">
                    <path id="パス_2127" data-name="パス 2127" d="M95.375,66.84a.2.2,0,0,0,.027.1.47.47,0,0,0-.027.153.706.706,0,0,0,.42.584,2.236,2.236,0,0,0,2.032,0,.706.706,0,0,0,.42-.584.47.47,0,0,0-.027-.153.2.2,0,0,0,.027-.1V62.269a.232.232,0,0,0-.23-.229H95.605a.232.232,0,0,0-.23.229Z" transform="translate(-95.376 -62.039)" fill="#bedcfc"/>
                  </g>
                </g>
              </g>
              <path id="パス_2128" data-name="パス 2128" d="M4.064,94.507a2.241,2.241,0,0,0,2.03,0,.618.618,0,0,0,0-1.172,2.241,2.241,0,0,0-2.03,0,.618.618,0,0,0,0,1.172" transform="translate(1.236 31.574)" fill="#bedcfc"/>
              <path id="パス_2129" data-name="パス 2129" d="M3.643,73.658v26.683a.291.291,0,0,0,.021.1.237.237,0,0,0,.208.126H6.285a.235.235,0,0,0,.208-.126.293.293,0,0,0,.023-.1V73.658a.231.231,0,0,0-.23-.229H3.872a.231.231,0,0,0-.229.229" transform="translate(1.236 24.905)" fill="#bedcfc"/>
              <path id="パス_2130" data-name="パス 2130" d="M100.58,58.266l.165,3.714-8.68,5.156.434-3.119Z" transform="translate(31.225 19.762)" fill="#bedcfc"/>
              <g id="グループ_399" data-name="グループ 399" transform="translate(5.607 95.153)" opacity="0.18">
                <g id="グループ_398" data-name="グループ 398">
                  <g id="グループ_397" data-name="グループ 397" clip-path="url(#clip-path-8)">
                    <path id="パス_2131" data-name="パス 2131" d="M8.317,84.952c5.507,3.179,14.434,3.179,19.94,0s5.507-8.334,0-11.513-14.434-3.179-19.94,0-5.507,8.334,0,11.513" transform="translate(-4.187 -71.054)" fill="#5873dd"/>
                  </g>
                </g>
              </g>
              <path id="パス_2132" data-name="パス 2132" d="M12.891,44.323a2.36,2.36,0,0,1-1.565-1.4,3.935,3.935,0,0,1,1.148-4.509,18.892,18.892,0,0,1,3.565-1.844c1.9-.85,4.777-2.136,5.922-3.266a1.282,1.282,0,0,0,.3-1.327,3.254,3.254,0,0,1-.129-.43l-2.7-11.753a3.831,3.831,0,0,1,1.856-4.214,2.3,2.3,0,0,1,3.245,1.832l2.653,11.561a9.3,9.3,0,0,1-2.2,9.223c-1.931,1.907-5.094,3.322-7.636,4.459a25.42,25.42,0,0,0-2.469,1.189,2.337,2.337,0,0,1-1.989.478" transform="translate(3.742 5.207)" fill="#83bbef"/>
              <path id="パス_2133" data-name="パス 2133" d="M14.765,37.269h0a2.262,2.262,0,0,0,.3-2.874,2.9,2.9,0,0,0-2.07-1.1,1.9,1.9,0,0,0-1.579.637,3.7,3.7,0,0,0-.617,1.345,9.607,9.607,0,0,0-.461,3.044c.058,1.37.637,2.7,1.811,2.99a1.689,1.689,0,0,0,1.531-.43c1.286-1.137-.005-2.186,1.082-3.61" transform="translate(3.506 11.291)" fill="#ffbca8"/>
              <path id="パス_2134" data-name="パス 2134" d="M12.14,74.184a2.1,2.1,0,0,1,.071.269Z" transform="translate(4.118 25.161)" fill="#004aab"/>
              <path id="パス_2135" data-name="パス 2135" d="M12.183,74.347l-.025-.068c-.047-.193-.1-.384-.146-.575Z" transform="translate(4.074 24.998)" fill="#004aab"/>
              <path id="パス_2136" data-name="パス 2136" d="M8.342,75.137a1.818,1.818,0,0,1,1.7-2.023,4.085,4.085,0,0,1,2.361.225,2.141,2.141,0,0,1,1,1.161c.479,1.306,1.859,12.4-.889,10.984-2.988-1.536-4.26-7.39-4.172-10.346" transform="translate(2.828 24.775)" fill="#004aab"/>
              <path id="パス_2137" data-name="パス 2137" d="M16.076,71.267c2.24-2.594,4.761,1.087,5.951,2.613.81,1.038,3.624,3.791,3.316,5.236-.107.506-.169.483-.67.617a3.131,3.131,0,0,1-1.536-.058A8.748,8.748,0,0,1,17.2,75.261c-.048.635-.062,1.271-.054,1.907a.183.183,0,0,1-.283.15q-.372-.243-.727-.5c-.885-.655-.5-1.582-.734-2.637a3.305,3.305,0,0,1,.67-2.91" transform="translate(5.194 23.866)" fill="#004aab"/>
              <path id="パス_2138" data-name="パス 2138" d="M9.475,86.71A3.268,3.268,0,0,0,9.3,88.549a8.929,8.929,0,0,0,2.958,5.517.918.918,0,0,0,.5.212c.35,0,.579-.341.674-.655a9.786,9.786,0,0,0,.043-3.025l-.358-2.977,3.47-24.414.628-9.27.514-9.1.97,19.525.348,19.089c-.008.183-.036-.167,0,0-1.215,2.018,3.057,5.1,4.486,5.568.7.23,1.934.387,1.786-.8A2.962,2.962,0,0,0,24.6,86.9c-.441-.593-1.694-2.435-1.595-3.16.028-.212,2.851-21.107,2.851-21.107l.692-28.523-7.055,2.881-11.5-1.682,1.918,5.4L9.785,63.252Z" transform="translate(2.712 11.57)" fill="#ffbca8"/>
              <path id="パス_2139" data-name="パス 2139" d="M24.933,30.142l1.342,2.044a9.608,9.608,0,0,1,1.58,5.383l-.36,27.8s-12.774,6.218-19.386-.836l-.288-19.9s-1.572-11.21,3.166-13.823Z" transform="translate(2.568 10.223)" fill="#004aab"/>
              <path id="パス_2140" data-name="パス 2140" d="M16.19,12.053c-.008,0-.017.009-.025.019a.608.608,0,0,1-.008-.121.146.146,0,0,0,.033.1" transform="translate(5.48 4.053)" fill="#714e51"/>
              <path id="パス_2141" data-name="パス 2141" d="M17.133,15.012c.059,0,.118.016.177.024l-.463-.445c.1.138.192.279.287.42" transform="translate(5.714 4.949)" fill="#ffbca8"/>
              <path id="パス_2142" data-name="パス 2142" d="M8.029,22.282,9,25.938l1.919,11.1c.2.751,1.513,1.371,2.169,1.7,1.765.874,5.2,1.308,10.274-.841a2.656,2.656,0,0,0,1.541-1.961l2-8.228.031-.165A5.792,5.792,0,0,0,26.4,23.8L24.55,20.247v-1.9A3.177,3.177,0,0,0,20.558,15.1l-1.8.623-4.869,1.7L9.7,18.877a2.816,2.816,0,0,0-1.669,3.406" transform="translate(2.689 5.074)" fill="#83bbef"/>
              <path id="パス_2143" data-name="パス 2143" d="M8.029,22.282,9,25.938c.489.6.978,1.212,1.47,1.816a10.862,10.862,0,0,0,3.546,3.262c2.388,1.116,5.129.2,7.552-.824q2.248-.946,4.446-2.019c.3-.142.6-.292.889-.466l.031-.165A5.792,5.792,0,0,0,26.4,23.8L24.55,20.247v-1.9A3.177,3.177,0,0,0,20.558,15.1l-1.8.623-4.869,1.7L9.7,18.877a2.816,2.816,0,0,0-1.669,3.406" transform="translate(2.689 5.074)" fill="#83bbef"/>
              <path id="パス_2144" data-name="パス 2144" d="M11.357,19.169l3.172,3.557a.852.852,0,0,0,1.33-.071L17.7,20.093l2.65.473a.529.529,0,0,0,.621-.521v-.822a3.857,3.857,0,0,0-3.049-3.772,8.8,8.8,0,0,0-1.852-.193,7.757,7.757,0,0,0-4.446,1.29,1.774,1.774,0,0,0-.272,2.622" transform="translate(3.697 5.175)" fill="#d9edfe"/>
              <path id="パス_2145" data-name="パス 2145" d="M12.841,17.231a1.579,1.579,0,0,0,.5,1.12,3.207,3.207,0,0,0,2.252.824,3.23,3.23,0,0,0,2.214-.785,1.508,1.508,0,0,0,0-2.317c-.032-.029-.068-.062-.1-.09l-.008-.008a3.125,3.125,0,0,0-1.529-.64c-.092-.015-.186-.025-.284-.032s-.19-.011-.288-.011a3.2,3.2,0,0,0-2.252.824,1.57,1.57,0,0,0-.5,1.116" transform="translate(4.355 5.187)" fill="#385fc7"/>
              <path id="パス_2146" data-name="パス 2146" d="M13.217,12.347v7a3.2,3.2,0,0,0,2.252.824,3.239,3.239,0,0,0,2.214-.783V12.347Z" transform="translate(4.483 4.188)" fill="#ffbca8"/>
              <g id="グループ_402" data-name="グループ 402" transform="translate(17.931 17.506)" opacity="0.71" style="mix-blend-mode: multiply;isolation: isolate">
                <g id="グループ_401" data-name="グループ 401">
                  <g id="グループ_400" data-name="グループ 400" clip-path="url(#clip-path-9)">
                    <path id="パス_2147" data-name="パス 2147" d="M17.448,18.912,15.995,16.82l-.271-.387-1.947-2.789-.387-.572.339.02,1.744.1a26.519,26.519,0,0,1,2.149,2.286Z" transform="translate(-13.39 -13.072)" fill="#ffbca8"/>
                  </g>
                </g>
              </g>
              <path id="パス_2148" data-name="パス 2148" d="M16.812,41.4a19.765,19.765,0,0,0,5.718-.806A2.6,2.6,0,0,0,21,35.625a14.942,14.942,0,0,1-9.682-.474c-.893-.43-.611-2.635-.182-5.258.074-.446.145-.885.208-1.312q.364-2.481.739-4.96l.384-2.555A2.6,2.6,0,0,0,7.328,20.3l-.383,2.548Q6.57,25.337,6.2,27.828c-.058.4-.126.809-.194,1.225C5.446,32.491,4.6,37.686,9.069,39.835A18.4,18.4,0,0,0,16.812,41.4" transform="translate(1.882 6.133)" fill="#83bbef"/>
              <path id="パス_2149" data-name="パス 2149" d="M23.288,23.459l-.059.122a.185.185,0,0,0,.047,0c0-.039.008-.083.012-.126" transform="translate(7.879 7.957)" fill="#d9edfe"/>
              <path id="パス_2150" data-name="パス 2150" d="M19.2,35.166A17.809,17.809,0,0,0,20,29.259c-1.086.169-1.935,1.643-1.935,3.439a4.208,4.208,0,0,0,1.032,2.952,2.125,2.125,0,0,1,.108-.483" transform="translate(6.126 9.924)" fill="#ffbca8"/>
              <path id="パス_2151" data-name="パス 2151" d="M29.458,22.508l1.024.266a.088.088,0,0,1,.054.129L19.275,42.656l-.956-.291,1.969-9.4Z" transform="translate(6.213 7.634)" fill="#004aab"/>
              <path id="パス_2152" data-name="パス 2152" d="M26.524,38.091l-7.712,4.188c-.49.266-.876-.04-.86-.686L20.43,28.415a2.108,2.108,0,0,1,.921-1.651l7.712-4.188c.49-.268.876.04.86.686l-2.48,13.176a2.1,2.1,0,0,1-.919,1.653" transform="translate(6.089 7.624)" fill="#004aab"/>
              <path id="パス_2153" data-name="パス 2153" d="M27.356,38.34l-7.711,4.188c-.491.266-.877-.04-.86-.686l2.477-13.177a2.1,2.1,0,0,1,.921-1.651l7.711-4.188c.491-.266.876.04.86.686L28.276,36.687a2.1,2.1,0,0,1-.92,1.653" transform="translate(6.371 7.709)" fill="#385fc7"/>
              <path id="パス_2154" data-name="パス 2154" d="M22.685,31.42c-1.023-.809-3.029-.529-4.149.165-1.168.724-1.785,4.7,0,4.694a9.31,9.31,0,0,0,3.647-1.042,2.537,2.537,0,0,0,.639-.359,2.572,2.572,0,0,0,.479-2.31,1.656,1.656,0,0,0-.62-1.148" transform="translate(5.908 10.489)" fill="#ffbca8"/>
              <path id="パス_2155" data-name="パス 2155" d="M10.349,7.547c.146-4.767,4.386-3.732,8.439-3.385a4.18,4.18,0,0,1,1.1.194,3.311,3.311,0,0,1,.833.493c2.365,1.781,3.987,4.492,3.668,7.221-.6,5.125-7.846,7.068-11.741,3.29-2.1-2.041-2.382-5.054-2.3-7.813" transform="translate(3.506 1.297)" fill="#004aab"/>
              <path id="パス_2156" data-name="パス 2156" d="M23.514,13.225a6.8,6.8,0,0,1-1.185,4.066,5.158,5.158,0,0,1-4,1.746,4.422,4.422,0,0,1-2.378-.524c-1.362-.816-2-2.571-2.344-4.23a13.753,13.753,0,0,1-.257-1.912,7.12,7.12,0,0,1,.212-2.164A6.232,6.232,0,0,1,16.29,6.655a9.8,9.8,0,0,1,4.138-1.31,3.313,3.313,0,0,1,2.078.253,1.769,1.769,0,0,1,.841,1.164,1.355,1.355,0,0,1,.017.534c.044,1.358.088,2.706.133,4.066.017.611.035,1.232.017,1.863" transform="translate(4.526 1.795)" fill="#ffbca8"/>
              <path id="パス_2157" data-name="パス 2157" d="M14.377,4.111c1.477-2.449,8.4.037,9.279,3.044a7.267,7.267,0,0,1-.2,3.957,3.694,3.694,0,0,0-2.91-.828,9.17,9.17,0,0,1-3.1-.06,4.477,4.477,0,0,1-2.587-2.4c-.872-1.772-.924-2.968-.475-3.711" transform="translate(4.782 1.057)" fill="#004aab"/>
              <path id="パス_2158" data-name="パス 2158" d="M16.846,2.01a4.308,4.308,0,0,0-6.814-.616A4.309,4.309,0,0,0,12.147,7.9a4.213,4.213,0,0,0,4.875-2.433A4.153,4.153,0,0,0,15.057.4Z" transform="translate(3.138 0)" fill="#004aab"/>
              <path id="パス_2159" data-name="パス 2159" d="M20.415,8.578a9.208,9.208,0,0,1-2.133,3.274,5.378,5.378,0,0,1-3.533,1.525,2.112,2.112,0,0,1-1.675-.619,2.283,2.283,0,0,1-.407-.9,5.891,5.891,0,0,1,.241-3.851,4.479,4.479,0,0,1,2.848-2.523,5.034,5.034,0,0,1,3.936.774,2.434,2.434,0,0,1,1.351,2.389Z" transform="translate(4.224 1.815)" fill="#004aab"/>
              <path id="パス_2160" data-name="パス 2160" d="M16.8,13.657l.165-.28-3.87-2.262-.163.281Z" transform="translate(4.386 3.77)" fill="#004aab"/>
              <path id="パス_2161" data-name="パス 2161" d="M14.519,12.627a.327.327,0,0,1-.327.036.889.889,0,0,0-.021-.117Z" transform="translate(4.806 4.256)" fill="#ffbca8"/>
              <path id="パス_2162" data-name="パス 2162" d="M12.894,10.891c.512-.177,1.018.392,1.24,1.043a5.748,5.748,0,0,0,.346.972.732.732,0,0,0,.371.331,1.105,1.105,0,0,1-.556,1.274,1.292,1.292,0,0,1-1.247-.5,2.747,2.747,0,0,1-.8-1.568c-.078-.644.182-1.389.647-1.549" transform="translate(4.149 3.683)" fill="#ffbca8"/>
              <path id="パス_2163" data-name="パス 2163" d="M19.321,11.236c-.094-.319-.3-.433-.537-.3a1.419,1.419,0,0,0-.537.916l-.153-.025a1.826,1.826,0,0,1,.69-1.177c.3-.175.569-.029.69.38Z" transform="translate(6.137 3.589)" fill="#fab300"/>
              <path id="パス_2164" data-name="パス 2164" d="M19.321,11.236c-.094-.319-.3-.433-.537-.3a1.419,1.419,0,0,0-.537.916l-.153-.025a1.826,1.826,0,0,1,.69-1.177c.3-.175.569-.029.69.38Z" transform="translate(6.137 3.589)" fill="#004aab"/>
              <path id="パス_2165" data-name="パス 2165" d="M16.3,15.01a1.247,1.247,0,0,1-.537-1.149A3.629,3.629,0,0,1,17.4,11.022a1.108,1.108,0,0,1,1.8,1.041A3.625,3.625,0,0,1,17.561,14.9a1.574,1.574,0,0,1-.778.236.96.96,0,0,1-.486-.126M17.561,11.3a3.269,3.269,0,0,0-1.477,2.558.944.944,0,0,0,.376.868.944.944,0,0,0,.939-.11,3.268,3.268,0,0,0,1.476-2.556.942.942,0,0,0-.375-.868.643.643,0,0,0-.325-.083,1.256,1.256,0,0,0-.613.191" transform="translate(5.345 3.658)" fill="#004aab"/>
              <path id="パス_2166" data-name="パス 2166" d="M19.393,13.223a1.249,1.249,0,0,1-.538-1.149A3.627,3.627,0,0,1,20.5,9.235a1.106,1.106,0,0,1,1.8,1.041,3.627,3.627,0,0,1-1.638,2.838,1.574,1.574,0,0,1-.778.236.957.957,0,0,1-.486-.126m1.264-3.707a3.266,3.266,0,0,0-1.477,2.558.793.793,0,0,0,1.315.758,3.268,3.268,0,0,0,1.476-2.556.939.939,0,0,0-.376-.868.63.63,0,0,0-.325-.083,1.251,1.251,0,0,0-.612.192" transform="translate(6.395 3.052)" fill="#004aab"/>
              <g id="グループ_405" data-name="グループ 405" transform="translate(4.878 98.333)" opacity="0.63" style="mix-blend-mode: multiply;isolation: isolate">
                <g id="グループ_404" data-name="グループ 404">
                  <g id="グループ_403" data-name="グループ 403" clip-path="url(#clip-path-6)">
                    <path id="パス_2167" data-name="パス 2167" d="M3.643,78.228a.2.2,0,0,0,.025.1.468.468,0,0,0-.025.153.706.706,0,0,0,.42.584,2.236,2.236,0,0,0,2.032,0,.706.706,0,0,0,.42-.584.47.47,0,0,0-.027-.153.2.2,0,0,0,.027-.1V73.657a.232.232,0,0,0-.23-.229H3.872a.232.232,0,0,0-.229.229Z" transform="translate(-3.643 -73.428)" fill="#bedcfc"/>
                  </g>
                </g>
              </g>
              <path id="パス_2168" data-name="パス 2168" d="M1.38,73.8V70.667l9.445,6.073-.631,1.681Z" transform="translate(0.468 23.968)" fill="#bedcfc"/>
              <path id="パス_2169" data-name="パス 2169" d="M130.153,67.613,85.9,41.746a10.024,10.024,0,0,0-10.03-.05L2.83,83.416A2.641,2.641,0,0,0,2.818,88l44.968,25.969a10.025,10.025,0,0,0,10.028,0L130.141,72.18a2.641,2.641,0,0,0,.012-4.567" transform="translate(0.508 13.694)" fill="#ecf5fc"/>
              <path id="パス_2170" data-name="パス 2170" d="M130.034,64.023,85.785,38.156a10.024,10.024,0,0,0-10.03-.05L2.711,79.826a2.641,2.641,0,0,0-.012,4.58l44.968,25.969a10.025,10.025,0,0,0,10.028,0L130.022,68.59a2.641,2.641,0,0,0,.012-4.567" transform="translate(0.468 12.477)" fill="#d5e8fa"/>
              <path id="パス_2171" data-name="パス 2171" d="M61.367,82.477,83.829,69.508a1.125,1.125,0,0,0,0-2.132L75,62.278a4.077,4.077,0,0,0-3.692,0L48.846,75.246a1.125,1.125,0,0,0,0,2.132l8.829,5.1a4.085,4.085,0,0,0,3.692,0" transform="translate(16.307 20.973)" fill="#83bbef"/>
              <path id="パス_2172" data-name="パス 2172" d="M84.594,65.56v2.131L59.521,81.654l-11.441-6.6V73.43Z" transform="translate(16.307 22.236)" fill="#83bbef"/>
              <path id="パス_2173" data-name="パス 2173" d="M61.367,81.267,83.829,68.3a1.125,1.125,0,0,0,0-2.132L75,61.069a4.085,4.085,0,0,0-3.692,0L48.846,74.037a1.125,1.125,0,0,0,0,2.132l8.829,5.1a4.085,4.085,0,0,0,3.692,0" transform="translate(16.307 20.563)" fill="#b6d9ff"/>
              <path id="パス_2174" data-name="パス 2174" d="M54.9,77.131,76.665,64.566l-1.912-1.1L52.988,76.027Z" transform="translate(17.972 21.524)" fill="#b6d9ff"/>
              <path id="パス_2175" data-name="パス 2175" d="M57.35,78.545,79.114,65.98l-1.912-1.1L55.438,77.441Z" transform="translate(18.803 22.004)" fill="#b6d9ff"/>
              <path id="パス_2176" data-name="パス 2176" d="M76.122,64.5,54.791,76.818l-1.48-.854,21.33-12.316Z" transform="translate(18.082 21.587)" fill="#fff"/>
              <path id="パス_2177" data-name="パス 2177" d="M78.571,65.916,57.24,78.232l-1.48-.856,21.33-12.315Z" transform="translate(18.912 22.067)" fill="#fff"/>
              <path id="パス_2178" data-name="パス 2178" d="M73.738,62.9,52.408,75.212l-1.48-.856,21.33-12.315Z" transform="translate(17.273 21.043)" fill="#fff"/>
              <path id="パス_2179" data-name="パス 2179" d="M37.533,76.884c0,1.428,2.18,2.586,4.868,2.586s4.869-1.158,4.869-2.586S45.09,74.3,42.4,74.3s-4.868,1.158-4.868,2.586" transform="translate(12.73 25.2)" fill="#83bbef"/>
              <path id="パス_2180" data-name="パス 2180" d="M37.533,75.927c0,1.428,2.18,2.586,4.868,2.586s4.869-1.158,4.869-2.586-2.18-2.586-4.869-2.586-4.868,1.158-4.868,2.586" transform="translate(12.73 24.875)" fill="#bedcfc"/>
              <path id="パス_2181" data-name="パス 2181" d="M39.4,102.836l-.5-.289c-.076-.044-.075-.115,0-.159l.5-.288a.3.3,0,0,1,.276,0l.5.288c.075.044.074.115,0,.159l-.5.289a.3.3,0,0,1-.276,0" transform="translate(13.176 34.618)" fill="#004aab"/>
              <path id="パス_2182" data-name="パス 2182" d="M61.153,111.424h-.645a.646.646,0,0,1-.645-.647v-3.353a.646.646,0,0,1,.645-.647h.645a.646.646,0,0,1,.647.647v3.353a.646.646,0,0,1-.647.647" transform="translate(20.303 36.215)" fill="#004aab"/>
              <path id="パス_2183" data-name="パス 2183" d="M62.953,87.743l-.068,1.488-.858,20.949c0,.078.011.063.015.029a3.094,3.094,0,0,1,.2,1.1,5.859,5.859,0,0,1-4.122,1.383,14.569,14.569,0,0,0-.265-3.049c-.029-.224-1.691-20.931-1.691-20.931V88.7c2.552.064,4.241-1.1,6.794-.955" transform="translate(19.047 29.756)" fill="#ffbca8"/>
              <path id="パス_2184" data-name="パス 2184" d="M59.523,108.913c-1.663,1.176-1.5,2.278-4,1.663a4.628,4.628,0,0,1-2.16-1.034,1.711,1.711,0,0,1-.408-2.066,2.759,2.759,0,0,1,1.807-1,11.167,11.167,0,0,1,3.581-.208,3.069,3.069,0,0,1,1.61.529c.887.714.315,1.592-.431,2.12" transform="translate(17.894 36.021)" fill="#004aab"/>
              <path id="パス_2185" data-name="パス 2185" d="M59.612,104.764a4.37,4.37,0,0,0-1.124.808,16.116,16.116,0,0,0-3.408,3.481,2.935,2.935,0,0,0,2.032,1.608,13.876,13.876,0,0,0,1.582-.558,8.623,8.623,0,0,0,3.493-2.9c.106-.153.208-.358.1-.512L60.9,105.347c-1.4-1.351-3.459.577-4.867,1.311-.532.277-1.136.663-1.157,1.263-.019.561.5.988,1.006,1.229a4.84,4.84,0,0,0,1.586.439Z" transform="translate(18.611 35.533)" fill="#ffbca8"/>
              <path id="パス_2186" data-name="パス 2186" d="M63.335,104.988a2.211,2.211,0,0,0-2.021.293,20.131,20.131,0,0,0-2.555,2.3c-1.177,1.023-2.361,1.595-3.8.937-.474.288-.806.619-.791,1,.021.556,1.019,1.27,1.46,1.572,1.382.952,3.605-.576,4.73-1.148.885-.45,1.824-.367,2.668-.742,1.136-.506,1.5-3.144.311-4.212" transform="translate(18.372 35.565)" fill="#004aab"/>
              <path id="パス_2187" data-name="パス 2187" d="M69.872,105.911h-.644a.646.646,0,0,1-.647-.647v-3.353a.646.646,0,0,1,.647-.647h.644a.646.646,0,0,1,.647.647v3.353a.646.646,0,0,1-.647.647" transform="translate(23.261 34.346)" fill="#004aab"/>
              <path id="パス_2188" data-name="パス 2188" d="M71.7,86.065l-.068-.678-.858,18.349c0,.079.011.063.015.029a3.093,3.093,0,0,1,.2,1.1,5.851,5.851,0,0,1-4.122,1.382A14.552,14.552,0,0,0,66.6,103.2c-.029-.224-1.259-17.465-1.259-17.465V85.72c2.551.064,3.807.2,6.36.344" transform="translate(22.163 28.961)" fill="#ffbca8"/>
              <path id="パス_2189" data-name="パス 2189" d="M68.384,103.507c-1.663,1.176-1.5,2.278-4,1.663a4.63,4.63,0,0,1-2.16-1.035,1.707,1.707,0,0,1-.408-2.065,2.759,2.759,0,0,1,1.807-1,11.129,11.129,0,0,1,3.581-.208,3.058,3.058,0,0,1,1.61.529c.887.714.315,1.592-.431,2.12" transform="translate(20.9 34.188)" fill="#004aab"/>
              <path id="パス_2190" data-name="パス 2190" d="M68.472,99.358a4.393,4.393,0,0,0-1.124.808,16.115,16.115,0,0,0-3.408,3.48,2.94,2.94,0,0,0,2.032,1.61,14.078,14.078,0,0,0,1.582-.56,8.614,8.614,0,0,0,3.493-2.9c.106-.153.208-.358.1-.51l-1.393-1.349c-1.4-1.351-3.459.577-4.867,1.311-.532.277-1.136.664-1.156,1.263-.02.561.5.988,1,1.229a4.84,4.84,0,0,0,1.586.439Z" transform="translate(21.616 33.699)" fill="#ffbca8"/>
              <path id="パス_2191" data-name="パス 2191" d="M72.2,99.582a2.212,2.212,0,0,0-2.021.293,20.13,20.13,0,0,0-2.555,2.3c-1.176,1.023-2.361,1.595-3.8.937-.474.288-.806.619-.791,1,.021.557,1.019,1.271,1.46,1.574,1.382.952,3.605-.576,4.73-1.148.885-.45,1.824-.367,2.668-.742,1.136-.506,1.5-3.144.311-4.212" transform="translate(21.377 33.731)" fill="#004aab"/>
              <path id="パス_2192" data-name="パス 2192" d="M52.872,54.461s-2.46,6.72,0,8.141l1.191.687h0l4.666,2.694a.729.729,0,0,1,0,1.379l-6.553,3.784a2.588,2.588,0,0,1-2.376-.02l-3.328-1.967-.033.016-1.061-.664-.146-.086c-.015-.009-.023-.019-.036-.028l-1.132-.712s-2.081-1.524-2.081-6.94Z" transform="translate(14.24 18.472)" fill="#bedcfc"/>
              <path id="パス_2193" data-name="パス 2193" d="M41.984,59.8c0,5.416,2.081,6.94,2.081,6.94l1.134.714a.117.117,0,0,1,.035.029l.145.084q.486.305,1.062.666l.036-.019.383.229L49.8,70.181a2.583,2.583,0,0,0,2.381.019l6.549-3.784a.728.728,0,0,0,0-1.379l-2.945-1.7-1.715-.99h-.005c-.426-.246-.834-.479-1.188-.69-2.405-1.386-.119-7.809-.005-8.127V53.52h-.007Z" transform="translate(14.24 18.152)" fill="#f1f4f9"/>
              <path id="パス_2194" data-name="パス 2194" d="M41.984,59.8c0,5.416,2.081,6.94,2.081,6.94l1.134.714a.117.117,0,0,1,.035.029l.145.084q.486.305,1.062.666l.036-.019.383.229,8.924-5.11-1.715-.99h-.005c-.426-.246-.834-.479-1.188-.69-2.405-1.386-.119-7.809-.005-8.127l-.007-.005Z" transform="translate(14.24 18.152)" fill="#eef5fc"/>
              <path id="パス_2195" data-name="パス 2195" d="M30.778,47.76l34.7-20.035a1.79,1.79,0,0,1,2.273.316l1.6.9-1.725,1.219V57.271A4.755,4.755,0,0,1,65.481,61L31.5,80.619v1.543a.277.277,0,0,1-.434.228l-1.628-1.124a1.41,1.41,0,0,1-.812-1.473v-28.3a4.764,4.764,0,0,1,2.155-3.735" transform="translate(9.708 9.309)" fill="#fff"/>
              <path id="パス_2196" data-name="パス 2196" d="M30.377,52.512v28.3c0,1.377.966,1.928,2.153,1.243l34.7-20.035a4.756,4.756,0,0,0,2.153-3.728V29.99c0-1.375-.966-1.934-2.153-1.248L32.53,48.778a4.766,4.766,0,0,0-2.153,3.735" transform="translate(10.303 9.649)" fill="#474055"/>
              <path id="パス_2197" data-name="パス 2197" d="M66.116,58.365V31.117L32.326,50.626V77.873Z" transform="translate(10.964 10.554)" fill="#577de8"/>
              <path id="パス_2198" data-name="パス 2198" d="M30.377,69.169v5.469c0,1.377.966,1.93,2.153,1.244l34.7-20.035a4.759,4.759,0,0,0,2.153-3.73V46.647Z" transform="translate(10.303 15.821)" fill="#bedcfc"/>
              <path id="パス_2199" data-name="パス 2199" d="M30.945,76.361a1.75,1.75,0,0,1-.755-1.612V69.133L69.7,46.322v5.906a4.971,4.971,0,0,1-2.279,3.947L32.72,76.21a2.209,2.209,0,0,1-1.087.329,1.355,1.355,0,0,1-.687-.178m-.253-6.937v5.325a1.07,1.07,0,0,0,1.777,1.026l34.7-20.035A4.49,4.49,0,0,0,69.2,52.228V47.192Z" transform="translate(10.24 15.711)" fill="#bedcfc"/>
              <path id="パス_2200" data-name="パス 2200" d="M45.77,58.242c0,.832.584,1.169,1.3.753a2.883,2.883,0,0,0,1.306-2.259c0-.833-.585-1.169-1.306-.754a2.886,2.886,0,0,0-1.3,2.261" transform="translate(15.524 18.927)" fill="#f1f3fa"/>
              <path id="パス_2201" data-name="パス 2201" d="M46.674,41.595l9.138-5.276v6.511l-9.138,5.276Z" transform="translate(15.83 12.318)" fill="#83bbef"/>
              <path id="パス_2202" data-name="パス 2202" d="M38.485,46.322l9.14-5.276v6.511l-9.14,5.276Z" transform="translate(13.053 13.922)" fill="#83bbef"/>
              <path id="パス_2203" data-name="パス 2203" d="M46.674,48.032l9.138-5.276v6.511l-9.138,5.275Z" transform="translate(15.83 14.501)" fill="#83bbef"/>
              <path id="パス_2204" data-name="パス 2204" d="M38.485,52.76l9.138-5.276v6.51l-9.14,5.276Z" transform="translate(13.053 16.105)" fill="#83bbef"/>
              <path id="パス_2205" data-name="パス 2205" d="M81.624,76.493a13.638,13.638,0,0,0,.047-1.551c-.323-.676-.611-1.284-.607-1.336L70.936,66.577a1.837,1.837,0,0,0-1.326-.486,1.939,1.939,0,0,0-.265.031,1.845,1.845,0,0,0-.907,3.171l9.927,8.536.024.02a2,2,0,0,0,3.234-1.355" transform="translate(23.011 22.415)" fill="#ffbca8"/>
              <path id="パス_2206" data-name="パス 2206" d="M68.073,70.359c1.216,1.13,2.929,1.266,3.823.3s.636-2.661-.581-3.791-2.927-1.266-3.823-.3-.635,2.661.581,3.791" transform="translate(22.711 22.36)" fill="#ffbca8"/>
              <path id="パス_2207" data-name="パス 2207" d="M58.975,88.339,65.144,84.8c2.386-1.2,4.267.289,6.827,1.043l-.325-.324,1.205-1.88L87.1,82.638C92.092,85.466,93.057,97.6,93.057,97.6l0,.091c.589,4.924-7.083,8.626-13,9.527a9.706,9.706,0,0,1-6.057-1.065L73,105.622l-14.29-7.676c-4.305-2.435-4.154-7.386.264-9.607" transform="translate(18.848 28.028)" fill="#004aab"/>
              <path id="パス_2208" data-name="パス 2208" d="M84,86.09a18.41,18.41,0,0,0,.046,2.5,1.162,1.162,0,0,1-.529,1.086,15.294,15.294,0,0,1-2.235,1.164,12.18,12.18,0,0,1-7.2.94c-.1-.024-.187-.047-.283-.068-1.374-.352-4.362-1.164-4.631-2.866a.887.887,0,0,1-.023-.21c0-.159.013-.324.023-.487V80.515c-.743-2.212-2.108-3.791-1.428-6.6a9.991,9.991,0,0,1,1.592-3.577,9.641,9.641,0,0,1,5.392-3.481c.735-.21,1.46-.384,2.117-.521a13.057,13.057,0,0,1,4.252-.159,6.1,6.1,0,0,1,3.81,1.693,3.471,3.471,0,0,1,.319.4c1.77,2.654.83,6.368.187,9.251A47.819,47.819,0,0,0,84,86.09" transform="translate(22.912 22.409)" fill="#fd569e"/>
              <path id="パス_2209" data-name="パス 2209" d="M72.552,63.071a.028.028,0,0,1,.017.009.252.252,0,0,0,.017-.117.154.154,0,0,1-.035.107" transform="translate(24.607 21.355)" fill="#714e51"/>
              <path id="パス_2210" data-name="パス 2210" d="M79.062,69.9H73.728l-.658-3.925-.493-2.96H77.91Z" transform="translate(24.616 21.374)" fill="#ffbca8"/>
              <g id="グループ_408" data-name="グループ 408" transform="translate(97.687 85.432)" style="mix-blend-mode: multiply;isolation: isolate">
                <g id="グループ_407" data-name="グループ 407">
                  <g id="グループ_406" data-name="グループ 406" clip-path="url(#clip-path-11)">
                    <path id="パス_2211" data-name="パス 2211" d="M76.42,63.795l-2.648,4.022H73.6l-.658-3.925Z" transform="translate(-72.946 -63.795)" fill="#ffbca8"/>
                  </g>
                </g>
              </g>
              <path id="パス_2212" data-name="パス 2212" d="M72.847,62.12a.447.447,0,0,0,.34.028c.012-.029.005-.062.023-.09Z" transform="translate(24.707 21.048)" fill="#ffbca8"/>
              <path id="パス_2213" data-name="パス 2213" d="M71.674,64.826c-.062,0-.125.016-.186.025l.489-.469c-.1.145-.2.295-.3.443" transform="translate(24.247 21.837)" fill="#ffbca8"/>
              <path id="パス_2214" data-name="パス 2214" d="M79.185,67.829c-.834,1.223-3.621.783-6.282-.97.738-.216,1.462-.388,2.121-.524a13.19,13.19,0,0,1,4.249-.159,1.836,1.836,0,0,1-.088,1.653" transform="translate(24.726 22.41)" fill="#ffbca8"/>
              <path id="パス_2215" data-name="パス 2215" d="M72.665,61.325c.009,0,.016.011.024.021a.564.564,0,0,0,.021-.125.156.156,0,0,1-.046.1" transform="translate(24.646 20.765)" fill="#714e51"/>
              <path id="パス_2216" data-name="パス 2216" d="M69.986,61.846a7.171,7.171,0,0,0,.809,4.386,5.43,5.43,0,0,0,4,2.255,4.661,4.661,0,0,0,2.548-.3c1.513-.71,2.368-2.481,2.9-4.184a14.784,14.784,0,0,0,.473-1.977,7.5,7.5,0,0,0,.007-2.29,6.559,6.559,0,0,0-2.476-4.011,10.338,10.338,0,0,0-4.2-1.812,3.494,3.494,0,0,0-2.2.043,1.865,1.865,0,0,0-1,1.132,1.436,1.436,0,0,0-.075.557c-.19,1.418-.38,2.827-.57,4.247-.084.637-.169,1.287-.217,1.95" transform="translate(23.726 18.234)" fill="#ffbca8"/>
              <path id="パス_2217" data-name="パス 2217" d="M82.348,60.35a9.906,9.906,0,0,1-.959,3.4,8.831,8.831,0,0,1-3.017,3.633c-1.067.668-3.16,1.187-4.06-.009-.883-1.172-.134-3.032-1.006-4.21a4.052,4.052,0,0,0-.966-.83A7.623,7.623,0,0,1,70.3,60.36c-1.316-2.022-.7-5.772,1.544-6.96a7.568,7.568,0,0,1,5.924-.292,6.769,6.769,0,0,1,1.709.962c.029.025.058.046.1.076a7.372,7.372,0,0,1,2.779,6.2" transform="translate(23.61 17.855)" fill="#004aab"/>
              <path id="パス_2218" data-name="パス 2218" d="M73.054,60.4a.448.448,0,0,0,.336.062c.015-.027.011-.06.031-.086Z" transform="translate(24.778 20.477)" fill="#ffbca8"/>
              <path id="パス_2219" data-name="パス 2219" d="M74.916,61.153a2.552,2.552,0,0,1-.66,1.413,2.728,2.728,0,0,1-.727.682,1.174,1.174,0,0,1-.963.133c-.983-.348-.738-1.821-.352-2.516a1.786,1.786,0,0,1,1.457-.952,1.191,1.191,0,0,1,1.245,1.241" transform="translate(24.378 20.32)" fill="#ffbca8"/>
              <path id="パス_2220" data-name="パス 2220" d="M73.74,72.468c-.683-1.22-1.268-2.1-2.74-1.865a19.163,19.163,0,0,0-3,.885c-.1.291-.185.588-.261.9-.68,2.81.684,4.388,1.428,6.6v7.637c-.009.165-.019.328-.023.489a.812.812,0,0,0,.023.209c.269,1.7,3.257,2.514,4.631,2.866l.283.068V72.922a2.152,2.152,0,0,1-.337-.454" transform="translate(22.912 23.933)" fill="#d9357c"/>
              <path id="パス_2221" data-name="パス 2221" d="M74.563,53.713l.226.023Z" transform="translate(25.289 18.218)" fill="#004aab"/>
              <path id="パス_2222" data-name="パス 2222" d="M71.245,84.768a13.638,13.638,0,0,0,.047-1.551c-.323-.676-.611-1.284-.607-1.336L60.557,74.852a1.837,1.837,0,0,0-1.326-.486,1.934,1.934,0,0,0-.265.031,1.845,1.845,0,0,0-.907,3.171L67.987,86.1l.024.02a2,2,0,0,0,3.234-1.355" transform="translate(19.49 25.222)" fill="#ffbca8"/>
              <path id="パス_2223" data-name="パス 2223" d="M57.694,78.634c1.216,1.13,2.929,1.266,3.823.3s.636-2.661-.581-3.791-2.927-1.266-3.823-.3-.635,2.661.581,3.791" transform="translate(19.19 25.166)" fill="#ffbca8"/>
              <path id="パス_2224" data-name="パス 2224" d="M60.7,76.56h0a.794.794,0,0,0-.042-1.122l-3.493-3.246a.794.794,0,0,0-1.081,1.164L59.579,76.6A.794.794,0,0,0,60.7,76.56" transform="translate(18.937 24.413)" fill="#ffbca8"/>
              <path id="パス_2225" data-name="パス 2225" d="M67.167,88.121l.025.009a2.621,2.621,0,0,0,3.388-1.878l3.273-13.1a2.737,2.737,0,0,0-5.31-1.327L67.253,76.99l-1.272,5.088c-.564,2.435-1.724,4.959,1.187,6.044" transform="translate(22.138 23.658)" fill="#fd569e"/>
              <path id="パス_2226" data-name="パス 2226" d="M70.974,60.919c.029-.248.052-.5.068-.746.133-2.124-.262-4.379,1.588-5.965,1.287-1.1,3.148-1.166,4.841-1.069a11.2,11.2,0,0,1,5.335,1.347c2.953,1.844,2.939,6.5,2.06,9.5a23.75,23.75,0,0,0-.791,3.689c.021,1.919,1.13,2.891,3.317,3.26a4.858,4.858,0,0,1,3.691,2.874,6.8,6.8,0,0,1,.575,2.457c.129,2.641.38,3.375,3.452,4.313a6.869,6.869,0,0,1,4.3,3.841c2.157,4.718-.064,11.534-4.963,15.226s-10.618,2.862-12.776-1.855a10.623,10.623,0,0,1-.522-6.688c.858-3.89.487-4.538-1.233-5.962l-.015-.012a5.13,5.13,0,0,1-1.393-1.84,7.853,7.853,0,0,1-.159-5.536c.818-2.633.7-4.35-.6-5.308a12.469,12.469,0,0,0-2.893-.913,5.288,5.288,0,0,1-3.9-3.107c-1.149-2.512-.281-4.963.016-7.5" transform="translate(23.87 18.013)" fill="#004aab"/>
              <path id="パス_2227" data-name="パス 2227" d="M90,118.5a3.321,3.321,0,0,0-1.5-2.6c-.83-.479-1.5-.091-1.5.866a3.321,3.321,0,0,0,1.5,2.6c.83.479,1.5.09,1.5-.868" transform="translate(29.507 39.24)" fill="#385fc7"/>
              <path id="パス_2228" data-name="パス 2228" d="M90,118.5a3.321,3.321,0,0,0-1.5-2.6c-.83-.479-1.5-.091-1.5.866a3.321,3.321,0,0,0,1.5,2.6c.83.479,1.5.09,1.5-.868" transform="translate(29.507 39.24)" fill="#385fc7"/>
              <path id="パス_2229" data-name="パス 2229" d="M87.623,115.791l-1.295.675,2.033,3.7,1.516-.789-.384-2.086Z" transform="translate(29.28 39.273)" fill="#385fc7"/>
              <path id="パス_2230" data-name="パス 2230" d="M89.049,119a3.321,3.321,0,0,0-1.5-2.6c-.83-.479-1.5-.091-1.5.866a3.321,3.321,0,0,0,1.5,2.6c.83.478,1.5.09,1.5-.868" transform="translate(29.183 39.408)" fill="#83bbef"/>
              <path id="パス_2231" data-name="パス 2231" d="M89.049,119a3.321,3.321,0,0,0-1.5-2.6c-.83-.479-1.5-.091-1.5.866a3.321,3.321,0,0,0,1.5,2.6c.83.478,1.5.09,1.5-.868" transform="translate(29.183 39.408)" fill="#83bbef"/>
              <path id="パス_2232" data-name="パス 2232" d="M76.51,110.962a3.319,3.319,0,0,0-1.5-2.6c-.83-.479-1.5-.091-1.5.866a3.321,3.321,0,0,0,1.5,2.6c.83.478,1.5.09,1.5-.868" transform="translate(24.931 36.683)" fill="#385fc7"/>
              <path id="パス_2233" data-name="パス 2233" d="M76.51,110.962a3.319,3.319,0,0,0-1.5-2.6c-.83-.479-1.5-.091-1.5.866a3.321,3.321,0,0,0,1.5,2.6c.83.478,1.5.09,1.5-.868" transform="translate(24.931 36.683)" fill="#385fc7"/>
              <path id="パス_2234" data-name="パス 2234" d="M74.132,108.25l-1.295.675,2.033,3.7,1.516-.789L76,109.754Z" transform="translate(24.704 36.715)" fill="#385fc7"/>
              <path id="パス_2235" data-name="パス 2235" d="M75.557,111.456a3.321,3.321,0,0,0-1.5-2.6c-.83-.479-1.5-.091-1.5.868a3.321,3.321,0,0,0,1.5,2.6c.83.478,1.5.09,1.5-.868" transform="translate(24.607 36.85)" fill="#83bbef"/>
              <path id="パス_2236" data-name="パス 2236" d="M75.557,111.456a3.321,3.321,0,0,0-1.5-2.6c-.83-.479-1.5-.091-1.5.868a3.321,3.321,0,0,0,1.5,2.6c.83.478,1.5.09,1.5-.868" transform="translate(24.607 36.85)" fill="#83bbef"/>
              <path id="パス_2237" data-name="パス 2237" d="M77.143,118.836a3.316,3.316,0,0,0-1.5-2.6c-.83-.479-1.5-.091-1.5.866a3.321,3.321,0,0,0,1.5,2.6c.83.478,1.5.09,1.5-.868" transform="translate(25.145 39.353)" fill="#385fc7"/>
              <path id="パス_2238" data-name="パス 2238" d="M77.143,118.836a3.316,3.316,0,0,0-1.5-2.6c-.83-.479-1.5-.091-1.5.866a3.321,3.321,0,0,0,1.5,2.6c.83.478,1.5.09,1.5-.868" transform="translate(25.145 39.353)" fill="#385fc7"/>
              <path id="パス_2239" data-name="パス 2239" d="M74.765,116.124l-1.295.675,2.033,3.7,1.516-.789-.384-2.086Z" transform="translate(24.919 39.386)" fill="#385fc7"/>
              <path id="パス_2240" data-name="パス 2240" d="M76.19,119.33a3.316,3.316,0,0,0-1.5-2.6c-.83-.479-1.5-.091-1.5.866a3.321,3.321,0,0,0,1.5,2.6c.83.478,1.5.09,1.5-.868" transform="translate(24.822 39.521)" fill="#83bbef"/>
              <path id="パス_2241" data-name="パス 2241" d="M76.19,119.33a3.316,3.316,0,0,0-1.5-2.6c-.83-.479-1.5-.091-1.5.866a3.321,3.321,0,0,0,1.5,2.6c.83.478,1.5.09,1.5-.868" transform="translate(24.822 39.521)" fill="#83bbef"/>
              <path id="パス_2242" data-name="パス 2242" d="M90.241,111.242a3.321,3.321,0,0,0-1.5-2.6c-.83-.479-1.5-.091-1.5.866a3.321,3.321,0,0,0,1.5,2.6c.83.479,1.5.09,1.5-.868" transform="translate(29.588 36.778)" fill="#385fc7"/>
              <path id="パス_2243" data-name="パス 2243" d="M90.241,111.242a3.321,3.321,0,0,0-1.5-2.6c-.83-.479-1.5-.091-1.5.866a3.321,3.321,0,0,0,1.5,2.6c.83.479,1.5.09,1.5-.868" transform="translate(29.588 36.778)" fill="#385fc7"/>
              <path id="パス_2244" data-name="パス 2244" d="M87.863,108.53l-1.295.675,2.033,3.7,1.516-.789-.384-2.086Z" transform="translate(29.361 36.81)" fill="#385fc7"/>
              <path id="パス_2245" data-name="パス 2245" d="M89.288,111.736a3.319,3.319,0,0,0-1.5-2.6c-.83-.479-1.5-.091-1.5.866a3.321,3.321,0,0,0,1.5,2.6c.83.478,1.5.09,1.5-.868" transform="translate(29.265 36.945)" fill="#83bbef"/>
              <path id="パス_2246" data-name="パス 2246" d="M89.288,111.736a3.319,3.319,0,0,0-1.5-2.6c-.83-.479-1.5-.091-1.5.866a3.321,3.321,0,0,0,1.5,2.6c.83.478,1.5.09,1.5-.868" transform="translate(29.265 36.945)" fill="#83bbef"/>
              <path id="パス_2247" data-name="パス 2247" d="M73.475,117.667l6.649-3.839-6.649-3.838a1.211,1.211,0,0,1,0-2.291,4.4,4.4,0,0,1,3.968,0l6.649,3.839,6.649-3.839a4.4,4.4,0,0,1,3.968,0,1.211,1.211,0,0,1,0,2.291l-6.648,3.838,6.648,3.839a1.211,1.211,0,0,1,0,2.291,4.4,4.4,0,0,1-3.968,0l-6.649-3.839-6.649,3.839a4.4,4.4,0,0,1-3.968,0,1.211,1.211,0,0,1,0-2.291" transform="translate(24.643 36.367)" fill="#eef5fc"/>
              <path id="パス_2248" data-name="パス 2248" d="M73.475,117.667l6.649-3.839-6.649-3.838a1.211,1.211,0,0,1,0-2.291,4.4,4.4,0,0,1,3.968,0l6.649,3.839,6.649-3.839a4.4,4.4,0,0,1,3.968,0,1.211,1.211,0,0,1,0,2.291l-6.648,3.838,6.648,3.839a1.211,1.211,0,0,1,0,2.291,4.4,4.4,0,0,1-3.968,0l-6.649-3.839-6.649,3.839a4.4,4.4,0,0,1-3.968,0,1.211,1.211,0,0,1,0-2.291" transform="translate(24.643 36.367)" fill="#eef5fc"/>
              <path id="パス_2249" data-name="パス 2249" d="M85.394,112.907c0,1.243-1.5,2.248-3.348,2.248s-3.351-1.006-3.351-2.248a3.35,3.35,0,0,1,6.7,0" transform="translate(26.691 37.175)" fill="#bedcfc"/>
              <path id="パス_2250" data-name="パス 2250" d="M84.276,111.257c0,.911-1.1,1.65-2.457,1.65s-2.457-.739-2.457-1.65,1.1-1.65,2.457-1.65,2.457.739,2.457,1.65" transform="translate(26.917 37.175)" fill="#eef5fc"/>
              <path id="パス_2251" data-name="パス 2251" d="M81.577,97.616a1.512,1.512,0,0,1,1.5,1.523V113.8a1.5,1.5,0,1,1-3.005,0V99.139a1.512,1.512,0,0,1,1.5-1.523" transform="translate(27.159 33.108)" fill="#bedcfc"/>
              <path id="パス_2252" data-name="パス 2252" d="M58.935,105.242a2.371,2.371,0,0,0,.009.256,7.471,7.471,0,0,0,3.854,5.986l16.391,8.989a4.5,4.5,0,0,0,4.435-.066L102.4,109.344a10.248,10.248,0,0,0,5-7.874l1.966-21.044.2-2.187a2.337,2.337,0,0,0-3.361-2.314L85.887,85.98A2.329,2.329,0,0,0,84.7,87.339l-6.5,19.718a2.713,2.713,0,0,1-3.921,1.508l-10.6-6.065a3.173,3.173,0,0,0-4.747,2.743" transform="translate(19.989 25.668)" fill="#b6d9ff"/>
              <path id="パス_2253" data-name="パス 2253" d="M75.113,117.869a1.3,1.3,0,0,0,1.4,1.749,4.45,4.45,0,0,0,1.65-.576l18.774-11.063a10.25,10.25,0,0,0,5-7.876l1.811-19.374a.936.936,0,0,0-1.346-.927l-16.4,8.107a2.346,2.346,0,0,0-1.182,1.365l-6.494,19.718c-.224.687-1.6,4.617-3.219,8.876" transform="translate(25.447 27.033)" fill="#83bbef"/>
            </g>
          </g>
        </g>
      </g>
    </g>
  </g>
</svg>
